if (_typeface_js && _typeface_js.loadFace) _typeface_js.loadFace({"glyphs":{"ο":{"x_min":137.640625,"x_max":634.109375,"ha":759,"o":"m 385 250 q 209 322 282 250 q 137 497 137 395 q 210 673 137 601 q 385 746 282 746 q 561 673 488 746 q 634 497 634 601 q 561 322 634 395 q 385 250 489 250 m 384 370 q 477 408 439 370 q 516 501 516 446 q 477 593 516 555 q 384 632 438 632 q 291 593 329 632 q 253 501 253 555 q 291 408 253 446 q 384 370 329 370 "},"S":{"x_min":137.671875,"x_max":940.015625,"ha":1089,"o":"m 696 1050 l 843 1050 l 847 1045 l 847 932 l 935 932 l 940 927 l 940 830 l 935 825 l 847 825 l 847 529 q 712 347 847 439 q 590 305 674 324 l 515 294 l 483 294 q 318 329 402 294 l 318 482 l 320 484 l 320 486 q 446 454 400 454 l 501 449 q 640 489 588 459 q 691 584 691 520 l 691 825 l 599 825 l 594 830 l 594 925 l 599 929 l 691 929 l 691 1045 l 696 1050 m 142 1048 l 286 1048 l 290 1043 l 290 751 l 225 712 q 155 617 158 651 l 142 568 l 137 568 l 137 1043 l 142 1048 m 485 760 q 673 721 586 760 l 673 558 l 668 554 q 624 584 650 579 q 487 605 589 605 q 390 591 413 600 l 390 593 q 309 542 325 571 q 293 426 293 526 l 293 6 l 288 2 l 142 2 l 137 6 l 137 465 q 200 653 137 596 q 335 737 241 709 q 485 760 394 760 m 843 480 l 847 480 l 847 6 l 843 2 l 696 2 l 691 6 l 691 315 l 759 354 q 843 477 822 400 l 843 480 "},"/":{"x_min":45.4375,"x_max":431.34375,"ha":539,"o":"m 45 -14 l 333 1013 l 431 1013 l 143 -14 l 45 -14 "},"Τ":{"x_min":133.96875,"x_max":880.015625,"ha":1017,"o":"m 744 514 l 744 152 l 582 152 l 580 1020 l 441 1020 l 441 152 l 269 152 l 269 514 l 133 514 l 133 7 l 879 7 l 880 514 l 744 514 m 338 817 l 338 682 l 674 682 l 674 817 l 338 817 "},"ђ":{"x_min":140.390625,"x_max":1014.625,"ha":1146,"o":"m 694 503 l 600 625 q 742 816 609 625 q 879 1018 866 995 q 1014 928 950 973 q 851 714 933 821 q 694 503 691 505 m 571 360 l 487 467 q 349 189 349 290 q 460 24 349 86 q 581 -2 510 -2 q 745 63 697 -2 q 796 230 796 135 q 727 432 796 336 q 435 807 640 553 q 264 1018 349 912 q 263 1019 264 1019 q 203 975 258 1019 q 140 927 145 930 q 627 324 441 585 q 659 238 659 278 q 636 162 659 202 q 568 126 607 126 q 514 151 539 126 q 495 242 487 179 q 571 360 497 267 "},"y":{"x_min":134.28125,"x_max":1805.421875,"ha":1968,"o":"m 1646 381 q 1618 468 1646 431 q 1498 520 1580 520 q 1397 482 1440 520 q 1351 381 1351 443 q 1498 242 1351 242 q 1646 381 1646 242 m 1193 381 q 1284 585 1193 498 q 1498 672 1375 672 q 1714 585 1622 672 q 1805 381 1805 498 q 1714 177 1805 263 q 1498 90 1622 90 q 1284 177 1375 90 q 1193 381 1193 263 m 587 380 q 560 467 587 431 q 440 519 521 519 q 339 482 381 519 q 293 380 293 442 q 440 241 293 241 q 587 380 587 241 m 134 380 q 225 584 134 497 q 440 671 316 671 q 655 584 564 671 q 746 380 746 497 q 655 176 746 263 q 440 90 564 90 q 225 176 316 90 q 134 380 134 263 m 684 -18 q 756 231 756 39 q 726 465 756 332 q 697 714 697 599 q 774 904 697 823 q 961 984 852 984 q 1128 940 1053 984 q 1261 682 1256 864 q 1191 472 1264 550 q 1061 398 1142 419 q 1011 387 1021 387 q 897 436 944 391 l 873 625 q 996 532 933 532 q 1120 682 1120 532 q 1066 805 1120 758 q 973 845 1022 845 q 889 801 931 845 q 841 699 844 755 q 858 516 840 661 q 876 318 877 366 q 684 -18 873 97 "},"≈":{"x_min":92.234375,"x_max":786.0625,"ha":886,"o":"m 92 500 l 92 639 q 280 720 164 720 q 493 661 357 720 q 611 630 567 630 q 786 722 701 630 l 786 579 q 598 501 703 501 q 403 556 524 501 q 269 592 322 592 q 92 500 187 592 m 92 255 l 92 394 q 280 475 164 475 q 493 416 355 475 q 611 384 568 384 q 786 477 701 384 l 786 333 q 598 256 703 256 q 403 311 526 256 q 269 347 322 347 q 92 255 187 347 "},"Π":{"x_min":134.96875,"x_max":914.921875,"ha":1061,"o":"m 134 -2 l 134 992 l 914 992 l 914 -2 l 783 -2 l 783 874 l 266 874 l 266 -2 l 134 -2 "},"g":{"x_min":137.671875,"x_max":1254.71875,"ha":1401,"o":"m 137 1015 l 298 1015 l 298 163 l 1087 162 l 1087 1015 l 1254 1015 l 1254 -2 l 137 -2 l 137 1015 m 340 710 q 335 740 340 710 q 331 788 331 759 q 376 887 331 836 q 512 950 431 950 q 628 929 584 950 q 697 869 663 911 q 767 780 733 824 q 857 726 791 752 q 1020 684 928 697 q 895 674 950 674 q 690 735 746 674 q 619 815 655 775 q 513 851 577 853 q 411 807 467 849 q 340 710 349 760 m 508 693 q 514 707 510 693 q 518 735 518 722 q 504 768 518 760 q 462 778 486 778 q 430 771 444 778 q 462 802 439 786 q 518 822 491 822 q 554 811 537 822 q 562 787 562 805 q 547 732 562 760 q 508 693 531 700 m 387 714 q 352 674 370 695 q 326 615 335 651 q 315 494 315 571 q 380 287 315 366 q 567 202 448 206 q 643 221 596 200 q 685 242 685 238 q 732 217 700 229 q 810 201 772 201 q 954 227 911 201 q 1057 466 1045 284 q 1058 492 1058 478 q 1046 607 1058 543 q 1035 661 1035 671 l 927 638 q 945 474 946 573 q 924 360 944 395 q 815 303 895 307 q 726 333 769 301 q 692 363 692 357 q 642 333 675 349 q 564 310 598 311 q 472 360 514 308 q 428 494 428 417 q 442 607 428 568 q 473 658 448 622 l 387 714 "},"е":{"x_min":113.9375,"x_max":706.03125,"ha":823,"o":"m 143 933 q 316 775 252 878 l 429 775 l 429 676 l 355 676 q 397 482 394 579 q 237 366 283 439 q 229 678 250 573 l 113 678 l 113 777 l 212 777 q 143 933 204 826 m 462 468 q 634 399 563 468 q 706 232 706 330 q 634 65 706 134 q 462 -3 563 -3 q 290 65 361 -3 q 219 232 219 134 q 290 399 219 330 q 462 468 361 468 m 462 347 q 378 315 412 347 q 344 232 344 283 q 376 149 344 179 q 462 118 408 118 q 546 150 512 118 q 580 232 580 181 q 547 316 580 286 q 462 347 514 347 "},"–":{"x_min":44.765625,"x_max":817.265625,"ha":888,"o":"m 44 306 l 44 404 l 817 404 l 817 306 l 44 306 "},"Κ":{"x_min":101.96875,"x_max":1825.328125,"ha":1967,"o":"m 1115 290 q 1069 396 1115 358 q 968 430 1029 430 q 873 397 916 430 q 820 290 820 358 q 858 193 820 232 q 968 151 899 151 q 1074 188 1033 151 q 1115 290 1115 225 m 662 290 q 753 494 662 408 q 968 581 844 581 q 1182 494 1091 581 q 1273 290 1273 408 q 1182 86 1273 173 q 968 0 1091 0 q 753 86 844 0 q 662 290 662 173 m 1115 691 q 1088 779 1115 741 q 968 830 1049 830 q 867 793 909 830 q 820 691 820 753 q 968 552 820 552 q 1115 691 1115 552 m 662 691 q 753 895 662 809 q 968 982 844 982 q 1182 895 1091 982 q 1273 691 1273 809 q 1182 487 1273 574 q 968 400 1091 400 q 753 487 844 400 q 662 691 662 574 m 1666 495 q 1639 583 1666 546 q 1519 634 1600 634 q 1418 597 1461 634 q 1372 495 1372 558 q 1519 356 1372 356 q 1666 495 1666 356 m 1213 495 q 1304 699 1213 613 q 1519 786 1396 786 q 1734 699 1643 786 q 1825 495 1825 613 q 1734 291 1825 378 q 1519 204 1643 204 q 1304 291 1396 204 q 1213 495 1213 378 m 555 494 q 527 581 555 545 q 407 633 489 633 q 306 596 349 633 q 260 494 260 556 q 407 355 260 355 q 555 494 555 355 m 101 494 q 193 698 101 611 q 407 785 284 785 q 622 698 531 785 q 713 494 713 611 q 622 290 713 377 q 407 204 531 204 q 193 290 284 204 q 101 494 101 377 m 1257 745 q 1257 677 1257 677 l 1257 881 l 1260 990 l 1051 991 l 1054 1151 l 1419 1152 l 1419 786 q 1257 677 1351 785 l 1257 745 "},"ë":{"x_min":131.578125,"x_max":649.734375,"ha":809,"o":"m 260 1026 q 328 998 300 1026 q 356 931 356 970 q 328 864 356 891 q 260 836 300 836 q 192 864 220 836 q 164 931 164 891 q 192 998 164 970 q 260 1026 220 1026 m 535 1026 q 603 998 575 1026 q 631 931 631 970 q 603 864 631 891 q 535 836 575 836 q 466 864 495 836 q 438 931 438 891 q 466 998 438 970 q 535 1026 495 1026 m 649 780 l 132 780 l 131 0 l 648 0 l 648 128 l 278 128 l 278 314 l 648 314 l 648 452 l 278 452 l 278 655 l 648 655 l 649 780 "},"б":{"x_min":82.75,"x_max":625.953125,"ha":729,"o":"m 173 322 l 292 322 l 292 213 q 398 118 305 127 q 514 239 514 123 q 475 309 510 284 q 397 333 443 333 l 82 333 l 82 451 l 401 451 q 554 394 491 451 q 625 240 617 335 q 564 75 632 151 q 398 -2 495 -2 q 240 65 306 -2 q 174 214 176 131 l 173 322 m 173 734 l 585 734 l 585 617 l 293 617 l 293 461 q 173 461 215 462 l 173 734 "},"e":{"x_min":122.078125,"x_max":1024.796875,"ha":1149,"o":"m 561 1214 q 617 1193 594 1214 q 640 1142 640 1171 q 617 1090 640 1112 q 561 1069 594 1069 q 505 1090 529 1069 q 482 1142 482 1112 q 505 1193 482 1171 q 561 1214 529 1214 m 200 1215 q 256 1194 233 1215 q 278 1142 278 1172 q 256 1091 278 1112 q 200 1070 233 1070 q 145 1091 168 1070 q 122 1142 122 1112 q 145 1194 122 1172 q 200 1215 168 1215 m 280 1237 q 496 1010 406 1168 l 642 1010 l 642 893 l 547 893 q 601 598 595 761 q 395 436 455 538 q 402 656 402 562 q 385 896 402 802 l 242 896 l 242 1013 l 362 1013 q 280 1237 350 1104 m 709 593 q 932 499 836 593 q 1024 295 1024 407 q 937 84 1024 172 q 709 -6 847 -6 q 476 82 562 -6 q 394 295 394 166 q 486 499 394 407 q 709 593 582 593 m 709 466 q 590 411 638 466 q 545 295 545 360 q 590 183 545 231 q 709 131 638 131 q 828 183 780 131 q 874 295 874 231 q 828 411 874 360 q 709 466 780 466 "},"у":{"x_min":130.21875,"x_max":785.375,"ha":896,"o":"m 545 375 l 474 464 q 581 606 482 464 q 684 755 674 738 q 785 688 737 721 q 663 530 724 609 q 545 375 543 376 m 453 268 l 390 348 q 292 141 292 233 q 370 20 292 63 q 461 0 407 0 q 583 49 548 0 q 621 172 621 102 q 570 321 621 250 q 351 599 505 411 q 223 755 287 677 q 181 726 202 741 q 130 688 133 689 q 495 241 356 434 q 518 178 518 208 q 501 122 518 152 q 451 95 479 95 q 410 115 430 95 q 396 181 390 134 q 453 268 398 200 "},"J":{"x_min":86.8125,"x_max":339.109375,"ha":475,"o":"m 308 857 l 308 46 l 126 46 l 126 857 l 308 857 m 212 -270 q 123 -233 160 -270 q 86 -146 86 -197 q 123 -57 86 -94 q 212 -21 160 -21 q 302 -57 265 -21 q 339 -146 339 -94 q 302 -233 339 -197 q 212 -270 265 -270 m 212 -240 q 277 -213 250 -240 q 304 -149 304 -187 q 277 -86 304 -112 q 212 -59 250 -59 q 147 -86 174 -59 q 121 -149 121 -112 q 147 -213 121 -187 q 212 -240 174 -240 "},"»":{"x_min":96,"x_max":677.234375,"ha":791,"o":"m 537 358 l 360 667 l 460 667 l 677 358 l 460 49 l 361 49 l 537 358 m 275 358 l 96 667 l 198 667 l 411 358 l 198 49 l 96 49 l 275 358 "},"‐":{"x_min":127.5,"x_max":661.953125,"ha":805,"o":"m 127 424 l 127 547 l 661 547 l 661 424 l 127 424 "},"≥":{"x_min":134.28125,"x_max":792.84375,"ha":920,"o":"m 792 514 l 134 233 l 134 354 l 655 571 l 134 784 l 134 906 l 792 628 l 792 514 m 791 69 l 134 69 l 134 183 l 791 183 l 791 69 "},"^":{"x_min":95.625,"x_max":674.15625,"ha":801,"o":"m 221 472 l 95 472 l 335 1015 l 433 1015 l 674 472 l 551 472 l 383 876 l 221 472 "},"«":{"x_min":92,"x_max":673.25,"ha":815,"o":"m 231 358 l 407 49 l 308 49 l 92 358 l 308 667 l 408 667 l 231 358 m 494 358 l 673 49 l 570 49 l 357 358 l 570 667 l 673 667 l 494 358 "},"D":{"x_min":112.578125,"x_max":1336.09375,"ha":1463,"o":"m 435 492 l 530 375 q 387 191 521 375 q 248 -2 262 20 q 112 84 177 40 q 278 290 195 187 q 435 492 438 491 m 559 630 l 644 526 q 783 795 783 697 q 671 952 783 893 q 550 978 621 978 q 384 914 432 978 q 332 754 332 846 q 402 560 332 653 q 881 -2 578 337 q 982 -2 918 -2 q 845 133 881 40 q 836 312 813 221 q 503 665 718 431 q 471 747 471 708 q 494 819 471 781 q 562 855 524 855 q 617 829 591 855 q 636 743 644 804 q 559 630 634 718 m 1091 465 q 1264 391 1190 465 q 1336 233 1336 320 q 1268 69 1336 137 q 1091 -2 1198 -2 q 910 67 976 -2 q 846 233 846 132 q 918 391 846 320 q 1091 465 992 465 m 1091 366 q 999 323 1036 366 q 963 233 963 284 q 999 145 963 183 q 1091 105 1036 105 q 1184 145 1146 105 q 1219 233 1219 183 q 1184 323 1219 284 q 1091 366 1146 366 "},"∙":{"x_min":135.640625,"x_max":386.59375,"ha":534,"o":"m 135 125 q 172 213 135 177 q 260 250 208 250 q 349 213 313 250 q 386 125 386 177 q 349 36 386 73 q 260 0 313 0 q 172 36 208 0 q 135 125 135 73 "},"к":{"x_min":121.40625,"x_max":864.734375,"ha":977,"o":"m 421 921 q 487 896 460 921 q 514 834 514 870 q 487 774 514 799 q 421 748 460 748 q 357 774 383 748 q 330 834 330 799 q 357 896 330 870 q 421 921 383 921 m 359 732 l 482 732 l 482 544 l 359 429 q 359 732 364 735 m 770 781 l 855 680 l 375 264 q 265 236 312 236 q 181 261 221 236 q 121 376 121 299 q 255 524 121 524 q 296 520 268 524 q 337 517 324 517 l 337 405 q 278 419 300 419 q 233 387 233 419 q 270 349 233 349 q 345 384 303 349 q 770 781 378 411 m 360 -4 l 481 -4 l 482 337 q 431 286 457 311 q 358 236 392 251 q 359 114 357 236 q 360 -4 359 55 m 781 -27 l 864 52 l 540 385 l 504 362 l 504 251 l 781 -27 "},"ц":{"x_min":139.03125,"x_max":630.75,"ha":749,"o":"m 139 730 l 139 401 l 259 401 l 259 730 l 139 730 m 511 727 l 511 -2 l 630 -2 l 630 727 l 511 727 m 139 322 l 606 322 l 606 441 l 139 441 l 139 322 "},"Л":{"x_min":139.03125,"x_max":749.4375,"ha":876,"o":"m 139 0 l 749 0 l 749 160 l 299 160 l 299 975 l 139 975 l 139 0 "},"ˆ":{"x_min":120.046875,"x_max":549.359375,"ha":684,"o":"m 336 927 l 259 811 l 120 811 l 266 1001 l 396 1001 l 549 811 l 411 811 l 336 927 "},"w":{"x_min":132.9375,"x_max":1102.796875,"ha":1245,"o":"m 268 -103 q 295 -174 267 -143 q 364 -208 323 -205 q 435 -184 406 -211 q 465 -116 464 -158 q 437 -45 465 -76 q 368 -11 409 -14 q 298 -35 327 -8 q 268 -103 269 -62 m 749 -98 q 776 -169 748 -138 q 845 -203 804 -200 q 916 -179 887 -206 q 946 -111 945 -152 q 918 -40 946 -71 q 849 -6 890 -9 q 779 -30 808 -3 q 749 -98 750 -56 m 617 969 q 961 827 820 969 q 1102 483 1102 685 q 961 141 1102 283 q 617 0 819 0 q 275 141 417 0 q 132 483 132 283 q 273 827 132 685 q 617 969 414 969 m 617 836 q 367 734 470 836 q 265 485 265 632 q 367 237 265 339 q 617 134 470 134 q 865 237 763 134 q 968 485 968 339 q 866 734 968 632 q 617 836 763 836 "},"$":{"x_min":135.640625,"x_max":1020.046875,"ha":1149,"o":"m 1020 550 q 1016 506 1016 537 l 1015 506 l 1016 504 l 1016 502 q 975 373 996 402 q 776 200 904 253 l 729 184 q 655 111 702 128 l 651 111 q 588 163 626 119 l 582 170 l 582 179 l 618 208 q 641 267 641 236 q 615 298 634 298 l 611 298 q 567 242 579 298 l 566 223 l 567 221 l 567 219 l 566 217 q 609 128 566 155 q 713 92 636 92 l 735 92 q 836 122 812 107 l 860 68 l 871 33 q 794 -2 871 25 l 729 -10 l 722 -8 l 711 -8 l 704 -10 q 576 23 619 0 l 537 49 l 499 86 l 476 128 q 459 181 472 128 l 462 183 l 458 217 q 472 280 465 271 q 534 367 486 330 q 605 398 558 385 q 677 384 677 393 q 711 356 699 375 q 744 297 733 337 l 753 297 l 799 323 q 808 332 799 327 q 857 380 835 354 q 923 559 923 470 l 921 569 l 923 571 q 887 699 912 659 q 835 770 869 735 q 750 832 796 812 q 710 845 750 836 q 677 900 692 885 q 652 927 677 908 q 618 946 644 937 l 618 949 q 645 956 618 954 l 663 954 l 677 956 q 800 920 756 946 q 910 836 857 893 q 971 747 957 789 q 1013 623 996 710 q 1018 553 1018 585 l 1020 552 l 1020 550 m 747 292 l 746 292 l 744 282 l 747 249 q 740 216 744 216 l 740 212 l 744 208 q 758 258 754 208 q 747 292 750 292 m 708 775 q 652 653 689 687 q 567 611 603 611 l 548 611 q 463 653 501 617 q 435 697 438 679 l 433 699 l 430 699 q 338 647 387 689 q 246 418 246 558 q 284 274 246 354 q 374 190 329 215 q 433 159 403 169 l 451 159 l 457 155 l 453 149 q 508 61 465 101 l 510 60 l 510 52 q 491 47 510 47 q 293 108 392 47 q 194 210 234 156 q 174 245 189 215 q 153 298 166 257 l 155 304 q 137 397 145 317 l 139 397 l 137 398 l 137 417 l 135 430 q 166 566 144 518 q 215 650 198 630 l 239 682 q 325 755 274 719 q 397 790 325 761 q 424 798 404 794 q 453 859 429 832 q 475 877 467 874 l 478 877 q 566 826 514 877 q 552 808 566 813 l 537 782 q 531 750 531 765 q 562 717 536 717 l 564 717 q 596 761 596 727 l 596 782 q 516 877 569 852 q 465 891 493 891 l 463 890 l 455 891 l 448 891 l 440 890 l 439 891 l 436 891 l 430 890 l 427 891 l 426 891 q 351 872 398 887 l 347 868 l 337 868 q 309 940 333 869 l 302 967 q 455 996 388 996 l 465 996 q 573 967 535 988 q 657 903 594 962 q 708 775 708 834 m 427 722 l 430 722 l 422 761 l 424 761 l 422 763 l 424 784 l 424 789 l 421 789 l 421 790 q 408 775 408 786 q 421 705 408 743 q 432 710 430 705 l 427 722 "},"∫":{"x_min":130.890625,"x_max":510.703125,"ha":608,"o":"m 267 636 l 278 996 q 312 1169 282 1093 q 425 1257 348 1257 q 483 1236 457 1257 q 510 1184 510 1215 q 493 1135 510 1155 q 448 1114 476 1114 q 396 1138 424 1114 q 369 1152 381 1152 q 342 1108 342 1152 q 348 1010 342 1078 q 373 559 373 730 q 362 160 373 529 q 301 -109 356 -40 q 210 -155 265 -155 q 152 -132 174 -155 q 130 -73 130 -109 q 191 -6 130 -6 q 238 -27 216 -6 q 271 -49 261 -49 q 298 -8 298 -49 q 292 73 298 21 q 265 518 265 303 q 267 636 265 577 "},"\\":{"x_min":142.421875,"x_max":855.234375,"ha":988,"o":"m 583 -2 q 457 50 525 -2 q 433 83 433 78 q 385 177 394 136 q 364 276 364 247 l 364 293 q 387 392 364 325 q 436 467 414 444 q 480 495 472 495 l 499 495 q 566 461 529 492 q 607 391 594 430 q 629 297 622 356 l 629 283 q 602 168 629 223 q 575 124 595 162 l 561 112 l 558 112 q 499 167 529 130 l 499 168 q 518 202 507 177 q 542 292 533 215 q 525 362 535 332 q 496 389 511 382 l 493 389 q 460 330 476 380 l 455 290 l 455 247 q 484 165 460 212 q 600 93 542 93 q 660 113 638 99 q 701 148 683 122 q 760 336 760 225 l 763 360 l 763 382 q 721 524 763 454 q 701 556 715 538 q 614 688 668 618 q 547 784 547 779 q 520 818 535 793 l 493 855 q 421 970 455 910 q 385 1072 387 1043 l 385 1107 q 415 1180 394 1151 q 515 1230 438 1213 l 529 1230 q 648 1148 604 1230 q 660 1085 660 1129 q 590 914 660 1013 l 586 914 q 530 987 557 946 q 568 1079 568 1042 l 568 1091 q 525 1139 554 1139 l 520 1139 q 479 1091 488 1139 l 479 1078 q 520 987 485 1038 q 641 823 556 933 l 680 773 l 759 664 q 828 531 784 626 q 855 406 847 493 l 855 363 q 838 231 848 250 q 725 42 797 86 q 680 18 711 31 q 609 -2 680 10 l 583 -2 m 362 0 q 263 42 327 2 q 188 132 200 101 q 154 237 165 169 l 142 307 l 142 346 q 164 467 157 467 q 212 560 177 502 q 287 659 240 604 l 373 773 l 438 862 l 461 890 l 480 859 l 516 811 q 496 786 507 792 l 458 734 q 394 649 419 678 l 375 623 q 344 582 358 596 l 284 509 q 240 399 240 429 q 231 324 231 356 q 250 220 231 300 q 315 126 276 159 q 368 99 342 99 l 405 107 q 460 33 421 75 q 378 0 460 14 l 362 0 "},"о":{"x_min":131.578125,"x_max":1021.609375,"ha":1156,"o":"m 946 724 q 965 684 946 727 q 1000 579 986 633 q 1021 427 1020 503 q 946 147 1025 276 q 693 -3 852 -4 q 509 71 585 -2 q 419 214 451 126 q 396 313 394 280 q 435 460 400 402 q 571 537 481 537 q 710 467 661 537 q 756 315 754 406 q 733 204 757 247 q 677 145 717 177 q 614 169 625 159 q 575 207 598 182 q 644 316 644 260 q 631 387 644 356 q 580 430 613 430 q 506 311 513 430 q 548 196 503 257 q 690 123 602 123 q 835 241 777 123 q 881 421 883 337 q 842 600 880 508 q 805 675 811 675 l 946 724 m 536 29 q 504 55 535 29 q 478 77 491 66 q 440 131 464 97 q 426 122 433 126 q 401 120 415 116 q 324 169 358 129 q 262 368 265 237 q 314 561 261 439 q 369 670 361 670 l 242 731 q 174 592 187 623 q 131 357 131 478 q 199 110 131 210 q 384 0 269 5 q 536 29 494 -6 "},"Д":{"x_min":134.96875,"x_max":1072.953125,"ha":1216,"o":"m 134 6 l 134 318 q 240 319 145 318 q 360 320 334 320 q 380 319 385 320 q 371 319 378 319 q 379 320 373 319 q 465 259 397 299 q 574 199 515 231 q 436 173 525 187 q 302 166 358 168 l 302 6 l 134 6 m 346 153 q 482 161 375 152 q 611 189 558 171 q 757 158 650 177 q 871 148 849 148 q 617 126 653 126 q 346 153 594 126 m 1072 4 l 910 4 l 910 160 q 244 679 272 184 q 347 926 235 826 q 617 1020 458 1025 q 894 914 789 1015 q 992 672 994 815 q 923 442 990 531 q 818 345 893 400 l 654 401 q 752 495 739 478 q 813 662 813 572 q 737 813 813 755 q 622 858 677 857 q 519 837 569 858 q 420 682 419 794 q 557 415 421 510 q 838 318 659 344 q 1072 301 895 309 l 1072 4 "},"Ι":{"x_min":129.671875,"x_max":381.96875,"ha":522,"o":"m 169 0 l 169 810 l 351 810 l 351 0 l 169 0 m 255 1127 q 345 1091 308 1127 q 381 1003 381 1054 q 345 915 381 951 q 255 878 308 878 q 166 915 203 878 q 129 1003 129 951 q 166 1091 129 1054 q 255 1127 202 1127 m 255 1097 q 190 1070 217 1097 q 164 1007 164 1044 q 190 943 164 969 q 255 916 217 916 q 320 943 293 916 q 347 1007 347 969 q 320 1070 347 1044 q 255 1097 293 1097 "},"’":{"x_min":74,"x_max":216,"ha":338,"o":"m 85 862 l 85 1004 l 216 1004 l 216 892 q 194 761 216 801 q 103 679 165 706 l 74 726 q 148 862 144 755 l 85 862 "},"Ν":{"x_min":121.40625,"x_max":1011.4375,"ha":1148,"o":"m 936 1458 q 954 1418 936 1461 q 990 1313 975 1367 q 1011 1161 1009 1237 q 936 881 1015 1009 q 682 730 842 729 q 499 805 575 731 q 408 948 441 859 q 385 1047 383 1014 q 425 1194 390 1136 q 561 1271 471 1271 q 700 1201 651 1271 q 746 1049 744 1140 q 722 938 747 981 q 667 878 707 911 q 604 903 615 893 q 564 941 588 916 q 634 1050 634 994 q 621 1121 634 1089 q 570 1163 602 1163 q 496 1045 503 1163 q 537 930 493 990 q 680 857 592 857 q 825 975 767 857 q 871 1155 872 1071 q 832 1334 870 1242 q 795 1409 801 1409 l 936 1458 m 526 763 q 494 789 524 763 q 467 811 481 800 q 430 865 454 831 q 416 856 423 860 q 391 853 404 850 q 314 903 348 863 q 252 1102 255 971 q 304 1295 250 1173 q 359 1404 351 1404 l 231 1465 q 164 1325 177 1357 q 121 1091 121 1211 q 189 844 121 944 q 374 733 259 739 q 526 763 484 727 m 457 382 l 528 295 q 421 158 521 295 q 318 12 328 29 q 216 78 265 45 q 339 231 278 154 q 457 382 459 381 m 544 485 l 607 407 q 711 608 711 535 q 628 725 711 681 q 537 745 590 745 q 413 697 449 745 q 375 577 375 646 q 427 433 375 502 q 647 164 493 346 q 775 12 711 88 q 817 41 796 27 q 868 78 866 76 q 502 511 642 324 q 478 572 478 543 q 495 626 478 598 q 546 653 518 653 q 588 634 568 653 q 602 569 607 615 q 544 485 600 551 "},"ъ":{"x_min":107.15625,"x_max":742.65625,"ha":855,"o":"m 261 343 q 261 343 261 343 l 261 343 l 261 627 l 107 627 l 107 738 l 385 738 l 385 451 q 318 414 353 443 q 261 332 276 379 l 261 343 m 501 0 q 330 66 401 0 q 259 230 259 134 q 330 394 259 326 q 501 461 401 461 q 672 394 601 461 q 742 230 742 326 q 672 66 742 134 q 501 0 601 0 m 624 230 q 495 347 624 347 q 415 319 448 347 q 378 230 378 286 q 501 112 378 112 q 624 230 624 112 "},"-":{"x_min":127.5,"x_max":661.953125,"ha":805,"o":"m 127 424 l 127 547 l 661 547 l 661 424 l 127 424 "},"ѕ":{"x_min":127.515625,"x_max":548.6875,"ha":671,"o":"m 130 -202 l 161 -103 q 279 -35 216 -42 q 417 -24 383 -42 q 457 40 457 -2 q 430 88 457 71 q 339 118 413 99 q 234 148 258 139 q 147 211 170 172 q 127 282 127 243 q 187 396 127 352 q 320 433 238 433 q 498 367 449 433 q 526 322 520 337 l 454 291 q 326 360 430 360 q 213 292 213 360 q 259 237 213 255 q 337 215 271 232 q 440 185 424 191 q 527 126 503 162 q 548 50 548 95 q 448 -92 548 -50 q 337 -115 399 -115 q 130 -202 209 -103 "},"Q":{"x_min":145.140625,"x_max":671.4375,"ha":803,"o":"m 449 1231 q 499 1178 477 1224 q 509 1124 503 1134 l 507 1122 l 507 1120 q 576 1035 529 1058 q 619 1015 588 1026 q 671 998 670 1001 l 671 996 q 604 984 671 984 l 596 984 q 505 1015 554 988 q 438 1079 489 1015 q 408 1169 408 1127 q 445 1231 415 1231 l 449 1231 m 242 1037 l 350 1037 l 354 1033 l 354 944 l 439 944 l 443 940 l 443 849 l 439 845 l 358 845 l 358 3 l 354 0 l 242 0 l 238 3 l 238 843 l 149 843 l 145 847 l 145 940 l 149 944 l 238 944 l 238 1033 l 242 1037 "},"Ш":{"x_min":133.609375,"x_max":961.046875,"ha":1087,"o":"m 961 1015 l 805 1013 l 805 440 l 621 440 l 621 708 l 473 708 l 473 440 l 282 440 l 282 1015 l 133 1014 l 133 295 l 476 295 l 476 -2 l 621 -2 l 621 295 l 961 295 l 961 1015 "},"ς":{"x_min":125.46875,"x_max":722.3125,"ha":880,"o":"m 722 717 l 693 615 q 541 639 617 639 q 330 561 415 639 q 244 356 244 481 q 306 198 244 256 q 464 122 358 149 q 577 86 544 101 q 666 14 639 59 q 690 -75 690 -25 q 606 -235 690 -176 q 427 -288 531 -288 q 324 -278 381 -288 l 354 -166 q 422 -174 393 -174 q 514 -153 475 -174 q 562 -78 562 -127 q 512 -9 562 -33 q 423 14 490 0 q 210 119 287 43 q 125 335 125 204 q 252 630 125 516 q 557 740 375 740 q 722 717 640 740 "},"M":{"x_min":121.40625,"x_max":859.984375,"ha":998,"o":"m 603 1199 l 604 1198 l 606 1198 l 616 1199 q 722 1155 668 1197 q 799 1072 753 1133 q 841 976 818 1041 q 856 883 853 919 l 855 882 l 858 851 l 857 851 l 858 850 l 858 849 l 859 763 l 858 735 l 857 733 l 858 731 l 857 720 q 849 650 852 649 l 851 648 l 851 647 l 844 607 q 857 393 860 470 l 856 393 l 857 391 l 857 379 l 856 378 l 857 377 l 855 341 l 854 319 q 811 164 834 220 q 726 48 785 102 l 688 23 q 653 9 683 23 q 602 0 618 0 l 580 0 q 471 46 531 2 q 398 149 417 93 q 370 294 367 223 l 371 296 l 371 297 l 370 299 q 405 402 381 362 q 459 455 430 440 q 489 465 482 465 q 548 446 530 459 q 600 375 596 398 q 622 288 623 324 l 621 281 l 623 276 l 621 274 l 623 267 q 596 158 621 223 q 559 106 579 124 l 556 106 q 512 147 529 123 q 502 158 508 147 l 502 160 q 530 212 515 169 l 539 261 l 539 300 q 526 349 531 337 q 502 375 526 356 q 467 347 472 376 l 462 339 l 463 337 l 463 336 q 453 297 456 317 q 497 134 450 198 q 567 87 533 96 l 602 80 l 606 80 q 708 145 663 78 l 731 189 q 765 343 763 278 l 767 381 l 769 402 l 767 446 l 769 448 l 769 449 q 751 598 764 550 l 747 607 q 768 748 766 691 l 767 749 l 767 750 l 770 765 l 769 767 l 769 772 l 771 784 q 751 936 767 875 l 727 1013 q 640 1107 701 1073 l 639 1106 l 638 1106 l 617 1112 l 613 1111 l 612 1112 l 610 1112 l 574 1102 q 542 1148 562 1128 l 518 1169 l 517 1171 l 517 1172 q 556 1193 518 1182 q 603 1199 562 1197 m 387 1201 l 387 1199 l 388 1201 l 391 1201 l 393 1199 l 394 1201 l 396 1201 l 397 1199 l 398 1201 l 400 1201 q 476 1178 476 1187 q 551 1108 510 1167 q 597 1025 575 1083 q 615 941 610 980 l 613 941 l 614 939 l 613 916 l 615 910 l 613 906 l 615 900 l 611 885 l 613 883 q 574 779 611 836 q 496 733 538 731 l 493 733 q 418 776 453 734 q 371 883 386 806 q 367 933 366 912 q 400 1059 370 1005 q 422 1090 401 1070 l 425 1090 q 482 1041 451 1079 l 482 1039 l 480 1038 l 482 1036 l 482 1033 q 465 1008 470 1025 q 448 948 455 990 l 450 944 l 448 935 l 448 926 q 460 852 447 893 q 492 819 470 830 l 495 819 q 532 903 522 818 l 533 912 q 499 1040 535 978 q 424 1109 474 1085 q 383 1116 409 1115 l 378 1116 l 368 1115 l 368 1117 q 335 1103 347 1112 q 281 1060 318 1101 q 239 978 259 1032 q 208 829 210 905 l 209 815 l 207 809 l 210 747 l 208 747 q 215 693 212 733 l 231 600 q 207 440 211 551 l 207 425 l 208 417 l 206 410 l 208 404 l 206 402 l 206 401 q 235 227 212 309 q 284 130 250 185 q 388 80 328 82 q 413 88 404 82 q 431 61 421 82 l 465 24 l 465 21 q 383 0 457 3 q 297 24 323 8 l 248 61 q 196 122 210 94 q 141 265 168 162 q 125 398 124 363 l 126 398 l 125 400 l 126 415 l 125 431 l 127 450 l 127 453 q 137 554 132 554 l 135 555 l 135 556 l 141 590 q 122 786 125 678 l 121 815 q 174 1048 126 958 q 245 1145 193 1091 q 343 1195 299 1192 l 387 1201 "},"ј":{"x_min":119.5,"x_max":813.328125,"ha":952,"o":"m 522 1084 l 545 1084 q 700 1019 609 1084 q 813 767 813 928 q 668 487 813 591 q 542 449 602 449 l 510 449 q 443 473 443 464 l 432 483 l 432 491 q 395 702 424 567 l 393 729 l 396 729 q 438 635 424 639 q 527 600 479 600 q 639 685 593 600 q 654 761 654 732 l 654 769 q 558 911 654 871 l 518 917 q 407 833 448 917 q 388 721 388 784 q 416 494 388 665 q 428 343 428 388 l 428 241 l 589 241 l 594 236 l 594 140 l 589 136 l 411 136 q 367 -11 411 102 q 351 -46 363 -14 q 238 -193 299 -134 l 232 -197 l 225 -197 q 221 -190 221 -197 q 280 -44 261 -116 q 301 115 301 62 l 301 136 l 124 136 l 119 140 l 119 239 l 124 243 l 297 243 l 297 259 q 276 426 291 363 q 230 688 230 658 l 228 719 l 228 767 q 259 915 236 856 q 320 1003 285 963 q 453 1076 370 1052 l 522 1084 "},"Ψ":{"x_min":87,"x_max":1075,"ha":1208,"o":"m 87 994 l 219 994 l 219 726 q 290 499 219 570 q 515 420 357 432 l 515 994 l 647 994 l 647 420 q 873 506 804 429 q 943 742 943 584 l 943 994 l 1075 994 l 1075 713 q 647 307 1075 313 l 647 0 l 515 0 l 515 307 q 87 701 87 314 l 87 994 "},"C":{"x_min":120.71875,"x_max":906.109375,"ha":1036,"o":"m 898 73 l 790 0 q 740 63 778 9 q 634 212 657 169 l 632 212 l 632 141 l 628 137 l 549 137 l 549 45 l 544 40 l 472 40 l 467 45 l 467 137 l 382 137 l 377 141 l 377 210 l 215 5 l 120 100 l 120 104 q 419 480 286 307 l 423 480 q 496 370 430 477 l 496 366 q 439 288 496 357 q 384 221 413 250 l 467 221 l 467 315 l 472 320 l 547 320 l 551 315 l 551 219 l 628 219 q 551 324 608 236 q 439 482 498 389 q 382 563 382 554 q 342 644 358 594 q 329 733 329 707 l 329 741 q 349 851 336 820 q 366 884 352 851 q 461 961 417 950 q 516 976 490 976 l 526 976 q 725 750 674 976 l 729 713 l 729 687 q 722 658 722 677 q 712 614 714 642 q 648 513 680 537 q 611 491 621 491 l 608 491 q 516 614 545 581 q 526 618 516 618 q 571 673 543 618 l 575 704 l 575 735 q 529 820 575 801 l 526 820 q 470 728 487 820 q 588 504 470 647 l 861 130 q 898 73 898 83 m 810 1220 l 810 1220 q 897 1167 864 1220 l 906 1127 q 887 1068 906 1103 q 857 1038 870 1045 q 836 1020 857 1033 q 798 1003 803 1003 l 794 1003 q 759 1047 782 1015 q 838 1127 838 1085 q 797 1152 841 1152 q 729 1122 757 1152 l 701 1152 q 689 1183 710 1144 q 810 1220 752 1220 "},"!":{"x_min":128.1875,"x_max":354.703125,"ha":479,"o":"m 151 228 l 151 1258 l 328 1258 l 328 228 l 151 228 m 128 45 q 161 124 128 91 q 240 158 193 158 q 321 125 288 158 q 354 45 354 92 q 321 -34 354 -1 q 240 -67 288 -67 q 161 -34 193 -67 q 128 45 128 -1 "},"Й":{"x_min":131.578125,"x_max":664.65625,"ha":806,"o":"m 299 779 l 299 0 l 489 0 l 489 779 l 299 779 m 252 1020 q 336 988 301 1020 q 371 918 371 956 q 337 844 371 879 q 252 807 299 807 q 168 844 205 807 q 133 918 133 879 q 169 988 133 956 q 252 1020 204 1020 m 545 1020 q 629 988 594 1020 q 664 918 664 956 q 630 844 664 879 q 545 807 592 807 q 461 844 498 807 q 427 918 427 879 q 462 988 427 956 q 545 1020 497 1020 m 131 1128 q 199 1113 165 1121 q 288 1068 246 1102 q 403 958 382 991 q 468 1038 413 1018 q 600 1049 537 1062 q 565 1083 583 1066 q 499 1108 537 1106 q 389 1087 421 1112 q 311 1186 362 1146 q 220 1250 269 1219 l 131 1128 "},"{":{"x_min":129.546875,"x_max":1336.78125,"ha":1491,"o":"m 254 962 l 259 962 q 723 593 511 756 l 723 588 q 588 498 720 580 l 582 498 q 487 569 571 498 q 403 636 439 600 l 403 533 l 520 533 l 525 528 l 525 436 l 520 430 l 400 430 l 400 335 q 531 430 422 360 q 726 569 611 495 q 826 639 815 639 q 927 688 864 668 q 1035 704 1004 704 l 1046 704 q 1182 680 1144 696 q 1222 658 1182 675 q 1317 541 1304 596 q 1336 474 1336 505 l 1336 460 q 1057 216 1336 278 l 1011 210 l 978 210 q 943 219 967 219 q 889 232 923 229 q 764 311 793 270 q 737 357 737 343 l 737 360 q 889 474 849 438 q 894 460 894 474 q 962 406 894 439 l 1000 400 l 1038 400 q 1144 457 1120 400 l 1144 460 q 1030 531 1144 509 q 753 384 929 531 l 292 48 q 221 2 233 2 l 129 134 q 208 197 141 149 q 392 327 339 299 l 392 330 l 305 330 l 300 335 l 300 433 l 186 433 l 181 438 l 181 528 l 186 533 l 300 533 l 300 639 l 305 644 l 389 644 l 137 845 l 254 962 "},"X":{"x_min":129.546875,"x_max":1852.90625,"ha":2008,"o":"m 1142 283 q 1097 388 1142 350 q 995 422 1057 422 q 900 389 944 422 q 848 283 848 350 q 886 186 848 225 q 995 144 927 144 q 1102 181 1061 144 q 1142 283 1142 218 m 689 283 q 780 487 689 400 q 995 573 872 573 q 1210 487 1119 573 q 1301 283 1301 400 q 1210 79 1301 166 q 995 -7 1119 -7 q 780 79 872 -7 q 689 283 689 166 m 1142 684 q 1115 771 1142 734 q 995 823 1077 823 q 894 786 937 823 q 848 684 848 746 q 995 545 848 545 q 1142 684 1142 545 m 689 684 q 780 888 689 801 q 995 974 872 974 q 1210 888 1119 974 q 1301 684 1301 801 q 1210 480 1301 567 q 995 393 1119 393 q 780 480 872 393 q 689 684 689 567 m 1694 488 q 1667 575 1694 539 q 1547 627 1628 627 q 1445 590 1488 627 q 1399 488 1399 550 q 1547 349 1399 349 q 1694 488 1694 349 m 1241 488 q 1332 692 1241 605 q 1547 779 1423 779 q 1762 692 1671 779 q 1852 488 1852 605 q 1762 284 1852 370 q 1547 197 1671 197 q 1332 284 1423 197 q 1241 488 1241 370 m 582 486 q 555 574 582 537 q 435 626 516 626 q 334 589 377 626 q 288 486 288 549 q 435 347 288 347 q 582 486 582 347 m 129 486 q 220 691 129 604 q 435 777 311 777 q 650 691 559 777 q 741 486 741 604 q 650 283 741 369 q 435 196 559 196 q 220 283 311 196 q 129 486 129 369 "},"#":{"x_min":127.5,"x_max":990.890625,"ha":1131,"o":"m 938 1243 l 940 1241 l 937 1237 q 978 1065 959 1172 l 984 1015 l 982 1014 l 982 1013 l 990 943 l 988 942 l 990 924 l 990 912 q 955 722 988 798 q 876 598 923 644 q 819 550 869 583 q 676 509 749 507 l 676 510 l 674 509 q 571 531 623 510 q 545 545 571 533 q 484 604 507 576 l 482 604 l 480 604 l 479 604 l 479 602 l 484 594 l 480 591 l 480 589 l 485 588 l 484 587 l 484 584 q 558 524 516 545 q 659 497 598 507 l 666 499 l 681 497 q 699 503 692 496 l 701 503 q 713 444 709 496 q 642 258 712 343 l 638 256 l 636 256 q 581 333 630 269 l 571 330 l 569 333 l 569 334 q 611 440 610 398 q 558 510 612 509 l 553 510 q 517 472 529 510 l 516 447 q 569 323 515 393 l 704 141 l 802 10 q 859 -69 859 -59 l 772 -134 l 767 -133 q 648 33 735 -97 l 452 309 q 406 443 410 380 l 406 450 q 459 579 407 530 l 459 583 l 457 583 q 417 548 438 583 q 403 510 411 535 l 398 507 q 354 518 395 510 q 265 575 284 546 q 207 645 225 611 q 155 746 175 690 q 134 832 133 813 l 135 832 q 127 921 130 855 l 127 923 q 200 1242 130 1081 l 200 1247 l 202 1247 q 265 1214 211 1247 l 287 1204 l 288 1206 l 293 1195 q 243 1070 274 1195 l 226 975 l 228 973 l 225 948 l 225 904 l 227 896 l 225 895 l 225 893 q 271 729 235 794 q 370 614 301 651 q 430 597 412 598 l 479 604 q 460 640 479 612 q 432 695 442 672 q 408 851 406 777 q 448 997 409 927 l 478 1031 q 535 1059 510 1055 l 535 1057 l 564 1062 q 619 1044 599 1056 q 718 897 686 1003 l 728 845 l 725 843 l 727 834 l 727 824 l 728 800 l 727 795 l 727 790 q 716 722 721 722 l 718 716 q 665 624 689 643 l 653 624 q 584 666 583 649 l 584 666 q 623 814 622 733 l 623 826 l 626 836 q 566 966 607 965 q 529 939 541 959 q 513 886 514 910 l 511 876 l 509 876 l 511 874 l 509 843 q 576 647 506 720 q 666 609 619 610 l 671 607 l 671 605 l 674 607 l 680 607 q 801 658 758 605 q 892 944 888 725 q 862 1155 893 1008 q 845 1214 857 1169 l 938 1243 m 496 606 l 501 600 q 556 609 522 609 l 575 607 l 581 608 q 650 580 619 600 q 701 517 690 552 l 703 517 l 707 520 q 660 583 689 571 q 585 617 644 604 l 552 619 q 496 608 497 617 l 496 606 m 484 230 l 487 230 q 503 208 493 228 q 557 140 552 140 l 557 138 l 532 106 l 354 -134 l 349 -134 l 267 -70 l 486 225 l 484 230 "},"Б":{"x_min":113.9375,"x_max":872.1875,"ha":999,"o":"m 231 446 l 399 446 l 399 298 q 458 195 411 225 q 554 168 491 174 q 650 196 610 170 q 716 334 716 239 q 662 430 710 396 q 553 463 617 463 l 113 463 l 113 624 l 559 624 q 781 536 691 624 q 872 315 872 447 q 779 102 872 197 q 554 2 683 3 q 328 96 425 2 q 233 299 235 187 l 231 446 m 231 1018 l 817 1019 l 817 857 l 401 857 l 401 637 q 231 637 290 638 l 231 1018 "},"ι":{"x_min":130.890625,"x_max":252.984375,"ha":381,"o":"m 130 2 l 130 722 l 252 722 l 252 2 l 130 2 "},"г":{"x_min":111.90625,"x_max":558.171875,"ha":640,"o":"m 111 740 l 558 740 l 558 616 l 242 616 l 242 -3 l 111 -3 l 111 740 "},")":{"x_min":137.671875,"x_max":465.9375,"ha":606,"o":"m 225 -305 l 137 -305 q 340 476 340 84 q 246 1013 340 757 q 137 1258 219 1089 l 225 1258 q 465 476 465 872 q 225 -305 465 61 "},"э":{"x_min":114.625,"x_max":609.0625,"ha":729,"o":"m 468 274 l 468 382 l 286 382 l 286 274 l 468 274 m 124 -175 q 247 -137 144 -178 q 480 12 390 -80 q 609 325 607 142 q 482 678 610 533 q 243 845 391 781 q 114 889 115 899 q 460 371 460 623 q 457 322 460 347 q 394 76 436 164 q 287 -58 358 0 q 124 -175 284 -61 "},"х":{"x_min":128.859375,"x_max":771.140625,"ha":896,"o":"m 771 -94 q 427 52 579 -96 q 275 392 275 201 q 362 644 275 528 l 437 509 q 412 385 412 448 q 513 128 412 257 q 771 -94 606 9 m 750 885 q 453 737 532 809 l 526 668 q 750 885 569 739 m 128 857 q 463 709 307 858 q 623 364 623 556 q 537 117 623 233 l 462 252 q 487 377 487 313 q 386 634 487 504 q 128 857 293 753 m 138 -123 q 435 19 364 -46 l 363 93 q 138 -123 319 22 "},"Å":{"x_min":134.28125,"x_max":922.390625,"ha":1079,"o":"m 461 5 l 461 882 l 134 882 l 134 999 l 922 999 l 922 882 l 593 882 l 593 5 l 461 5 "},"}":{"x_min":136.328125,"x_max":1343.5625,"ha":1493,"o":"m 1218 2 l 1213 2 q 749 370 961 206 l 749 375 q 885 465 752 383 l 890 465 q 985 394 901 465 q 1069 326 1033 363 l 1069 430 l 952 430 l 947 435 l 947 527 l 952 533 l 1072 533 l 1072 628 q 942 533 1050 603 q 746 394 861 467 q 646 324 657 324 q 545 275 608 295 q 437 259 468 259 l 426 259 q 290 283 328 267 q 250 305 290 288 q 155 421 168 367 q 136 489 136 457 l 136 503 q 415 747 137 713 l 461 752 l 494 752 q 529 744 505 744 q 583 731 550 733 q 708 652 679 693 q 735 606 735 619 l 735 603 q 583 489 623 525 q 578 503 578 489 q 510 557 578 524 l 472 562 l 434 562 q 328 505 352 562 l 328 503 q 442 432 328 454 q 719 579 543 432 l 1180 915 q 1251 961 1239 961 l 1343 828 q 1264 766 1331 813 q 1080 636 1133 664 l 1080 633 l 1167 633 l 1172 628 l 1172 530 l 1286 530 l 1292 524 l 1292 435 l 1286 430 l 1172 430 l 1172 324 l 1167 318 l 1083 318 l 1335 118 l 1218 2 "},"Ä":{"x_min":136.609375,"x_max":1115.28125,"ha":1266,"o":"m 652 1227 q 729 1185 688 1227 q 747 1136 747 1151 l 747 1108 q 696 1033 736 1059 q 637 1020 667 1020 q 541 1092 572 1020 l 537 1115 q 627 1227 537 1204 l 652 1227 m 638 983 q 806 945 708 981 q 1044 738 968 878 q 1102 594 1102 641 q 1115 499 1111 563 q 1060 289 1115 424 q 947 139 1027 217 q 788 44 852 59 q 695 13 773 33 q 658 6 675 6 l 631 6 q 229 203 373 6 q 136 497 136 335 q 233 782 136 635 q 319 877 264 825 q 638 983 454 983 m 578 954 l 578 894 q 505 875 578 886 q 296 713 363 823 q 229 492 229 610 q 313 249 229 362 q 419 154 377 175 q 542 108 467 125 q 576 102 542 104 l 578 99 l 578 48 l 684 48 l 684 104 q 702 110 684 109 l 702 108 q 826 156 757 121 q 1020 508 1020 289 q 894 793 1020 666 q 766 870 830 847 l 684 890 l 684 954 l 578 954 m 591 941 l 671 941 l 675 936 l 675 64 l 671 59 l 591 59 l 587 64 l 587 936 l 591 941 "},"ш":{"x_min":127.5,"x_max":706.703125,"ha":813,"o":"m 706 740 l 594 740 l 594 324 l 478 324 l 478 524 l 368 524 l 368 324 l 242 324 l 242 741 l 127 741 l 127 215 l 370 215 l 370 4 l 477 4 l 477 215 l 706 215 l 706 740 "},"Я":{"x_min":121.390625,"x_max":990.203125,"ha":1156,"o":"m 508 334 l 508 -2 l 585 -2 l 585 334 l 508 334 m 381 127 l 714 127 l 714 205 l 381 205 l 381 127 m 872 2 q 923 32 865 -11 q 990 81 985 78 q 796 324 943 137 q 497 722 591 587 q 469 796 469 763 q 489 861 469 823 q 545 892 514 892 q 605 860 582 884 q 622 771 629 836 q 569 655 619 746 l 650 550 q 732 693 697 617 q 750 829 761 760 q 691 958 740 913 q 540 1015 635 1015 q 408 951 462 1009 q 334 779 334 872 q 387 630 334 703 q 872 2 599 345 m 529 399 l 442 514 q 285 293 445 512 q 121 69 203 181 q 226 -10 120 69 q 529 399 357 163 "},"Ч":{"x_min":137.671875,"x_max":816.578125,"ha":941,"o":"m 478 859 q 546 834 519 859 q 573 769 573 809 q 546 702 573 727 q 478 678 519 678 q 412 702 439 678 q 385 769 385 727 q 412 834 385 809 q 478 859 439 859 m 137 1017 l 273 1017 l 273 569 l 680 569 l 680 1017 l 816 1017 l 815 432 l 545 432 l 545 0 l 408 0 l 409 432 l 138 432 l 137 1017 "},"⋲":{"x_min":92.234375,"x_max":786.0625,"ha":886,"o":"m 92 500 l 92 639 q 280 720 164 720 q 493 661 357 720 q 611 630 567 630 q 786 722 701 630 l 786 579 q 598 501 703 501 q 403 556 524 501 q 269 592 322 592 q 92 500 187 592 m 92 255 l 92 394 q 280 475 164 475 q 493 416 355 475 q 611 384 568 384 q 786 477 701 384 l 786 333 q 598 256 703 256 q 403 311 526 256 q 269 347 322 347 q 92 255 187 347 "},"a":{"x_min":124.109375,"x_max":891.859375,"ha":1008,"o":"m 797 1014 q 891 941 889 950 q 782 803 887 925 q 615 585 782 796 q 597 573 607 573 l 593 579 l 594 630 l 592 644 l 594 644 l 592 647 l 594 720 l 592 752 q 672 857 592 756 l 795 1014 l 797 1014 m 210 996 l 217 996 q 480 682 350 844 q 701 370 674 461 q 719 276 716 331 l 717 276 l 719 274 l 718 270 q 689 152 718 217 q 621 77 653 94 q 549 48 603 60 l 514 44 q 376 116 431 46 q 321 240 336 156 l 320 301 q 349 425 321 337 q 429 545 388 501 l 432 545 l 432 547 q 224 800 377 619 l 124 916 l 124 923 l 210 996 m 565 982 q 575 942 576 961 l 577 809 l 575 806 l 577 798 l 578 719 l 580 717 l 580 715 l 578 708 l 581 603 l 574 599 q 448 756 453 734 l 448 758 l 446 972 l 443 978 l 446 981 l 448 981 l 565 982 m 442 532 l 441 512 l 443 503 l 441 495 l 448 422 l 446 410 l 450 375 l 448 368 l 450 366 q 434 286 434 307 q 451 198 433 266 l 453 152 l 451 134 l 450 120 l 495 119 l 509 120 l 511 118 l 537 120 l 590 119 l 594 123 l 594 145 l 592 158 l 595 172 l 593 178 l 595 193 l 594 221 l 603 246 l 598 283 l 601 283 q 585 348 594 326 l 580 348 l 578 340 l 580 337 l 580 331 l 578 331 l 579 305 l 579 280 l 577 278 l 579 276 l 579 263 l 579 132 l 573 128 l 564 128 l 556 130 l 546 129 l 516 129 l 496 128 l 490 130 l 467 128 l 463 137 l 462 299 l 460 301 l 460 303 l 462 305 l 460 326 l 461 361 l 459 375 l 461 377 l 457 505 l 459 514 q 446 532 451 531 l 442 532 m 474 494 l 474 492 q 567 356 512 430 l 575 362 q 506 459 560 398 l 474 494 m 516 9 q 604 -47 579 8 l 608 -69 l 608 -84 q 541 -162 607 -141 l 514 -166 q 461 -141 489 -165 q 436 -88 436 -114 l 436 -64 q 505 7 437 -16 l 516 9 m 396 606 l 254 606 l 254 510 l 396 510 l 396 606 m 765 606 l 627 606 l 627 510 l 765 510 l 765 606 "},"—":{"x_min":69.171875,"x_max":1458.171875,"ha":1540,"o":"m 69 310 l 69 408 l 1458 408 l 1458 310 l 69 310 "},"=":{"x_min":119.375,"x_max":775.890625,"ha":876,"o":"m 775 588 l 119 588 l 119 702 l 775 702 l 775 588 m 775 286 l 119 286 l 119 400 l 775 400 l 775 286 "},"N":{"x_min":135.640625,"x_max":881.6875,"ha":1012,"o":"m 881 512 l 881 1019 l 135 1019 l 135 512 l 271 512 l 271 874 l 443 874 l 443 6 l 582 6 l 584 874 l 746 874 l 746 512 l 881 512 m 676 209 l 676 344 l 340 344 l 340 209 l 676 209 "},"ú":{"x_min":128.1875,"x_max":528.328125,"ha":672,"o":"m 258 2 l 257 878 l 128 877 l 128 1015 l 263 1015 l 262 1161 l 402 1161 l 402 1012 l 528 1013 l 528 875 l 399 875 l 399 2 l 258 2 "},"д":{"x_min":109.1875,"x_max":798.953125,"ha":906,"o":"m 109 -2 l 109 229 q 185 227 116 229 q 273 225 253 225 q 287 225 290 225 q 281 225 285 225 q 286 225 282 225 q 349 181 299 210 q 428 137 385 161 q 328 119 393 129 q 236 113 295 117 l 236 -2 l 109 -2 m 262 105 q 361 110 284 103 q 455 130 417 118 q 561 108 483 122 q 644 101 628 101 q 459 84 486 84 q 262 105 443 84 m 796 -4 l 668 -4 l 668 109 q 188 486 208 127 q 263 665 181 592 q 459 733 344 737 q 661 656 585 730 q 733 480 735 585 q 682 314 731 379 q 606 244 661 284 l 486 284 q 592 478 592 381 q 541 583 592 546 q 463 611 504 611 q 393 594 431 611 q 326 493 326 562 q 522 255 327 316 q 798 220 601 229 l 796 -4 "},"2":{"x_min":138.359375,"x_max":1013.9375,"ha":1153,"o":"m 307 946 l 365 999 q 394 988 378 997 q 479 908 432 964 q 537 746 537 838 q 514 644 537 697 q 430 575 483 575 q 338 621 372 575 q 308 715 307 662 q 381 865 309 836 l 307 946 m 422 674 q 453 718 453 674 q 422 765 453 765 q 392 718 392 765 q 422 674 392 674 m 501 929 l 553 858 q 605 878 588 878 q 674 845 640 877 q 729 684 727 794 q 678 457 731 592 q 536 217 621 311 q 326 106 436 105 q 309 105 318 105 q 255 161 255 105 q 281 197 255 183 q 327 207 302 207 q 377 199 364 207 q 396 188 394 188 q 442 188 416 185 l 503 243 q 322 314 428 314 q 187 263 242 314 q 138 163 138 218 q 188 61 138 109 q 316 10 242 10 q 542 94 414 10 q 746 282 663 173 q 889 682 889 468 q 827 885 889 796 q 622 992 753 992 q 501 929 549 992 m 583 78 l 673 149 q 811 107 748 107 q 919 135 851 107 q 990 163 987 163 q 1013 124 1013 163 q 973 52 1013 90 q 803 -2 914 -2 q 583 78 642 -2 "},"М":{"x_min":70.53125,"x_max":1131.28125,"ha":1279,"o":"m 70 -240 q 244 -65 188 -177 q 332 403 324 90 q 461 891 341 736 q 685 1015 548 1003 l 808 577 l 958 1015 l 1131 1015 l 1131 4 l 961 4 l 961 731 l 792 241 l 599 879 q 511 748 533 815 q 477 406 479 647 q 70 -240 471 -188 "},"Z":{"x_min":132.9375,"x_max":844.390625,"ha":956,"o":"m 136 1025 l 836 1025 l 839 1022 l 839 894 l 623 710 l 622 710 q 526 749 565 749 l 491 756 q 431 739 461 756 l 431 738 q 501 744 465 744 q 626 700 547 744 q 678 641 663 674 q 712 539 712 588 q 714 531 714 539 l 714 529 q 632 338 714 402 q 575 291 625 326 l 486 280 q 392 304 416 287 q 327 355 359 321 l 297 398 q 284 432 284 426 q 265 515 275 432 q 282 596 272 596 q 313 653 282 607 q 383 716 343 690 q 439 752 397 720 l 603 880 l 136 880 l 132 883 l 132 1022 l 136 1025 m 419 521 l 419 508 q 463 448 419 476 q 493 443 474 443 l 495 443 q 562 503 539 443 l 563 520 q 522 583 563 564 l 493 592 q 440 567 454 584 q 419 521 419 542 m 364 314 l 381 296 q 478 271 419 271 q 550 282 499 271 l 554 282 l 557 279 q 504 239 536 260 q 423 177 446 191 q 386 145 394 155 l 841 145 l 844 141 l 844 3 l 841 0 l 145 0 l 142 3 l 142 127 q 198 180 145 141 l 360 312 l 362 314 l 364 314 "},"ь":{"x_min":104.453125,"x_max":683.65625,"ha":797,"o":"m 104 923 q 285 742 212 868 q 370 483 354 624 q 215 377 286 462 q 221 493 221 434 q 104 923 221 767 m 440 466 q 612 392 538 466 q 683 232 683 320 q 616 65 683 134 q 440 -6 546 -6 q 259 64 325 -6 q 196 232 196 130 q 267 392 196 320 q 440 466 341 466 m 440 358 q 348 316 385 358 q 314 225 314 277 q 348 138 314 175 q 440 98 385 98 q 531 138 495 98 q 564 225 564 175 q 531 316 564 277 q 440 358 494 358 "},"u":{"x_min":131.578125,"x_max":750.109375,"ha":882,"o":"m 351 1079 l 352 1079 l 409 1027 l 409 1023 l 341 952 l 340 944 q 385 899 349 938 q 497 758 468 813 q 535 691 516 738 q 559 579 552 659 l 559 569 q 520 443 548 490 q 480 385 505 411 q 400 337 436 344 q 365 330 400 334 q 270 385 299 330 q 259 428 263 399 l 261 436 l 261 457 q 297 539 265 501 q 396 612 362 606 q 428 627 406 619 l 435 627 q 446 569 446 627 l 446 560 l 447 550 l 396 520 q 344 446 344 490 q 365 419 347 419 l 366 417 q 407 436 397 424 q 461 572 461 495 q 443 664 461 614 q 362 794 440 698 q 276 879 315 849 l 270 879 q 209 813 270 876 q 149 862 160 862 l 149 863 l 215 934 q 181 965 214 940 l 131 1005 l 131 1011 q 185 1074 155 1045 l 189 1074 q 273 1002 194 1066 l 276 1002 q 351 1079 340 1071 m 572 626 q 672 566 604 621 q 745 407 745 473 q 750 338 750 407 l 750 330 q 719 186 741 238 q 661 50 703 132 q 634 4 637 5 l 630 4 l 561 44 q 553 50 556 44 l 553 55 q 611 161 566 70 q 656 351 656 263 l 656 356 q 635 446 649 404 q 582 516 623 480 l 564 529 l 571 562 l 569 564 l 571 575 l 571 588 l 566 622 l 572 626 "},"˜":{"x_min":130.203125,"x_max":583.953125,"ha":727,"o":"m 130 826 q 165 935 129 892 q 267 981 203 981 q 382 944 309 981 q 446 924 422 924 q 495 983 487 924 l 583 983 q 451 828 579 828 q 338 866 408 828 q 271 891 293 891 q 220 826 219 891 l 130 826 "},"k":{"x_min":139.015625,"x_max":633.453125,"ha":745,"o":"m 461 316 l 461 424 l 280 424 l 280 316 l 461 316 m 623 -132 q 460 -15 463 -18 q 353 118 389 42 q 290 364 311 206 q 287 413 287 389 q 633 931 287 666 q 504 887 632 941 q 265 720 356 824 q 139 367 137 575 q 267 54 140 184 q 500 -94 357 -37 q 623 -132 603 -135 "},"З":{"x_min":132.25,"x_max":740.625,"ha":874,"o":"m 181 1016 l 740 1016 l 740 872 q 623 708 682 790 q 465 529 538 590 q 267 448 364 446 q 164 502 203 449 q 132 583 137 539 q 146 672 132 634 q 267 763 177 760 q 330 744 299 764 l 330 621 q 316 632 323 626 q 276 636 304 638 q 251 604 247 634 q 290 580 255 581 q 475 731 345 579 q 583 870 529 800 l 181 870 l 181 1016 m 347 803 l 473 803 l 473 749 l 347 623 l 347 803 m 473 325 l 347 325 l 347 438 l 473 509 l 473 325 m 411 306 q 463 285 442 306 q 485 233 485 263 q 463 181 485 202 q 411 160 442 160 q 359 181 381 160 q 338 233 338 202 q 359 285 338 263 q 411 306 381 306 m 485 514 l 573 619 q 710 362 697 501 q 613 141 716 295 q 501 -10 602 124 q 427 -184 455 -71 q 400 -280 402 -280 q 374 -251 385 -280 q 361 -150 359 -214 q 417 83 365 2 q 495 207 486 193 q 548 374 550 308 q 524 474 545 442 q 485 514 516 489 "},"в":{"x_min":107.15625,"x_max":567,"ha":661,"o":"m 447 218 q 413 297 447 269 q 337 322 383 322 q 265 298 298 322 q 226 218 226 269 q 255 145 226 174 q 337 113 285 113 q 417 141 386 113 q 447 218 447 169 m 107 218 q 175 371 107 306 q 337 436 244 436 q 498 371 430 436 q 567 218 567 306 q 498 65 567 130 q 337 0 430 0 q 175 65 244 0 q 107 218 107 130 m 447 519 q 427 585 447 557 q 337 623 398 623 q 261 596 293 623 q 226 519 226 566 q 337 415 226 415 q 447 519 447 415 m 107 519 q 175 672 107 607 q 337 737 244 737 q 498 672 430 737 q 567 519 567 607 q 498 366 567 431 q 337 301 430 301 q 175 366 244 301 q 107 519 107 431 "},"Η":{"x_min":138.578125,"x_max":816.796875,"ha":947,"o":"m 138 0 l 138 991 l 274 991 l 274 585 l 681 585 l 681 990 l 816 991 l 816 0 l 681 0 l 681 474 l 274 474 l 274 0 l 138 0 "},"Α":{"x_min":133.609375,"x_max":1112.28125,"ha":1216,"o":"m 649 1228 q 726 1186 685 1228 q 744 1137 744 1152 l 744 1109 q 693 1034 733 1060 q 634 1021 664 1021 q 538 1093 569 1021 l 534 1116 q 624 1228 534 1205 l 649 1228 m 635 984 q 803 946 705 982 q 1041 739 965 879 q 1099 595 1099 642 q 1112 500 1108 564 q 1057 290 1112 425 q 944 140 1024 218 q 785 45 849 60 q 692 14 770 34 q 655 7 672 7 l 628 7 q 226 204 370 7 q 133 498 133 336 q 230 783 133 636 q 316 878 261 826 q 635 984 451 984 m 575 955 l 575 895 q 502 876 575 887 q 293 714 360 824 q 226 493 226 611 q 310 250 226 363 q 416 155 374 176 q 539 109 464 126 q 573 103 539 105 l 575 100 l 575 49 l 681 49 l 681 105 q 699 111 681 110 l 699 109 q 823 157 754 122 q 1017 509 1017 290 q 891 794 1017 667 q 763 871 827 848 l 681 891 l 681 955 l 575 955 m 588 942 l 668 942 l 672 937 l 672 65 l 668 60 l 588 60 l 584 65 l 584 937 l 588 942 "},"С":{"x_min":144.46875,"x_max":780.640625,"ha":906,"o":"m 144 4 l 144 1015 l 780 1015 l 780 866 l 307 866 l 307 150 l 780 150 l 780 4 l 144 4 "},"ß":{"x_min":105,"x_max":806,"ha":946,"o":"m 105 0 l 105 677 q 126 846 105 785 q 235 973 156 930 q 394 1011 306 1011 q 563 963 492 1011 q 646 816 646 909 q 590 654 646 751 q 543 540 543 570 q 639 431 543 494 q 762 334 732 371 q 806 211 806 282 q 732 45 806 110 q 558 -17 660 -17 q 411 26 476 -17 q 312 146 345 70 l 417 195 q 556 84 477 84 q 643 118 606 84 q 681 201 681 152 q 659 266 681 239 q 583 326 645 283 q 476 406 503 381 q 418 521 418 463 q 471 661 418 570 q 527 803 527 758 q 482 883 527 853 q 392 910 443 910 q 255 836 292 910 q 228 671 228 783 l 228 0 l 105 0 "},"s":{"x_min":108.515625,"x_max":529.6875,"ha":630,"o":"m 111 -202 l 142 -103 q 260 -35 197 -42 q 398 -24 364 -42 q 438 40 438 -2 q 411 88 438 71 q 320 118 394 99 q 215 148 239 139 q 128 211 151 172 q 108 282 108 243 q 168 396 108 352 q 301 433 219 433 q 479 367 430 433 q 507 322 501 337 l 435 291 q 307 360 411 360 q 194 292 194 360 q 240 237 194 255 q 318 215 252 232 q 421 185 405 191 q 508 126 484 162 q 529 50 529 95 q 429 -92 529 -50 q 318 -115 380 -115 q 111 -202 190 -103 "},"B":{"x_min":136.328125,"x_max":1300.15625,"ha":1413,"o":"m 589 293 q 544 398 589 360 q 442 432 503 432 q 347 399 390 432 q 295 293 295 360 q 333 196 295 234 q 442 153 373 153 q 548 190 507 153 q 589 293 589 227 m 136 293 q 227 496 136 410 q 442 583 318 583 q 657 496 566 583 q 748 293 748 410 q 657 88 748 175 q 442 2 566 2 q 227 88 318 2 q 136 293 136 175 m 589 693 q 562 781 589 744 q 442 832 523 832 q 341 795 383 832 q 295 693 295 755 q 442 554 295 554 q 589 693 589 554 m 136 693 q 227 897 136 811 q 442 984 318 984 q 657 897 566 984 q 748 693 748 811 q 657 489 748 576 q 442 402 566 402 q 227 489 318 402 q 136 693 136 576 m 1140 497 q 1113 585 1140 548 q 993 636 1074 636 q 892 599 935 636 q 846 497 846 560 q 993 358 846 358 q 1140 497 1140 358 m 687 497 q 778 701 687 615 q 993 788 870 788 q 1208 701 1117 788 q 1300 497 1300 615 q 1208 293 1300 380 q 993 206 1117 206 q 778 293 870 206 q 687 497 687 380 "},"В":{"x_min":138.265625,"x_max":765.71875,"ha":878,"o":"m 761 923 l 761 6 q 651 2 704 2 q 148 298 161 2 q 269 522 143 423 q 511 623 378 607 l 605 636 l 605 792 q 544 794 573 794 q 275 643 284 794 q 288 592 273 615 q 313 573 301 573 q 318 575 316 573 l 199 483 q 138 641 140 548 q 255 841 134 758 q 531 921 371 918 q 761 923 527 927 m 604 131 l 604 307 q 565 306 585 306 q 329 379 448 306 q 327 383 327 381 q 364 429 327 398 q 430 467 402 461 q 550 442 476 442 q 604 446 576 442 l 604 495 q 287 314 287 504 q 400 155 287 196 q 604 131 467 130 m 678 1121 q 739 1096 714 1121 q 765 1035 765 1070 q 739 974 765 1000 q 678 949 714 949 q 616 974 642 949 q 590 1035 590 1000 q 616 1096 590 1070 q 678 1121 642 1121 "},"?":{"x_min":130.890625,"x_max":772.5,"ha":882,"o":"m 389 248 q 389 285 389 273 q 409 409 389 356 q 457 489 425 449 q 548 575 475 510 q 628 662 609 629 q 647 735 647 696 q 589 863 647 811 q 455 914 531 914 q 256 713 288 914 l 130 728 q 230 941 147 866 q 453 1015 314 1015 q 673 946 583 1015 q 772 744 772 870 q 727 601 772 667 q 622 490 696 556 q 559 430 575 448 q 517 354 528 394 q 507 248 508 322 l 389 248 m 382 4 l 382 143 l 521 143 l 521 4 l 382 4 "},"H":{"x_min":131.578125,"x_max":809.796875,"ha":946,"o":"m 131 -2 l 131 989 l 267 989 l 267 583 l 674 583 l 674 988 l 809 989 l 809 -2 l 674 -2 l 674 472 l 267 472 l 267 -2 l 131 -2 "},"ν":{"x_min":135.078125,"x_max":957.078125,"ha":1087,"o":"m 135 202 l 957 202 l 957 -132 l 775 -133 l 775 34 l 315 34 l 314 -133 l 135 -133 l 135 202 "},"c":{"x_min":139.71875,"x_max":772.5,"ha":906,"o":"m 456 854 q 321 910 377 854 q 265 1045 265 966 q 321 1180 265 1124 q 456 1236 377 1236 q 591 1180 535 1236 q 647 1045 647 1124 q 592 910 647 966 q 456 854 536 854 m 455 946 q 527 976 497 946 q 556 1047 556 1005 q 527 1119 556 1089 q 455 1148 497 1148 q 384 1119 413 1148 q 354 1047 354 1089 q 384 976 354 1005 q 455 946 413 946 m 772 430 l 772 859 l 139 859 l 139 430 l 254 429 l 255 736 l 400 736 l 400 0 l 518 0 l 520 736 l 657 736 l 657 430 l 772 430 "},"¶":{"x_min":62.390625,"x_max":812.515625,"ha":918,"o":"m 336 -276 l 336 432 q 139 511 213 439 q 62 708 62 585 q 153 925 62 849 q 383 994 238 994 l 812 994 l 812 876 l 714 876 l 714 -276 l 599 -276 l 599 876 l 448 876 l 448 -276 l 336 -276 "},"β":{"x_min":96,"x_max":737,"ha":888,"o":"m 217 91 l 217 -276 l 96 -276 l 96 682 q 121 848 96 787 q 232 968 152 922 q 400 1011 308 1011 q 594 945 515 1011 q 677 761 677 875 q 625 619 677 678 q 490 546 573 560 q 670 464 604 535 q 737 281 737 394 q 654 67 737 151 q 442 -16 572 -16 q 217 91 295 -16 m 325 586 q 564 754 564 586 q 513 868 564 823 q 394 910 464 910 q 293 882 340 910 q 227 803 240 851 q 217 660 217 762 l 217 388 q 227 240 217 284 q 303 118 244 166 q 426 74 356 74 q 562 132 511 74 q 610 275 610 189 q 577 395 610 339 q 484 477 542 455 q 342 497 431 497 l 325 497 l 325 586 "},"Μ":{"x_min":124.40625,"x_max":862.984375,"ha":1021,"o":"m 606 1205 l 607 1204 l 609 1204 l 619 1205 q 725 1161 671 1203 q 802 1078 756 1139 q 844 982 821 1047 q 859 889 856 925 l 858 888 l 861 857 l 860 857 l 861 856 l 861 855 l 862 769 l 861 741 l 860 739 l 861 737 l 860 726 q 852 656 855 655 l 854 654 l 854 653 l 847 613 q 860 399 863 476 l 859 399 l 860 397 l 860 385 l 859 384 l 860 383 l 858 347 l 857 325 q 814 170 837 226 q 729 54 788 108 l 691 29 q 656 15 686 29 q 605 6 621 5 l 583 6 q 474 52 534 8 q 401 155 420 99 q 373 300 370 229 l 374 302 l 374 303 l 373 305 q 408 408 384 368 q 462 461 433 446 q 492 471 485 471 q 551 452 533 465 q 603 381 599 404 q 625 294 626 330 l 624 287 l 626 282 l 624 280 l 626 273 q 599 164 624 229 q 562 112 582 130 l 559 112 q 515 153 532 129 q 505 164 511 153 l 505 166 q 533 218 518 175 l 542 267 l 542 306 q 529 355 534 343 q 505 381 529 362 q 470 353 475 382 l 465 345 l 466 343 l 466 342 q 456 303 459 323 q 500 140 453 204 q 570 93 536 102 l 605 86 l 609 86 q 711 151 666 84 l 734 195 q 768 349 766 284 l 770 387 l 772 408 l 770 452 l 772 454 l 772 455 q 754 604 767 556 l 750 613 q 771 754 769 697 l 770 755 l 770 756 l 773 771 l 772 773 l 772 778 l 774 790 q 754 942 770 881 l 730 1019 q 643 1113 704 1079 l 642 1112 l 641 1112 l 620 1118 l 616 1117 l 615 1118 l 613 1118 l 577 1108 q 545 1154 565 1134 l 521 1175 l 520 1177 l 520 1178 q 559 1199 521 1188 q 606 1205 565 1203 m 390 1207 l 390 1205 l 391 1207 l 394 1207 l 396 1205 l 397 1207 l 399 1207 l 400 1205 l 401 1207 l 403 1207 q 479 1184 479 1193 q 554 1114 513 1173 q 600 1031 578 1089 q 618 947 613 986 l 616 947 l 617 945 l 616 922 l 618 916 l 616 912 l 618 906 l 614 891 l 616 889 q 577 785 614 842 q 499 739 541 737 l 496 739 q 421 782 456 740 q 374 889 389 812 q 370 939 369 918 q 403 1065 373 1011 q 425 1096 404 1076 l 428 1096 q 485 1047 454 1085 l 485 1045 l 483 1044 l 485 1042 l 485 1039 q 468 1014 473 1031 q 451 954 458 996 l 453 950 l 451 941 l 451 932 q 463 858 450 899 q 495 825 473 836 l 498 825 q 535 909 525 824 l 536 918 q 502 1046 538 984 q 427 1115 477 1091 q 386 1122 412 1121 l 381 1122 l 371 1121 l 371 1123 q 338 1109 350 1118 q 284 1066 321 1107 q 242 984 262 1038 q 211 835 213 911 l 212 821 l 210 815 l 213 753 l 211 753 q 218 699 215 739 l 234 606 q 210 446 214 557 l 210 431 l 211 423 l 209 416 l 211 410 l 209 408 l 209 407 q 238 233 215 315 q 287 136 253 191 q 391 86 331 88 q 416 94 407 88 q 434 67 424 88 l 468 30 l 468 27 q 386 6 460 9 q 300 30 326 14 l 251 67 q 199 128 213 100 q 144 271 171 168 q 128 404 127 369 l 129 404 l 128 406 l 129 421 l 128 437 l 130 456 l 130 459 q 140 560 135 560 l 138 561 l 138 562 l 144 596 q 125 792 128 684 l 124 821 q 177 1054 129 964 q 248 1151 196 1097 q 346 1201 302 1198 l 390 1207 "},"−":{"x_min":116.65625,"x_max":773.171875,"ha":884,"o":"m 773 433 l 116 433 l 116 547 l 773 547 l 773 433 "},"•":{"x_min":135.640625,"x_max":479.5,"ha":590,"o":"m 135 489 q 185 610 135 560 q 307 660 236 660 q 429 610 379 660 q 479 489 479 560 q 429 366 479 417 q 307 316 379 316 q 185 367 236 316 q 135 489 135 417 "},"н":{"x_min":139.03125,"x_max":848.453125,"ha":964,"o":"m 139 56 l 295 330 l 407 287 l 252 -5 l 139 56 m 343 462 l 450 436 q 463 535 463 507 q 288 730 463 730 q 176 672 215 730 q 147 574 146 628 q 192 415 148 465 q 408 310 246 355 q 549 286 458 297 q 652 264 622 279 q 721 180 697 241 q 727 150 727 164 q 695 114 727 113 q 650 142 670 115 q 630 206 630 168 q 640 258 630 231 l 523 281 q 507 195 507 235 q 560 55 507 115 q 695 -5 616 -6 q 835 132 835 -4 q 833 157 835 146 q 788 290 815 249 q 512 417 708 413 q 369 430 409 421 q 310 460 345 436 q 268 522 284 477 q 256 574 255 558 q 268 601 257 587 q 303 617 283 619 q 346 585 334 612 q 357 538 347 583 q 358 528 358 534 q 349 486 358 513 q 343 462 342 463 m 579 440 l 701 395 l 848 672 l 729 727 l 579 440 "},"(":{"x_min":135.640625,"x_max":463.90625,"ha":616,"o":"m 376 -305 q 135 476 135 59 q 376 1258 135 872 l 463 1258 q 355 1016 382 1089 q 261 476 261 759 q 463 -305 261 84 l 376 -305 "},"U":{"x_min":147.171875,"x_max":1052.609375,"ha":1224,"o":"m 181 1041 l 324 1024 q 301 840 301 910 q 305 787 301 811 q 339 676 313 729 q 414 600 372 611 l 275 541 q 153 762 176 615 q 147 855 147 809 q 181 1041 147 946 m 573 666 q 662 607 582 623 q 691 663 676 635 q 710 748 710 706 q 557 935 710 935 q 450 874 501 935 q 398 737 397 811 q 427 631 400 673 q 465 588 446 609 q 289 524 348 559 q 153 328 169 455 q 147 229 147 277 q 195 -13 147 88 l 362 18 q 312 231 312 130 q 314 276 312 253 q 356 413 324 372 q 475 465 392 455 q 489 465 482 465 q 609 305 593 465 q 598 257 612 280 q 575 237 585 239 q 533 256 548 233 q 520 303 519 276 q 537 364 521 341 q 560 393 549 379 q 527 436 553 411 q 472 451 525 437 q 426 407 449 429 q 398 292 393 364 q 469 160 404 204 q 575 128 516 128 q 673 166 632 128 q 721 308 726 214 q 688 425 718 378 q 645 477 666 451 q 672 476 659 476 q 952 807 922 476 q 953 839 953 822 q 933 992 953 909 q 907 1068 916 1068 l 768 1038 q 801 817 803 899 q 774 670 798 729 q 660 591 737 585 q 520 762 520 602 q 537 807 520 798 q 557 811 547 809 q 579 805 568 808 q 594 764 593 795 q 587 706 595 733 q 573 666 579 686 m 727 455 q 771 426 752 447 q 824 269 817 375 q 825 246 825 258 q 781 34 825 166 l 931 2 q 978 276 978 132 q 866 518 978 421 q 803 474 826 483 q 727 455 773 467 m 955 817 l 1052 817 l 1052 923 l 955 923 l 955 817 m 713 818 l 810 818 l 810 923 l 713 923 l 713 818 "},"◊":{"x_min":127.5,"x_max":751.46875,"ha":817,"o":"m 467 964 l 751 480 l 467 0 l 392 0 l 127 480 l 392 964 l 467 964 m 431 898 l 200 480 l 431 63 l 674 480 l 431 898 "},"F":{"x_min":137.671875,"x_max":1187.5625,"ha":1333,"o":"m 594 1081 l 749 1081 l 752 1078 l 752 632 l 1184 632 l 1187 628 l 1187 479 l 1184 476 l 752 476 l 752 309 q 707 145 752 242 l 679 103 q 594 28 648 59 q 487 -4 559 4 l 435 -7 q 227 142 298 -7 l 225 158 l 225 163 q 233 178 228 178 q 328 103 305 103 q 394 90 351 90 l 430 90 q 565 189 533 127 q 590 270 590 252 l 590 476 l 141 476 l 137 479 l 137 628 l 141 632 l 592 632 l 592 1078 l 594 1081 "},"м":{"x_min":150.359375,"x_max":1040.390625,"ha":1174,"o":"m 225 -2 q 206 37 225 -6 q 171 142 185 88 q 150 294 152 219 q 225 574 146 446 q 478 725 319 727 q 662 651 586 724 q 752 507 720 595 q 775 408 777 441 q 736 261 771 319 q 600 183 690 183 q 461 255 511 183 q 415 406 418 316 q 438 516 414 474 q 494 576 454 544 q 557 552 547 562 q 596 514 573 539 q 526 404 526 461 q 541 333 526 366 q 592 291 558 291 q 665 409 658 291 q 624 524 668 465 q 481 598 569 598 q 336 480 394 598 q 290 300 288 384 q 330 120 291 213 q 366 46 360 46 l 225 -2 m 636 692 q 667 666 636 693 q 693 644 680 655 q 731 590 708 623 q 746 599 738 595 q 771 601 756 604 q 847 552 813 592 q 909 353 906 484 q 857 160 910 282 q 803 51 810 51 l 929 -9 q 996 129 984 97 q 1040 364 1040 243 q 972 611 1040 510 q 787 722 902 716 q 636 692 677 728 "},"­":{"x_min":116.65625,"x_max":773.171875,"ha":884,"o":"m 773 433 l 116 433 l 116 547 l 773 547 l 773 433 "},"з":{"x_min":110.546875,"x_max":678.921875,"ha":787,"o":"m 115 672 q 182 703 149 691 q 345 736 263 734 q 562 673 462 739 q 678 458 680 593 q 567 256 677 329 q 434 207 487 204 q 260 355 260 217 q 315 474 260 431 q 432 512 362 510 q 564 445 513 514 q 545 392 553 400 q 516 358 535 379 q 431 417 474 417 q 389 404 408 417 q 365 356 365 387 q 434 300 365 305 q 523 335 477 297 q 580 456 580 381 q 489 576 580 529 q 350 612 416 613 q 211 581 282 611 q 154 554 154 558 l 115 672 m 653 325 q 633 299 653 324 q 616 276 625 287 q 574 244 600 265 q 577 217 580 230 q 391 100 554 103 q 242 141 336 99 q 158 184 158 178 l 110 77 q 218 20 193 30 q 400 -16 306 -16 q 590 40 512 -16 q 676 197 672 101 q 653 325 680 290 "},":":{"x_min":141.75,"x_max":333,"ha":473,"o":"m 235 774 q 280 762 258 774 q 315 727 303 750 q 328 680 328 705 q 316 634 328 657 q 281 600 303 612 q 235 588 259 588 q 188 600 210 588 q 153 634 166 612 q 141 680 141 657 q 154 727 141 705 q 189 762 166 750 q 235 774 211 774 m 240 189 q 285 177 263 189 q 320 143 307 165 q 333 96 333 120 q 320 50 333 72 q 286 15 308 27 q 240 3 263 3 q 193 15 215 3 q 158 50 170 27 q 146 96 146 72 q 159 143 146 120 q 193 177 171 165 q 240 189 216 189 "},"і":{"x_min":119.671875,"x_max":285.171875,"ha":399,"o":"m 138 2 l 138 722 l 260 722 l 260 2 l 138 2 m 119 896 q 143 955 119 931 q 202 979 167 979 q 261 955 237 979 q 285 896 285 931 q 261 837 285 862 q 202 813 237 813 q 143 838 167 813 q 119 896 119 862 "},"Χ":{"x_min":141.546875,"x_max":1864.90625,"ha":2012,"o":"m 1154 289 q 1109 394 1154 356 q 1007 428 1069 428 q 912 395 956 428 q 860 289 860 356 q 898 192 860 231 q 1007 150 939 150 q 1114 187 1073 150 q 1154 289 1154 224 m 701 289 q 792 493 701 406 q 1007 579 884 579 q 1222 493 1131 579 q 1313 289 1313 406 q 1222 85 1313 172 q 1007 -1 1131 -1 q 792 85 884 -1 q 701 289 701 172 m 1154 690 q 1127 777 1154 740 q 1007 829 1089 829 q 906 792 949 829 q 860 690 860 752 q 1007 551 860 551 q 1154 690 1154 551 m 701 690 q 792 894 701 807 q 1007 980 884 980 q 1222 894 1131 980 q 1313 690 1313 807 q 1222 486 1313 573 q 1007 399 1131 399 q 792 486 884 399 q 701 690 701 573 m 1706 494 q 1679 581 1706 545 q 1559 633 1640 633 q 1457 596 1500 633 q 1411 494 1411 556 q 1559 355 1411 355 q 1706 494 1706 355 m 1253 494 q 1344 698 1253 611 q 1559 785 1435 785 q 1774 698 1683 785 q 1864 494 1864 611 q 1774 290 1864 376 q 1559 203 1683 203 q 1344 290 1435 203 q 1253 494 1253 376 m 594 492 q 567 580 594 543 q 447 632 528 632 q 346 595 389 632 q 300 492 300 555 q 447 353 300 353 q 594 492 594 353 m 141 492 q 232 697 141 610 q 447 783 323 783 q 662 697 571 783 q 753 492 753 610 q 662 289 753 375 q 447 202 571 202 q 232 289 323 202 q 141 492 141 375 "},"*":{"x_min":117.328125,"x_max":368.28125,"ha":471,"o":"m 117 464 q 153 552 117 516 q 242 589 190 589 q 331 553 295 589 q 368 464 368 516 q 331 375 368 412 q 242 339 295 339 q 153 375 190 339 q 117 464 117 412 "},"†":{"x_min":86.8125,"x_max":752.15625,"ha":876,"o":"m 357 -236 l 357 585 l 86 585 l 86 693 l 357 693 l 357 969 l 479 969 l 479 693 l 752 693 l 752 585 l 479 585 l 479 -236 l 357 -236 "},"°":{"x_min":128.1875,"x_max":504.59375,"ha":606,"o":"m 128 807 q 183 940 128 885 q 316 995 238 995 q 449 941 394 995 q 504 807 504 886 q 449 674 504 729 q 316 619 394 619 q 182 674 237 619 q 128 807 128 729 m 202 807 q 235 726 202 760 q 316 693 269 693 q 397 726 364 693 q 430 807 430 760 q 397 888 430 855 q 316 922 364 922 q 235 888 269 922 q 202 807 202 855 "},"V":{"x_min":67.828125,"x_max":1028.1875,"ha":1085,"o":"m 473 0 l 67 999 l 239 999 l 481 379 q 545 218 514 297 q 600 356 583 297 l 853 999 l 1028 999 l 615 0 l 473 0 "},"Ξ":{"x_min":75,"x_max":829.859375,"ha":945,"o":"m 93 994 l 811 994 l 811 877 l 93 877 l 93 994 m 157 555 l 747 555 l 747 439 l 157 439 l 157 555 m 75 117 l 829 117 l 829 0 l 75 0 l 75 117 "},"У":{"x_min":143.109375,"x_max":1093.96875,"ha":1218,"o":"m 156 935 l 325 1011 l 655 168 l 924 1022 l 1093 991 l 768 -3 l 143 -3 l 143 155 l 478 155 l 156 935 "},"0":{"x_min":127.5,"x_max":775.890625,"ha":882,"o":"m 127 494 q 271 944 127 826 q 451 1002 343 1002 q 691 877 610 1002 q 775 494 775 747 q 632 46 775 163 q 451 -12 560 -12 q 127 494 127 -12 m 252 494 q 279 241 252 330 q 451 87 325 87 q 650 494 650 87 q 623 748 650 659 q 450 901 577 901 q 316 830 365 901 q 252 494 252 739 "},"”":{"x_min":49,"x_max":401,"ha":532,"o":"m 60 862 l 60 1004 l 191 1004 l 191 892 q 169 761 191 801 q 78 679 140 706 l 49 726 q 123 862 119 755 l 60 862 m 270 862 l 270 1004 l 401 1004 l 401 892 q 379 761 401 801 q 289 679 350 706 l 259 726 q 333 862 329 755 l 270 862 "},"@":{"x_min":128.859375,"x_max":853.875,"ha":976,"o":"m 217 982 l 221 982 q 669 427 486 667 q 717 276 704 377 l 717 250 q 676 120 717 185 q 612 59 661 92 q 513 27 574 27 q 425 54 425 41 q 326 144 370 73 q 289 274 289 214 l 289 293 q 322 438 289 361 q 401 535 342 484 l 416 539 l 419 539 q 436 509 426 539 l 436 386 q 416 289 416 316 q 438 195 416 265 l 438 89 l 577 89 l 577 188 l 590 225 l 594 263 q 557 377 594 300 q 421 546 522 430 q 164 860 376 606 q 128 906 137 887 l 128 913 q 217 982 146 923 m 438 979 l 552 979 l 557 975 l 557 608 l 552 608 q 445 746 552 613 l 434 764 l 434 975 l 438 979 m 614 614 l 651 614 q 766 577 720 601 q 851 509 812 554 l 853 507 l 853 493 q 847 480 853 482 l 838 480 l 803 500 q 750 513 763 513 l 699 513 q 644 496 682 513 q 614 535 639 496 q 561 606 561 590 q 614 614 586 614 m 451 496 l 456 496 l 564 344 l 564 103 l 559 98 l 456 98 l 451 103 l 451 496 m 517 6 q 579 -28 561 -4 q 598 -83 598 -69 q 559 -151 577 -151 q 509 -169 559 -161 q 427 -118 452 -169 q 419 -81 419 -96 l 419 -77 q 484 2 419 -23 l 517 6 "},"i":{"x_min":137.671875,"x_max":303.171875,"ha":421,"o":"m 156 2 l 156 722 l 278 722 l 278 2 l 156 2 m 137 896 q 161 955 137 931 q 220 979 185 979 q 279 955 255 979 q 303 896 303 931 q 279 837 303 862 q 220 813 255 813 q 161 838 185 813 q 137 896 137 862 "},"Β":{"x_min":146.328125,"x_max":1310.15625,"ha":1441,"o":"m 599 297 q 554 402 599 364 q 452 436 513 436 q 357 403 400 436 q 305 297 305 364 q 343 200 305 238 q 452 157 383 157 q 558 194 517 157 q 599 297 599 231 m 146 297 q 237 500 146 414 q 452 587 328 587 q 667 500 576 587 q 758 297 758 414 q 667 92 758 179 q 452 6 576 6 q 237 92 328 6 q 146 297 146 179 m 599 697 q 572 785 599 748 q 452 836 533 836 q 351 799 393 836 q 305 697 305 759 q 452 558 305 558 q 599 697 599 558 m 146 697 q 237 901 146 815 q 452 988 328 988 q 667 901 576 988 q 758 697 758 815 q 667 493 758 580 q 452 406 576 406 q 237 493 328 406 q 146 697 146 580 m 1150 501 q 1123 589 1150 552 q 1003 640 1084 640 q 902 603 945 640 q 856 501 856 564 q 1003 362 856 362 q 1150 501 1150 362 m 697 501 q 788 705 697 619 q 1003 792 880 792 q 1218 705 1127 792 q 1310 501 1310 619 q 1218 297 1310 384 q 1003 210 1127 210 q 788 297 880 210 q 697 501 697 384 "},"≤":{"x_min":117.328125,"x_max":775.890625,"ha":878,"o":"m 117 516 l 117 630 l 775 908 l 775 786 l 253 573 l 775 356 l 775 235 l 117 516 m 774 71 l 118 71 l 118 185 l 774 185 l 774 71 "},"ё":{"x_min":136.328125,"x_max":630.0625,"ha":741,"o":"m 231 948 q 283 927 262 948 q 305 876 305 906 q 283 824 305 845 q 231 803 262 803 q 180 824 201 803 q 158 876 158 845 q 180 927 158 906 q 231 948 201 948 m 530 948 q 582 927 560 948 q 604 876 604 906 q 582 824 604 845 q 530 803 560 803 q 478 824 500 803 q 457 876 457 845 q 478 927 457 906 q 530 948 500 948 m 629 733 l 137 733 l 136 -2 l 628 -2 l 628 118 l 274 118 l 274 304 l 628 304 l 628 427 l 274 427 l 274 616 l 630 617 l 629 733 "},"№":{"x_min":141.75,"x_max":3410.78125,"ha":1398,"o":"m 141 114 l 394 558 l 577 489 l 326 15 l 141 114 m 474 774 q 484 812 472 775 q 497 880 497 855 q 495 897 497 891 q 478 972 478 970 q 407 1024 458 1017 q 352 999 375 1028 q 331 954 333 976 q 352 870 330 929 q 420 770 378 798 q 515 721 477 732 q 746 701 580 706 q 1195 495 1064 693 q 1268 278 1239 427 q 1271 238 1271 261 q 1044 15 1271 16 l 1041 15 q 826 113 914 15 q 739 341 739 210 q 764 479 739 404 l 955 442 q 938 359 938 399 q 971 254 938 297 q 1044 210 1004 211 q 1096 267 1096 207 q 1086 316 1096 290 q 973 452 1046 415 q 807 488 925 476 q 578 527 659 505 q 228 697 315 599 q 155 954 156 777 q 202 1114 154 1043 q 385 1208 265 1208 q 668 892 668 1208 q 646 732 668 847 l 474 774 m 1100 1202 l 1334 1201 l 1055 664 l 856 737 l 1100 1202 m 1203 1381 l 3410 1381 l 3410 1204 l 1102 1204 l 1203 1381 "},"υ":{"x_min":131.578125,"x_max":708.0625,"ha":829,"o":"m 131 720 l 253 720 l 253 293 q 290 149 253 204 q 419 84 334 84 q 511 112 468 84 q 571 187 553 141 q 586 303 586 227 l 586 720 l 708 720 l 708 298 q 636 69 708 151 q 417 -16 561 -16 q 264 20 333 -16 q 158 132 189 60 q 131 293 131 191 l 131 720 "},"þ":{"x_min":133.609375,"x_max":758.9375,"ha":884,"o":"m 133 -278 l 133 992 l 255 992 l 255 642 q 342 711 304 693 q 453 734 392 734 q 722 553 647 734 q 758 363 758 466 q 604 29 758 125 q 445 -18 528 -18 q 341 4 388 -18 q 255 72 305 21 l 255 -278 l 133 -278 m 244 354 q 284 172 244 244 q 436 82 335 82 q 592 176 540 82 q 634 364 634 251 q 592 546 634 472 q 442 638 541 638 q 288 541 341 638 q 244 354 244 461 "},"]":{"x_min":134.96875,"x_max":1236.40625,"ha":1350,"o":"m 1214 646 q 1171 735 1189 703 q 1149 773 1161 758 q 860 619 996 701 q 479 419 624 501 q 354 370 387 370 q 288 391 326 370 q 257 447 257 416 q 289 507 265 484 q 378 524 314 531 q 512 463 435 507 l 647 538 q 457 634 543 607 q 320 652 389 663 q 191 592 236 642 q 134 442 134 537 q 198 309 141 364 q 370 236 277 236 q 558 295 446 236 q 1214 646 1009 543 m 826 420 l 682 342 q 895 228 638 347 q 1174 90 1020 162 q 1236 219 1204 157 q 826 420 992 339 m 778 944 q 805 1010 778 983 q 872 1038 832 1038 q 939 1010 912 1038 q 967 944 967 983 q 939 877 967 904 q 872 849 912 849 q 805 877 832 849 q 778 944 778 905 m 807 612 l 806 815 l 940 814 l 939 689 l 807 612 m 939 185 l 940 1 l 806 2 l 807 246 l 939 185 m 840 424 l 836 436 l 942 479 l 942 386 l 840 424 "},"А":{"x_min":134.96875,"x_max":828.109375,"ha":952,"o":"m 134 1 l 134 588 q 206 884 134 767 q 489 1026 299 1032 q 758 900 670 1020 q 828 653 828 803 q 729 397 828 505 q 492 281 631 289 q 372 318 423 278 q 333 362 335 346 l 333 549 q 368 491 354 506 q 477 452 408 451 q 660 646 637 453 q 663 685 663 666 q 625 812 663 764 q 487 871 579 871 q 347 783 393 871 q 311 611 311 714 q 312 585 311 598 q 308 1 311 376 l 134 1 m 655 1 l 655 307 l 653 307 l 653 307 q 720 362 691 333 q 817 501 793 430 l 817 1 l 655 1 "},"m":{"x_min":107.15625,"x_max":710.125,"ha":809,"o":"m 492 1245 l 493 1245 l 494 1245 l 502 1245 q 590 1211 545 1245 q 653 1146 614 1195 q 687 1068 668 1120 q 701 993 698 1022 l 700 992 l 703 967 l 702 967 l 703 966 l 703 965 l 706 896 l 705 873 l 704 872 l 705 870 l 705 861 q 699 804 701 804 l 700 803 l 700 802 l 695 769 q 710 596 710 659 l 708 596 l 710 595 l 709 585 l 708 584 l 709 583 l 708 554 l 707 537 q 674 410 693 456 q 608 315 655 360 l 577 295 q 549 282 573 295 q 507 274 521 274 l 490 274 q 401 309 451 275 q 340 392 357 347 q 316 510 314 452 l 317 510 l 317 512 l 316 513 q 343 598 324 564 q 385 641 362 629 q 410 649 404 649 q 458 635 443 644 q 501 579 498 597 q 520 508 520 537 l 520 502 l 521 497 l 520 497 l 520 491 q 501 402 520 455 q 472 360 488 375 l 470 360 q 432 392 447 373 q 425 401 430 392 l 425 402 q 446 445 435 410 l 453 484 l 452 516 q 441 556 446 546 q 422 577 441 562 q 394 554 398 577 l 389 547 l 391 545 l 391 544 q 383 513 385 529 q 421 381 382 433 q 478 344 451 351 l 506 339 l 510 339 q 592 394 556 338 l 609 430 q 635 554 634 502 l 636 585 l 637 602 l 636 638 l 636 639 l 636 640 q 620 761 631 722 l 617 768 q 632 883 631 836 l 630 883 l 630 885 l 633 896 l 632 897 l 632 902 l 633 912 q 615 1034 629 986 l 594 1097 q 523 1171 573 1145 l 522 1170 l 521 1170 l 505 1176 l 501 1174 l 500 1176 l 499 1176 l 470 1167 q 443 1203 460 1188 l 423 1220 l 423 1221 l 423 1222 q 453 1239 423 1230 q 492 1245 459 1243 m 317 1244 l 316 1243 l 318 1244 l 320 1244 l 321 1243 l 322 1244 l 324 1244 l 325 1243 l 326 1244 l 327 1244 q 389 1226 389 1234 q 451 1171 416 1218 q 489 1104 471 1152 q 505 1037 501 1068 l 503 1037 l 505 1035 l 504 1016 l 505 1012 l 504 1008 l 505 1003 l 503 991 l 503 990 q 474 905 503 952 q 412 866 446 866 l 409 866 q 348 900 377 867 q 309 986 322 924 q 305 1027 304 1009 q 330 1129 305 1085 q 347 1155 330 1138 l 349 1155 q 396 1115 370 1146 l 396 1114 l 395 1113 l 396 1112 l 396 1110 q 383 1089 386 1102 q 370 1040 375 1074 l 371 1037 l 370 1029 l 370 1022 q 381 963 370 996 q 407 936 389 944 l 409 936 q 438 1005 432 936 l 439 1012 q 410 1115 440 1065 q 348 1170 388 1152 q 314 1175 336 1175 l 311 1175 l 303 1174 l 303 1176 q 276 1164 286 1171 q 233 1129 263 1162 q 200 1062 215 1106 q 177 940 178 1001 l 178 929 l 177 924 l 179 874 l 178 874 q 185 830 181 862 l 200 756 q 182 625 183 715 l 182 613 l 183 607 l 181 600 l 183 596 l 181 594 l 181 594 q 207 453 187 520 q 249 375 221 419 q 333 336 285 337 q 354 343 347 338 q 368 322 360 338 l 397 292 l 397 290 q 330 271 390 275 q 260 290 282 277 l 220 318 q 177 367 189 345 q 130 482 154 399 q 116 590 115 562 l 117 590 l 116 591 l 116 604 l 115 617 l 117 632 l 117 634 q 123 716 120 716 l 122 717 l 122 718 l 126 745 q 107 904 111 817 l 107 927 q 146 1117 109 1043 q 202 1197 162 1152 q 282 1239 246 1235 l 317 1244 m 358 17 l 407 -42 q 333 -138 402 -42 q 261 -240 267 -227 q 189 -194 223 -217 q 276 -87 233 -141 q 358 17 359 16 m 423 90 l 467 35 q 539 175 539 124 q 481 257 539 226 q 417 271 455 271 q 331 238 356 271 q 304 154 304 202 q 341 53 304 101 q 494 -133 387 -6 q 583 -240 539 -186 q 613 -219 598 -229 q 649 -194 647 -195 q 393 107 491 -22 q 377 150 377 130 q 388 188 377 168 q 424 206 404 206 q 453 193 439 206 q 463 148 467 180 q 423 90 461 135 "},"Ы":{"x_min":139.03125,"x_max":978.671875,"ha":1114,"o":"m 897 1133 q 953 1112 930 1133 q 976 1061 976 1091 q 953 1010 976 1031 q 897 988 930 988 q 842 1010 865 988 q 819 1061 819 1031 q 842 1112 819 1091 q 897 1133 865 1133 m 683 1128 q 738 1107 716 1128 q 761 1056 761 1085 q 738 1004 761 1026 q 683 983 716 983 q 628 1004 651 983 q 604 1056 604 1026 q 628 1107 604 1085 q 683 1128 651 1128 m 695 942 q 790 942 697 942 q 885 942 883 942 l 885 493 q 693 611 805 581 q 695 942 696 775 m 626 1178 q 722 1163 687 1189 q 789 1073 757 1137 q 816 1125 792 1093 q 871 1172 843 1159 q 978 1190 925 1197 q 862 1210 935 1218 q 815 1181 841 1208 q 784 1140 792 1159 q 772 1178 778 1159 q 737 1221 765 1193 q 662 1256 710 1249 q 603 1257 653 1257 l 626 1178 m 177 1241 q 393 1014 303 1172 l 539 1014 l 539 897 l 444 897 q 498 602 492 765 q 292 440 352 542 q 299 660 299 566 q 282 900 299 806 l 139 900 l 139 1017 l 259 1017 q 177 1241 247 1108 m 606 597 q 829 503 733 597 q 921 299 921 411 q 834 88 921 176 q 606 -2 744 -2 q 373 86 459 -2 q 291 299 291 170 q 383 503 291 411 q 606 597 479 597 m 606 470 q 487 415 535 470 q 442 299 442 364 q 487 187 442 236 q 606 135 535 135 q 725 187 677 135 q 771 299 771 236 q 725 415 771 364 q 606 470 677 470 "},"Е":{"x_min":142.421875,"x_max":803.734375,"ha":945,"o":"m 330 369 q 341 445 330 423 q 372 490 356 472 q 445 472 423 472 q 480 503 485 472 q 442 529 476 529 q 433 528 438 529 q 359 499 376 515 q 313 375 324 468 q 312 358 312 366 q 389 236 312 288 q 560 151 425 211 q 715 48 640 115 q 803 -97 805 -33 q 743 -52 804 -90 q 527 40 655 1 q 279 153 356 92 q 158 374 184 231 q 153 421 153 398 q 284 623 153 548 q 444 675 379 677 q 566 616 508 673 q 623 496 623 559 q 569 384 623 432 q 450 339 515 337 q 330 369 363 341 m 153 505 q 209 603 165 558 q 265 638 223 617 q 319 664 292 651 q 318 685 318 677 q 501 889 318 762 q 655 1005 622 972 q 700 1062 678 1034 q 733 1123 728 1093 q 735 1159 735 1142 q 497 1022 694 1083 q 204 821 293 958 q 142 600 142 723 q 153 505 142 548 "},"8":{"x_min":143.109375,"x_max":750.796875,"ha":876,"o":"m 636 288 q 584 419 636 368 q 446 471 531 471 q 311 420 365 471 q 257 288 257 370 q 314 153 257 204 q 446 107 367 107 q 579 155 526 107 q 636 288 636 206 m 446 -3 q 232 82 321 -3 q 143 288 143 167 q 232 496 143 410 q 446 581 321 581 q 661 496 573 581 q 750 288 750 410 q 661 82 750 167 q 446 -3 573 -3 m 636 703 q 581 831 636 776 q 446 885 526 885 q 318 835 376 885 q 257 703 257 781 q 314 574 257 627 q 446 521 370 521 q 581 573 526 521 q 636 703 636 626 m 446 411 q 232 496 321 411 q 143 703 143 582 q 232 910 143 824 q 446 996 321 996 q 661 910 573 996 q 750 703 750 824 q 661 496 750 581 q 446 411 573 411 "},"Э":{"x_min":129.265625,"x_max":818.609375,"ha":945,"o":"m 628 614 q 609 558 626 584 q 573 517 592 533 q 519 528 560 522 q 479 523 496 529 q 463 506 462 518 q 504 482 467 477 q 587 499 576 493 q 643 614 627 523 q 646 638 646 626 q 393 886 646 769 q 223 1003 307 926 q 129 1158 124 1094 q 166 1106 128 1143 q 373 999 232 1045 q 582 926 548 941 q 727 826 678 885 q 803 633 784 756 q 805 602 805 617 q 669 417 805 485 q 485 371 564 364 q 368 406 420 377 q 295 510 300 446 q 356 619 289 577 q 497 651 418 657 q 628 614 592 644 m 808 537 q 746 446 791 482 q 625 381 722 425 q 626 349 626 348 q 442 148 626 249 q 260 54 345 94 q 202 14 229 40 q 139 -91 153 -29 q 189 -36 164 -53 q 379 35 250 6 q 818 438 818 134 q 808 537 818 484 "},"Ζ":{"x_min":139.71875,"x_max":925.78125,"ha":1082,"o":"m 517 732 q 685 665 616 732 q 753 502 753 598 q 684 340 753 407 q 517 273 615 273 q 351 340 420 273 q 282 502 282 407 q 351 665 282 598 q 517 732 419 732 m 520 669 q 399 620 448 669 q 349 501 349 571 q 399 383 349 432 q 520 334 448 334 q 640 383 590 334 q 691 501 691 432 q 641 620 691 571 q 520 669 591 669 m 139 4 l 139 126 l 649 763 q 752 881 703 830 l 197 881 l 197 998 l 909 998 l 909 881 l 290 121 l 925 121 l 925 4 l 139 4 "},"R":{"x_min":133.609375,"x_max":1083.125,"ha":1218,"o":"m 133 0 l 133 991 l 269 991 l 269 585 l 676 585 l 676 990 l 811 991 l 811 0 l 676 0 l 676 474 l 269 474 l 269 0 l 133 0 m 675 1098 l 133 1098 l 133 1220 l 675 1220 l 675 1098 m 825 0 l 825 991 l 995 991 l 995 0 l 825 0 m 714 1138 q 738 1197 714 1172 q 796 1221 763 1221 q 855 1197 831 1221 q 879 1138 879 1173 q 855 1080 879 1104 q 796 1056 831 1056 q 738 1080 763 1056 q 714 1138 714 1104 m 917 1138 q 941 1196 917 1172 q 1000 1220 965 1220 q 1059 1196 1034 1220 q 1083 1138 1083 1172 q 1059 1079 1083 1103 q 1000 1055 1034 1055 q 941 1079 965 1055 q 917 1138 917 1104 "},"ю":{"x_min":135.640625,"x_max":1069.5625,"ha":1184,"o":"m 686 693 l 622 774 q 715 910 634 800 q 767 990 742 942 q 794 1030 787 1026 q 817 1026 803 1034 q 859 996 827 1018 q 890 980 868 995 q 893 965 897 973 q 774 808 872 931 q 707 714 750 773 q 686 693 689 692 m 589 577 l 524 664 q 495 632 507 649 q 461 545 465 591 q 459 512 459 529 q 523 293 459 349 q 610 260 560 260 q 702 299 667 260 q 750 461 750 351 q 716 596 750 538 q 638 714 679 658 q 560 815 599 765 q 423 1036 455 959 q 417 1041 421 1041 q 376 1014 412 1041 q 337 984 341 987 q 327 968 328 976 q 497 723 326 955 q 567 636 531 679 q 634 534 611 579 q 650 432 650 503 q 638 373 650 386 q 611 363 630 364 q 579 373 592 362 q 556 448 563 387 q 554 528 550 501 q 589 577 556 544 m 513 680 q 499 658 505 674 q 489 638 493 642 q 448 579 474 615 q 398 586 423 592 q 323 554 347 575 q 257 370 266 503 q 287 168 251 299 q 326 51 320 51 l 214 2 q 135 343 135 174 q 137 387 135 364 q 222 617 144 531 q 421 704 300 704 q 498 691 474 704 q 513 680 516 682 m 670 673 q 715 638 688 661 q 756 579 731 615 q 807 586 781 592 q 881 554 857 575 q 948 370 938 503 q 916 168 953 299 q 878 51 885 51 l 990 2 q 1069 342 1069 174 q 1068 387 1069 364 q 982 617 1060 531 q 782 704 904 704 q 695 688 731 704 q 670 673 668 675 "},"á":{"x_min":137.671875,"x_max":732.484375,"ha":882,"o":"m 474 919 q 664 836 591 919 q 704 784 672 834 q 732 667 732 714 l 730 665 l 730 663 l 732 661 l 730 649 l 730 645 l 732 633 l 730 633 l 732 631 q 710 533 732 598 q 630 425 692 486 q 500 379 564 379 l 474 379 q 417 398 417 390 q 408 403 408 400 l 408 414 q 376 594 400 478 l 374 617 l 376 619 l 379 619 q 386 587 383 619 q 420 531 399 543 q 488 507 450 507 q 584 579 545 507 q 596 644 596 619 l 596 651 q 514 772 596 738 l 479 777 q 392 718 429 777 q 370 608 370 673 l 372 606 l 372 604 l 370 602 l 374 564 l 372 564 l 374 562 l 374 558 l 397 393 l 404 288 l 404 220 l 402 202 l 433 200 l 493 200 l 495 198 l 497 200 l 504 200 l 505 198 l 511 200 l 539 198 l 547 200 l 548 198 l 548 197 l 547 191 l 548 183 l 547 174 l 548 154 l 548 134 l 547 108 l 539 108 l 534 111 l 527 109 l 514 111 l 470 111 l 459 113 l 457 111 l 440 113 l 402 113 l 394 115 q 383 72 390 113 q 301 -101 368 0 q 237 -172 270 -147 l 231 -172 l 228 -168 q 278 -44 262 -101 q 296 94 296 50 l 296 115 l 260 115 l 249 117 l 248 115 l 217 117 l 185 117 l 174 118 l 172 117 l 164 118 l 151 118 l 144 113 l 143 113 q 137 128 137 114 l 137 200 l 141 204 l 177 204 l 219 202 l 221 204 l 229 202 l 274 202 l 292 204 l 292 217 q 274 359 286 305 q 235 581 235 556 l 233 608 l 233 649 q 260 775 240 725 q 308 848 282 814 q 329 866 311 848 q 445 916 394 910 q 474 919 463 916 "},"×":{"x_min":110,"x_max":701.40625,"ha":819,"o":"m 110 277 l 323 491 l 110 704 l 193 787 l 406 574 l 618 786 l 699 704 l 488 492 l 701 278 l 619 195 l 405 409 l 191 195 l 110 277 "},"o":{"x_min":135.640625,"x_max":632.109375,"ha":739,"o":"m 383 248 q 207 320 280 248 q 135 495 135 393 q 208 671 135 599 q 383 744 280 744 q 559 671 486 744 q 632 495 632 599 q 559 320 632 393 q 383 248 487 248 m 382 368 q 475 406 437 368 q 514 499 514 444 q 475 591 514 553 q 382 630 436 630 q 289 591 327 630 q 251 499 251 553 q 289 406 251 444 q 382 368 327 368 "},"5":{"x_min":116.65625,"x_max":790.953125,"ha":944,"o":"m 319 53 l 354 102 q 532 126 470 99 q 670 322 644 175 q 673 358 673 341 q 558 523 673 463 q 378 571 473 568 l 387 659 q 638 613 560 651 q 790 320 795 537 q 680 91 788 183 q 461 7 583 7 q 319 53 375 7 m 154 480 q 227 451 184 451 q 309 486 276 451 q 365 647 365 547 q 361 705 365 645 q 354 793 362 721 q 265 796 265 791 q 255 659 269 775 q 160 601 219 661 q 131 538 131 572 q 154 480 131 507 m 274 579 q 264 541 288 564 q 226 532 240 518 q 235 570 212 546 q 274 579 259 593 m 122 959 q 116 924 116 942 q 138 862 116 890 q 193 823 160 833 q 285 813 227 813 q 757 900 491 813 l 757 995 q 339 918 609 956 q 320 950 333 935 q 237 1004 290 986 q 200 1011 217 1011 q 122 959 147 1011 m 263 893 q 225 886 257 875 q 201 916 193 897 q 240 923 208 935 q 263 893 271 912 m 244 309 q 322 275 291 309 q 350 198 352 241 q 293 71 347 128 q 227 16 260 44 q 169 -5 200 -5 q 139 12 154 -5 q 130 32 130 23 q 139 46 130 41 q 208 95 156 57 q 162 219 161 136 q 244 309 163 301 m 259 156 q 279 189 279 156 q 259 222 279 222 q 238 189 238 222 q 259 156 238 156 "},"õ":{"x_min":145.140625,"x_max":857.953125,"ha":996,"o":"m 417 1228 q 543 1176 474 1228 q 567 1143 567 1148 q 615 1049 605 1090 q 635 950 635 979 l 635 933 q 613 834 635 901 q 564 758 585 781 q 519 731 528 731 l 500 731 q 434 765 471 734 q 393 835 406 796 q 370 929 377 870 l 370 943 q 398 1058 370 1003 q 425 1102 404 1064 l 439 1114 l 442 1114 q 500 1059 471 1096 l 500 1058 q 482 1024 493 1049 q 457 934 466 1011 q 475 864 465 894 q 503 837 489 844 l 507 837 q 539 895 524 846 l 545 936 l 545 979 q 516 1061 539 1013 q 400 1133 458 1133 q 339 1112 361 1127 q 299 1078 317 1104 q 239 890 239 1001 l 237 866 l 237 844 q 278 702 237 772 q 299 670 284 688 q 385 538 331 608 q 453 442 453 447 q 480 408 465 433 l 507 370 q 579 256 544 316 q 615 153 612 183 l 615 119 q 584 46 607 75 q 485 -3 561 13 l 471 -3 q 352 78 396 -3 q 339 141 339 96 q 410 312 339 212 l 413 312 q 470 239 442 280 q 432 147 432 184 l 432 134 q 475 87 445 87 l 480 87 q 521 134 512 87 l 521 148 q 480 239 514 188 q 358 403 444 293 l 319 453 l 240 562 q 172 695 216 600 q 145 820 153 733 l 145 863 q 162 994 151 975 q 275 1184 202 1140 q 319 1208 288 1195 q 391 1228 319 1216 l 417 1228 m 637 1226 q 736 1184 672 1224 q 811 1093 799 1125 q 845 989 834 1057 l 857 919 l 857 880 q 835 758 843 758 q 788 666 823 724 q 712 567 759 622 l 627 453 l 562 364 l 538 336 l 519 367 l 483 415 q 503 440 493 434 l 541 492 q 607 577 580 548 l 625 603 q 656 644 642 630 l 716 717 q 760 827 760 797 q 769 902 769 870 q 750 1006 769 926 q 685 1100 723 1067 q 632 1127 657 1127 l 594 1119 q 539 1193 578 1151 q 621 1226 539 1211 l 637 1226 "},"п":{"x_min":126.15625,"x_max":936.625,"ha":1047,"o":"m 139 512 q 155 588 133 512 q 229 729 181 676 q 400 800 297 803 q 564 787 497 797 q 655 778 625 778 q 690 779 671 778 q 936 859 813 786 q 815 741 889 796 q 621 666 709 661 q 490 678 540 669 q 422 683 452 685 q 139 512 263 676 m 564 642 q 487 628 564 653 q 342 534 400 598 q 255 297 261 444 q 212 -38 242 44 q 126 -129 191 -93 q 295 -53 225 -120 q 394 259 402 48 q 434 484 389 385 q 519 607 466 556 q 564 642 541 625 m 548 540 l 547 2 l 676 2 l 676 539 l 548 540 "},"7":{"x_min":137,"x_max":1007.15625,"ha":1147,"o":"m 661 878 l 591 786 q 328 877 420 877 q 249 853 285 877 q 189 830 214 830 q 137 873 143 830 q 333 1003 143 1003 q 661 878 499 1003 m 756 739 l 862 841 q 912 873 908 842 q 896 891 915 891 q 881 889 890 891 q 871 887 871 887 q 832 855 866 887 q 699 696 729 758 q 657 565 666 630 q 646 471 651 518 l 538 482 q 536 514 536 497 q 567 676 536 594 q 633 796 588 728 q 706 885 676 862 q 781 950 744 918 q 907 992 841 992 q 977 959 948 992 q 1007 881 1007 925 q 878 744 1007 781 l 756 739 m 904 558 l 903 452 q 603 358 838 358 q 313 444 313 358 q 394 499 313 503 q 480 465 424 497 q 402 461 422 460 q 385 456 388 462 q 383 448 383 454 q 596 440 465 440 q 904 558 727 440 m 696 321 q 718 278 696 320 q 733 185 733 251 q 685 33 734 88 q 591 -10 644 -11 q 511 53 548 -9 q 476 186 474 117 q 519 326 479 278 l 642 325 q 617 282 626 303 q 595 189 600 243 q 592 149 592 165 q 613 107 592 109 q 632 134 621 106 q 643 186 643 162 q 627 221 643 219 l 696 321 "},"K":{"x_min":134.96875,"x_max":1858.328125,"ha":1963,"o":"m 1148 290 q 1102 396 1148 358 q 1001 430 1062 430 q 906 397 949 430 q 853 290 853 358 q 891 193 853 232 q 1001 151 932 151 q 1107 188 1066 151 q 1148 290 1148 225 m 695 290 q 786 494 695 408 q 1001 581 877 581 q 1215 494 1124 581 q 1306 290 1306 408 q 1215 86 1306 173 q 1001 0 1124 0 q 786 86 877 0 q 695 290 695 173 m 1148 691 q 1121 779 1148 741 q 1001 830 1082 830 q 900 793 942 830 q 853 691 853 753 q 1001 552 853 552 q 1148 691 1148 552 m 695 691 q 786 895 695 809 q 1001 982 877 982 q 1215 895 1124 982 q 1306 691 1306 809 q 1215 487 1306 574 q 1001 400 1124 400 q 786 487 877 400 q 695 691 695 574 m 1699 495 q 1672 583 1699 546 q 1552 634 1633 634 q 1451 597 1494 634 q 1405 495 1405 558 q 1552 356 1405 356 q 1699 495 1699 356 m 1246 495 q 1337 699 1246 613 q 1552 786 1429 786 q 1767 699 1676 786 q 1858 495 1858 613 q 1767 291 1858 378 q 1552 204 1676 204 q 1337 291 1429 204 q 1246 495 1246 378 m 588 494 q 560 581 588 545 q 440 633 522 633 q 339 596 382 633 q 293 494 293 556 q 440 355 293 355 q 588 494 588 355 m 134 494 q 226 698 134 611 q 440 785 317 785 q 655 698 564 785 q 746 494 746 611 q 655 290 746 377 q 440 204 564 204 q 226 290 317 204 q 134 494 134 377 m 1290 745 q 1290 677 1290 677 l 1290 881 l 1293 990 l 1084 991 l 1087 1151 l 1452 1152 l 1452 786 q 1290 677 1384 785 l 1290 745 "},",":{"x_min":125.46875,"x_max":272.640625,"ha":410,"o":"m 133 4 l 133 143 l 272 143 l 272 4 q 159 -192 272 -143 l 125 -140 q 202 4 199 -107 l 133 4 "},"d":{"x_min":137,"x_max":1129.921875,"ha":1282,"o":"m 137 4 l 137 316 q 242 317 147 316 q 362 318 336 318 q 382 317 387 318 q 373 317 380 317 q 381 318 375 317 q 467 257 399 297 q 576 197 517 229 q 438 171 527 185 q 304 164 360 166 l 304 4 l 137 4 m 348 151 q 484 159 377 150 q 613 187 560 169 q 759 156 652 175 q 873 146 851 146 q 619 124 655 124 q 348 151 596 124 m 1074 2 l 912 2 l 912 158 q 246 677 274 182 q 349 924 237 824 q 619 1018 460 1023 q 896 912 791 1013 q 994 670 996 813 q 925 440 992 529 q 820 343 895 398 l 656 399 q 754 493 741 476 q 815 660 815 570 q 739 811 815 753 q 624 856 679 855 q 521 835 571 856 q 422 680 421 792 q 559 413 423 508 q 840 316 661 342 q 1074 299 897 307 l 1074 2 m 994 610 l 1129 610 l 1129 715 l 994 715 l 994 610 m 668 610 l 804 610 l 804 715 l 668 715 l 668 610 "},"E":{"x_min":133.609375,"x_max":744.015625,"ha":884,"o":"m 133 6 l 133 997 l 744 997 l 743 862 l 268 863 l 269 578 l 743 578 l 743 447 l 268 447 l 268 141 l 743 141 l 743 6 l 133 6 "},"Y":{"x_min":117.328125,"x_max":890.5,"ha":1014,"o":"m 794 1060 q 890 987 887 996 q 783 847 886 971 q 618 624 783 839 q 600 611 609 611 l 596 618 l 596 668 l 594 684 l 596 684 l 594 686 l 594 760 l 592 792 q 670 899 592 796 l 792 1060 l 794 1060 m 202 1031 l 209 1031 q 480 719 347 881 q 708 409 678 500 q 728 315 723 370 l 725 315 l 728 312 l 728 308 q 699 189 728 255 q 633 113 664 130 q 560 82 615 95 l 526 78 q 385 147 442 78 q 328 271 344 187 l 326 333 q 352 457 326 369 q 431 581 390 535 l 434 581 l 434 583 q 220 833 377 654 l 117 950 l 117 956 l 202 1031 m 560 1022 q 572 983 572 1003 l 576 849 l 574 847 l 576 838 l 578 758 l 581 756 l 581 754 l 578 748 l 583 642 l 576 638 q 446 794 452 771 l 446 796 l 440 1011 l 438 1018 l 440 1020 l 442 1020 l 560 1022 m 444 567 l 444 548 l 446 539 l 444 530 l 453 457 l 451 444 l 455 409 l 453 402 l 455 400 q 440 319 440 341 q 459 231 440 299 l 462 185 l 459 168 l 459 152 l 505 152 l 519 154 l 521 152 l 548 154 l 600 154 l 604 159 l 604 181 l 602 193 l 604 207 l 602 214 l 604 229 l 602 257 l 611 282 l 607 319 l 609 319 q 592 385 601 363 l 587 385 l 585 376 l 587 374 l 587 367 l 585 367 l 587 341 l 587 317 l 585 315 l 587 312 l 587 299 l 590 168 l 583 163 l 574 163 l 567 165 l 556 163 l 526 163 l 505 161 l 499 163 l 477 161 l 473 170 l 468 333 l 466 335 l 466 337 l 468 339 l 466 361 l 466 396 l 464 409 l 466 411 l 459 541 l 462 550 q 448 567 454 566 l 444 567 m 477 530 l 477 528 q 574 392 517 466 l 581 398 q 510 495 566 434 l 477 530 m 528 42 q 618 -14 592 42 l 622 -35 l 622 -51 q 556 -130 622 -108 l 530 -134 q 475 -110 503 -134 q 448 -58 450 -84 l 448 -33 q 517 40 448 14 l 528 42 "},"\"":{"x_min":64,"x_max":428,"ha":469,"o":"m 97 642 l 64 831 l 64 994 l 203 994 l 203 831 l 172 642 l 97 642 m 322 642 l 289 831 l 289 994 l 428 994 l 428 831 l 395 642 l 322 642 "},"‹":{"x_min":63,"x_max":377.703125,"ha":479,"o":"m 197 357 l 377 49 l 276 49 l 63 357 l 276 667 l 377 667 l 197 357 "},"ч":{"x_min":142.421875,"x_max":676.1875,"ha":793,"o":"m 413 635 q 474 610 448 635 q 500 550 500 585 q 474 490 500 515 q 413 465 448 465 q 350 490 376 465 q 324 550 324 515 q 350 610 324 585 q 413 635 376 635 m 142 735 l 267 735 l 267 425 l 552 425 l 552 735 l 676 735 l 676 303 l 476 303 l 476 -3 l 339 -3 l 339 303 l 142 303 l 142 735 "},"´":{"x_min":-139.03125,"x_max":91.5625,"ha":179,"o":"m -139 1020 l -68 1256 l 91 1256 l -57 1020 l -139 1020 "},"±":{"x_min":103.09375,"x_max":759.609375,"ha":880,"o":"m 373 176 l 373 449 l 103 449 l 103 562 l 373 562 l 373 833 l 489 833 l 489 562 l 759 562 l 759 449 l 489 449 l 489 176 l 373 176 m 759 0 l 103 0 l 103 113 l 759 113 l 759 0 "},"|":{"x_min":128,"x_max":234,"ha":368,"o":"m 128 -292 l 128 1011 l 234 1011 l 234 -292 l 128 -292 "},"§":{"x_min":128.859375,"x_max":782.671875,"ha":906,"o":"m 740 21 q 644 -163 725 -99 q 444 -223 568 -223 q 306 -196 370 -223 q 210 -117 246 -169 q 174 -1 174 -65 q 282 189 174 107 q 178 252 206 221 q 128 383 128 306 q 222 561 128 483 q 366 657 258 591 q 573 806 536 760 q 598 871 598 836 q 551 952 598 921 q 459 979 510 979 q 313 831 339 979 l 186 844 q 470 1079 215 1079 q 640 1023 570 1079 q 717 865 717 963 q 630 697 717 781 q 739 626 697 677 q 782 505 782 574 q 757 406 782 453 q 668 303 728 351 q 552 227 635 278 q 322 61 364 111 q 297 -2 297 31 q 344 -91 297 -59 q 444 -120 385 -120 q 564 -78 522 -120 q 617 38 600 -41 l 740 21 m 343 233 q 500 334 409 280 q 611 407 581 381 q 672 518 672 460 q 570 650 672 592 q 432 556 525 614 q 315 476 349 505 q 244 360 244 416 q 343 233 244 284 "},"И":{"x_min":128.859375,"x_max":659.234375,"ha":810,"o":"m 288 777 l 288 1 l 484 1 l 484 777 l 288 777 m 247 1058 q 331 1025 297 1058 q 366 948 366 993 q 331 871 366 903 q 247 838 297 838 q 163 871 198 838 q 128 948 128 903 q 163 1025 128 993 q 247 1058 198 1058 m 540 1058 q 624 1025 590 1058 q 659 948 659 993 q 624 871 659 903 q 540 838 590 838 q 456 871 491 838 q 421 948 421 903 q 456 1025 421 993 q 540 1058 491 1058 "},"й":{"x_min":131.921875,"x_max":1003.21875,"ha":1101,"o":"m 727 1049 q 661 1008 691 1050 q 634 928 631 967 q 714 792 640 845 q 922 735 794 735 q 1003 735 1006 738 q 914 759 959 747 q 825 809 855 777 q 778 937 783 853 q 780 966 777 946 q 782 996 782 987 q 727 1049 782 1047 m 211 744 l 320 696 q 258 349 252 518 q 297 167 262 219 q 395 120 328 122 q 510 168 445 119 l 583 74 q 389 -10 510 -10 q 214 87 288 -10 q 132 355 136 191 q 211 744 126 564 m 681 181 l 622 278 q 695 481 696 358 q 644 619 695 611 q 565 464 573 614 q 610 274 562 389 q 761 123 671 128 q 851 184 816 120 l 931 101 q 758 -6 870 -6 q 554 128 655 -6 q 448 419 450 265 q 501 660 446 569 q 635 744 554 744 q 761 675 710 744 q 813 511 810 608 q 681 181 822 283 "},"b":{"x_min":139.03125,"x_max":914.25,"ha":1042,"o":"m 524 247 q 364 310 430 247 q 297 463 297 373 q 364 617 297 553 q 524 680 430 680 q 683 617 617 680 q 750 463 750 553 q 683 310 750 373 q 524 247 617 247 m 638 463 q 518 574 638 574 q 443 548 474 574 q 408 463 408 516 q 524 354 408 354 q 638 463 638 354 m 139 1020 l 914 1020 l 914 2 l 750 2 l 749 860 l 307 859 l 307 2 l 139 2 l 139 1020 "},"q":{"x_min":121.40625,"x_max":477.46875,"ha":608,"o":"m 217 0 l 217 720 l 392 720 l 392 0 l 217 0 m 400 889 q 454 868 432 889 q 476 819 476 848 q 454 771 476 791 q 400 750 432 750 q 348 771 370 750 q 326 819 326 791 q 348 868 326 848 q 400 889 370 889 m 197 883 q 249 863 228 883 q 271 814 271 843 q 249 766 271 786 q 197 746 228 746 q 144 766 166 746 q 122 814 122 786 q 144 863 122 843 q 197 883 166 883 m 143 930 q 234 916 201 942 q 297 831 267 891 q 323 880 300 850 q 375 925 348 913 q 477 943 427 948 q 366 961 437 969 q 322 933 347 959 q 293 895 301 912 q 282 931 287 913 q 248 972 275 945 q 177 1005 222 999 q 121 1006 168 1006 l 143 930 "},"р":{"x_min":113.265625,"x_max":690.59375,"ha":815,"o":"m 113 -266 q 185 -16 185 -208 q 155 217 185 84 q 126 466 126 351 q 203 655 126 575 q 389 736 281 736 q 557 692 482 736 q 690 434 685 616 q 620 224 693 301 q 490 149 571 171 q 440 139 450 139 q 326 187 373 143 l 302 377 q 425 284 362 284 q 549 434 549 284 q 495 557 549 510 q 402 596 451 596 q 318 553 360 596 q 270 451 273 507 q 287 267 269 413 q 305 70 306 118 q 113 -266 302 -150 "},"Ω":{"x_min":137,"x_max":1044.46875,"ha":1216,"o":"m 137 117 l 354 117 q 147 537 147 289 q 355 949 147 819 q 593 1011 454 1011 q 974 790 851 1011 q 1033 537 1033 684 q 827 117 1033 289 l 1044 117 l 1044 0 l 657 0 l 657 109 q 899 517 899 222 q 824 777 899 671 q 592 898 739 898 q 360 781 446 898 q 284 524 284 676 q 524 109 284 225 l 524 0 l 137 0 l 137 117 "},"т":{"x_min":132.25,"x_max":749.4375,"ha":872,"o":"m 132 734 l 749 734 l 749 604 l 510 604 l 510 4 l 370 4 l 370 604 l 132 604 l 132 734 "},"П":{"x_min":134.28125,"x_max":859.3125,"ha":968,"o":"m 134 1013 l 859 1013 l 859 -4 l 684 -4 l 684 859 l 308 859 l 308 -4 l 134 -4 l 134 1013 "},"z":{"x_min":139.03125,"x_max":795.5625,"ha":948,"o":"m 472 697 q 609 644 528 697 l 634 614 q 667 543 657 573 l 674 498 l 674 496 q 596 317 674 378 q 543 274 590 306 l 461 263 q 373 286 395 270 q 311 334 341 301 l 283 374 q 271 405 271 400 q 253 483 263 405 q 265 554 253 510 q 276 577 267 555 q 320 638 293 608 q 455 697 387 697 l 472 697 m 398 489 l 398 477 q 438 420 398 446 q 467 416 450 416 l 468 416 q 531 472 510 416 l 533 487 q 494 547 533 530 l 467 554 q 417 532 432 548 q 398 489 398 509 m 346 295 l 362 278 q 453 255 398 255 q 520 265 472 255 l 524 265 l 526 262 q 477 225 507 244 q 401 166 423 181 q 367 137 375 147 l 792 137 l 795 134 l 795 4 l 792 1 l 141 1 l 139 4 l 139 120 q 191 170 141 134 l 343 293 l 345 295 l 346 295 "},"Ж":{"x_min":188.546875,"x_max":1019.375,"ha":1148,"o":"m 223 1035 l 366 1018 q 343 834 343 904 q 346 781 343 805 q 381 670 354 723 q 455 594 413 605 l 316 535 q 195 756 217 609 q 188 849 188 803 q 223 1035 188 940 m 614 660 q 704 601 623 617 q 732 657 718 629 q 751 741 751 699 q 598 929 751 929 q 491 868 542 929 q 440 731 438 805 q 468 625 441 667 q 506 581 487 603 q 330 518 389 553 q 195 322 210 448 q 189 223 189 271 q 236 -19 189 82 l 403 12 q 354 225 354 124 q 356 270 354 247 q 398 406 365 366 q 516 459 433 449 q 531 459 523 459 q 651 299 634 459 q 639 251 653 274 q 616 231 627 233 q 574 250 590 227 q 561 297 560 269 q 579 358 562 335 q 602 387 590 373 q 569 430 594 404 q 514 444 567 431 q 467 401 491 423 q 440 286 434 358 q 510 154 445 198 q 616 122 558 122 q 714 160 674 122 q 763 302 767 208 q 729 419 759 372 q 687 471 708 445 q 713 470 701 470 q 993 800 963 470 q 994 833 994 815 q 975 986 994 903 q 948 1062 957 1062 l 809 1032 q 843 811 844 893 q 815 664 840 722 q 701 585 779 579 q 561 756 561 596 q 579 801 561 792 q 598 805 588 803 q 620 798 609 802 q 635 758 634 789 q 628 700 636 727 q 614 660 621 680 m 768 449 q 813 420 794 441 q 866 263 858 369 q 866 240 866 252 q 823 28 866 160 l 972 -3 q 1019 270 1019 126 q 908 512 1019 415 q 845 467 867 477 q 768 449 815 461 "},"É":{"x_min":128.859375,"x_max":874.90625,"ha":1017,"o":"m 739 506 l 739 145 l 577 145 l 575 1013 l 436 1013 l 436 145 l 264 145 l 264 506 l 128 506 l 128 0 l 874 0 l 874 506 l 739 506 m 333 809 l 333 674 l 669 674 l 669 809 l 333 809 "},"и":{"x_min":113.609375,"x_max":912.890625,"ha":1009,"o":"m 193 741 l 302 693 q 240 346 234 515 q 279 164 244 216 q 377 117 309 118 q 491 165 427 115 l 565 71 q 370 -14 491 -14 q 196 84 269 -14 q 113 352 118 188 q 193 741 108 561 m 663 178 l 604 274 q 677 478 678 354 q 626 615 676 607 q 547 461 554 611 q 592 270 543 386 q 743 120 653 125 q 832 181 798 117 l 912 97 q 740 -9 852 -9 q 535 124 636 -9 q 430 415 432 262 q 483 657 427 566 q 617 741 536 741 q 743 672 692 741 q 795 507 792 604 q 663 178 803 280 "},"Н":{"x_min":132.9375,"x_max":914.25,"ha":1035,"o":"m 914 1018 l 914 531 q 830 379 914 455 q 550 285 722 282 q 437 293 467 286 q 337 341 394 303 l 337 481 q 437 427 380 438 q 551 423 470 421 q 691 467 640 426 q 743 571 740 507 q 747 1018 744 731 l 914 1018 m 295 1012 l 295 701 q 209 661 262 701 q 134 574 156 621 l 134 1012 l 295 1012 m 132 -1 l 132 486 q 220 639 132 561 q 504 733 330 737 q 617 725 587 731 q 717 677 661 714 l 717 537 q 589 583 670 583 q 503 581 605 583 q 303 446 310 575 q 299 -1 302 286 l 132 -1 m 746 0 l 746 306 q 840 359 772 306 q 910 448 883 392 l 910 0 l 746 0 "},"~":{"x_min":113.265625,"x_max":807.078125,"ha":942,"o":"m 113 385 l 113 524 q 301 606 185 606 q 514 547 375 606 q 632 515 590 515 q 807 608 722 515 l 807 464 q 619 387 724 387 q 424 442 547 387 q 290 478 343 478 q 113 385 208 478 "},"ф":{"x_min":132.65625,"x_max":814.765625,"ha":954,"o":"m 204 603 q 232 631 200 603 q 316 682 268 662 q 468 708 385 709 q 666 614 600 706 q 722 406 722 535 q 483 101 722 98 q 318 172 378 103 q 267 310 269 231 q 265 339 267 316 q 263 372 263 359 q 349 469 263 474 q 470 362 423 465 q 617 251 521 251 q 695 298 666 251 q 724 364 709 331 l 722 437 q 697 339 710 373 q 632 276 672 278 q 548 299 587 274 q 499 364 510 324 q 448 448 485 411 q 352 492 405 490 q 234 330 234 495 q 287 158 234 236 q 524 44 364 44 q 767 178 693 44 q 814 385 817 268 q 734 605 811 499 q 475 741 636 741 q 321 706 390 741 q 234 640 271 681 q 204 603 219 621 m 709 433 q 444 696 686 689 q 187 571 271 701 q 133 383 125 476 q 486 -5 166 -5 q 640 43 565 -5 q 716 103 678 73 q 613 51 644 63 q 494 28 558 30 q 356 76 426 27 q 227 387 225 168 q 327 576 229 505 q 481 631 405 632 q 594 596 539 630 q 709 433 680 543 "},"Ε":{"x_min":136.609375,"x_max":747.015625,"ha":880,"o":"m 136 2 l 136 993 l 747 993 l 746 858 l 271 859 l 272 574 l 746 574 l 746 443 l 271 443 l 271 137 l 746 137 l 746 2 l 136 2 "},"л":{"x_min":112.578125,"x_max":770.46875,"ha":878,"o":"m 353 366 l 424 279 q 317 142 417 279 q 214 -2 224 14 q 112 62 161 29 q 236 215 174 139 q 353 366 355 365 m 446 470 l 509 392 q 613 592 613 520 q 529 710 613 666 q 438 729 492 729 q 315 682 351 729 q 276 562 276 630 q 328 417 276 486 q 548 149 394 330 q 676 -2 613 73 q 719 25 698 11 q 770 62 767 61 q 404 495 543 308 q 380 556 380 527 q 397 611 380 582 q 448 637 419 637 q 489 618 470 637 q 503 554 509 599 q 446 470 501 535 "},"¡":{"x_min":158,"x_max":309,"ha":475,"o":"m 303 720 l 303 581 l 163 581 l 163 720 l 303 720 m 271 472 l 309 -53 l 309 -274 l 158 -274 l 158 -53 l 193 472 l 271 472 "},"[":{"x_min":134.96875,"x_max":1184.171875,"ha":1322,"o":"m 520 428 q 521 273 519 329 q 592 313 555 288 q 683 362 632 332 q 891 493 746 399 q 965 521 931 521 q 1030 501 992 521 q 1061 444 1061 476 q 1029 384 1053 408 q 940 368 1005 361 q 824 421 914 370 l 715 347 q 862 258 786 293 q 998 240 929 229 q 1127 299 1082 250 q 1184 450 1184 355 q 1120 582 1178 528 q 948 656 1041 656 q 779 592 872 656 q 520 428 671 526 m 368 -2 l 368 818 l 507 818 l 507 -2 l 368 -2 m 341 935 q 369 1002 341 975 q 436 1030 396 1030 q 502 1002 475 1030 q 530 935 530 975 q 502 869 530 896 q 436 841 475 841 q 369 869 396 841 q 341 935 341 897 m 349 556 l 134 652 l 185 774 l 349 696 l 349 556 m 353 189 l 205 100 l 141 220 l 353 343 l 353 189 m 537 453 l 518 469 l 518 611 l 664 532 l 537 453 "},"Щ":{"x_min":132.25,"x_max":1082.4375,"ha":1216,"o":"m 132 1017 l 132 0 l 914 0 q 893 -46 895 -24 q 894 -100 893 -49 q 963 -237 897 -179 q 1082 -300 1014 -282 q 1034 -240 1058 -270 q 998 -115 1000 -189 q 1022 0 995 -42 q 1066 52 1043 25 l 1066 546 l 891 546 l 891 172 l 699 172 l 699 1012 l 513 1012 l 513 174 l 321 174 l 319 1017 l 132 1017 "},"L":{"x_min":135.640625,"x_max":746.046875,"ha":880,"o":"m 135 2 l 135 951 l 271 951 l 271 137 l 746 137 l 746 2 l 135 2 "},"ζ":{"x_min":120.046875,"x_max":672.125,"ha":834,"o":"m 229 994 l 672 994 l 672 911 q 383 642 506 809 q 242 280 242 451 q 279 159 242 198 q 397 113 316 120 q 522 96 491 105 q 625 33 589 80 q 658 -70 658 -10 q 620 -189 658 -132 q 524 -269 581 -245 q 394 -292 470 -292 l 427 -179 q 541 -84 541 -166 q 478 -8 541 -22 q 377 0 449 -1 q 145 143 202 6 q 120 285 120 206 q 245 632 120 451 q 512 895 356 790 l 229 895 l 229 994 "},"К":{"x_min":143.78125,"x_max":758.9375,"ha":876,"o":"m 758 1025 l 234 532 l 758 0 l 428 528 l 758 1025 m 143 1020 l 143 0 l 319 0 l 319 1020 l 143 1020 "},"Ο":{"x_min":138.640625,"x_max":708.359375,"ha":832,"o":"m 708 334 q 673 171 708 224 q 506 11 629 71 l 506 13 q 435 -3 506 8 q 236 67 306 -3 q 203 104 224 71 l 190 119 l 190 129 q 150 205 177 130 q 138 313 138 268 l 155 434 l 190 570 q 218 722 218 668 l 220 724 l 218 726 l 220 751 l 220 774 q 163 979 220 829 l 157 1059 q 220 1183 157 1120 q 336 1232 281 1232 q 470 1179 414 1232 q 524 1061 512 1126 l 529 1023 l 529 1021 l 527 1012 l 529 1010 q 491 900 523 955 q 370 825 442 838 q 345 840 345 825 q 264 966 345 872 q 234 1036 234 1015 q 230 1044 234 1044 l 228 1044 l 226 1036 l 241 989 q 297 904 262 948 q 345 800 323 874 l 363 704 l 363 699 l 361 699 l 363 679 l 363 641 l 361 629 l 363 627 l 363 625 q 343 585 359 585 l 303 561 q 257 526 263 536 l 257 524 q 374 580 342 580 q 470 593 374 589 q 605 532 556 574 q 681 441 652 492 q 704 363 685 441 l 708 334 m 435 437 l 426 437 q 343 382 391 437 q 309 278 309 327 l 309 271 l 307 263 q 334 180 307 235 q 388 144 360 150 l 411 140 q 435 144 420 144 l 435 148 l 437 148 l 439 146 q 539 321 539 183 q 435 437 523 437 m 437 73 l 433 73 l 433 67 l 437 67 l 437 73 m 336 1105 q 278 1053 299 1105 l 276 1031 q 309 968 287 968 q 332 958 319 958 q 382 981 382 967 q 401 1021 396 994 l 401 1040 l 403 1042 q 363 1098 403 1076 q 336 1105 349 1105 "},"Γ":{"x_min":137,"x_max":758.25,"ha":880,"o":"m 137 990 l 758 990 l 758 872 l 268 872 l 268 -4 l 137 -4 l 137 990 "}," ":{"x_min":0,"x_max":0,"ha":370},"%":{"x_min":117.328125,"x_max":659.234375,"ha":775,"o":"m 117 533 q 153 621 117 584 q 242 657 190 657 q 331 621 295 657 q 368 533 368 585 q 331 444 368 480 q 242 407 295 407 q 153 444 190 407 q 117 533 117 480 m 408 532 q 444 620 408 583 q 533 657 481 657 q 622 620 585 657 q 659 532 659 584 q 622 443 659 480 q 533 406 585 406 q 444 443 481 406 q 408 532 408 480 "},"P":{"x_min":126.15625,"x_max":705.359375,"ha":846,"o":"m 406 1247 q 528 1144 490 1247 q 537 1089 537 1109 l 537 1087 q 507 956 537 1003 q 476 903 492 923 q 436 962 470 905 q 415 1001 417 988 l 415 1005 q 443 1090 443 1046 q 406 1141 432 1141 q 375 1092 375 1129 l 375 1089 q 401 1001 383 1032 q 640 642 401 988 l 705 550 l 705 548 l 526 305 q 472 234 485 246 l 420 301 q 412 317 415 301 l 497 433 q 578 547 504 446 l 409 796 q 301 973 323 917 q 282 1084 282 1036 q 349 1227 282 1167 q 404 1247 368 1239 l 406 1247 m 341 869 q 394 792 394 797 l 355 722 l 297 634 q 240 552 248 560 l 236 545 l 379 341 q 500 161 487 195 q 533 32 524 116 l 533 27 q 485 -90 533 -24 l 459 -110 q 409 -126 428 -126 l 402 -126 q 309 -71 354 -126 q 280 11 292 -38 q 277 37 277 18 l 277 39 q 336 215 277 139 q 357 185 342 211 q 394 128 394 135 q 366 35 366 59 q 404 -29 373 -29 q 435 34 431 -21 l 435 39 q 394 153 430 92 q 228 390 343 233 l 127 539 l 126 545 q 282 786 187 636 l 341 869 "},"∏":{"x_min":135.640625,"x_max":1011.90625,"ha":1150,"o":"m 135 1017 l 910 1017 l 910 0 l 746 0 l 746 857 l 304 857 l 304 0 l 135 0 l 135 1017 m 636 314 l 636 470 l 1011 470 l 1011 314 l 636 314 "},"_":{"x_min":140.390625,"x_max":1002.40625,"ha":1148,"o":"m 315 -292 l 828 292 l 889 225 l 383 -358 l 315 -292 m 562 -77 l 140 -77 l 140 10 l 492 10 l 312 234 l 385 292 l 611 10 l 1002 10 l 1002 -77 l 682 -77 l 860 -299 l 784 -354 l 562 -77 "},"+":{"x_min":120.71875,"x_max":777.25,"ha":880,"o":"m 391 160 l 391 433 l 120 433 l 120 547 l 391 547 l 391 817 l 506 817 l 506 547 l 777 547 l 777 433 l 506 433 l 506 160 l 391 160 "},"‚":{"x_min":78,"x_max":328.9375,"ha":408,"o":"m 131 5 l 131 147 l 262 147 l 262 35 q 241 -95 262 -55 q 150 -178 212 -150 l 120 -130 q 195 5 191 -101 l 131 5 m 78 97 q 114 185 78 149 q 202 222 151 222 q 292 186 255 222 q 328 97 328 149 q 292 8 328 45 q 202 -27 255 -27 q 114 8 151 -27 q 78 97 78 45 "},"Ρ":{"x_min":107.15625,"x_max":686.359375,"ha":810,"o":"m 387 1247 q 509 1144 471 1247 q 518 1089 518 1109 l 518 1087 q 488 956 518 1003 q 457 903 473 923 q 417 962 451 905 q 396 1001 398 988 l 396 1005 q 424 1090 424 1046 q 387 1141 413 1141 q 356 1092 356 1129 l 356 1089 q 382 1001 364 1032 q 621 642 382 988 l 686 550 l 686 548 l 507 305 q 453 234 466 246 l 401 301 q 393 317 396 301 l 478 433 q 559 547 485 446 l 390 796 q 282 973 304 917 q 263 1084 263 1036 q 330 1227 263 1167 q 385 1247 349 1239 l 387 1247 m 322 869 q 375 792 375 797 l 336 722 l 278 634 q 221 552 229 560 l 217 545 l 360 341 q 481 161 468 195 q 514 32 505 116 l 514 27 q 466 -90 514 -24 l 440 -110 q 390 -126 409 -126 l 383 -126 q 290 -71 335 -126 q 261 11 273 -38 q 258 37 258 18 l 258 39 q 317 215 258 139 q 338 185 323 211 q 375 128 375 135 q 347 35 347 59 q 385 -29 354 -29 q 416 34 412 -21 l 416 39 q 375 153 411 92 q 209 390 324 233 l 108 539 l 107 545 q 263 786 168 636 l 322 869 "},"Ë":{"x_min":139.03125,"x_max":1092.609375,"ha":1222,"o":"m 808 1249 q 721 1214 757 1249 q 685 1127 685 1178 q 721 1041 685 1077 q 808 1005 757 1005 q 894 1041 858 1005 q 930 1127 930 1077 q 894 1214 930 1178 q 808 1249 858 1249 m 404 1249 q 318 1214 354 1249 q 282 1127 282 1178 q 318 1041 282 1077 q 404 1005 354 1005 q 491 1041 455 1005 q 526 1127 526 1077 q 491 1214 526 1178 q 404 1249 455 1249 m 295 497 q 385 725 295 632 q 615 817 475 817 q 846 729 756 817 q 935 497 935 641 q 847 261 935 357 q 615 163 754 163 q 381 263 472 163 q 295 497 295 359 m 615 7 q 952 152 811 7 q 1092 497 1092 298 q 952 834 1092 695 q 615 974 813 974 q 278 834 417 974 q 139 497 139 695 q 279 152 139 298 q 615 7 419 7 "},"ы":{"x_min":106.484375,"x_max":692.46875,"ha":813,"o":"m 607 931 q 661 911 640 931 q 682 863 682 891 q 661 809 682 832 q 607 784 639 784 q 555 808 576 784 q 534 863 534 832 q 555 911 534 891 q 607 931 575 931 m 543 731 l 678 731 l 678 348 q 543 463 614 448 l 543 731 m 106 939 q 290 751 213 884 q 379 485 363 626 q 223 379 295 464 q 229 486 229 431 q 197 738 229 617 q 106 939 164 862 m 448 468 q 621 394 547 468 q 692 234 692 322 q 625 67 692 137 q 448 -4 555 -4 q 267 66 334 -4 q 204 234 204 132 q 276 394 204 322 q 448 468 350 468 m 448 360 q 357 318 394 360 q 323 227 323 279 q 357 140 323 177 q 448 100 394 100 q 539 140 503 100 q 573 227 573 177 q 539 318 573 279 q 448 360 503 360 "},"'":{"x_min":62,"x_max":201,"ha":269,"o":"m 93 642 l 62 827 l 62 994 l 201 994 l 201 827 l 168 642 l 93 642 "},"ª":{"x_min":137,"x_max":1863.75,"ha":1967,"o":"m 1841 642 q 1798 731 1816 699 q 1776 769 1789 754 q 1488 615 1623 697 q 1106 415 1252 497 q 981 366 1014 366 q 916 387 954 366 q 885 443 885 412 q 917 503 893 480 q 1005 520 941 526 q 1140 459 1062 503 l 1274 534 q 1084 630 1170 602 q 948 648 1017 659 q 819 588 864 638 q 762 438 762 533 q 826 305 768 360 q 998 231 904 231 q 1186 291 1074 231 q 1841 642 1636 539 m 1454 416 l 1309 338 q 1522 224 1265 343 q 1802 86 1648 158 q 1863 215 1831 153 q 1454 416 1620 335 m 1405 940 q 1433 1006 1405 979 q 1500 1034 1460 1034 q 1567 1006 1539 1034 q 1594 940 1594 979 q 1567 873 1594 900 q 1500 845 1539 845 q 1433 873 1460 845 q 1405 940 1405 901 m 1434 608 l 1433 811 l 1568 810 l 1566 685 l 1434 608 m 1566 181 l 1568 -2 l 1433 -1 l 1434 242 l 1566 181 m 1467 420 l 1464 432 l 1570 475 l 1569 382 l 1467 420 m 537 431 q 537 276 535 332 q 608 316 571 291 q 699 365 648 335 q 907 496 762 402 q 981 524 948 524 q 1046 503 1008 524 q 1077 447 1077 478 q 1045 387 1069 411 q 956 370 1021 364 q 840 423 931 373 l 731 350 q 878 261 802 296 q 1014 242 945 231 q 1143 302 1098 252 q 1200 453 1200 358 q 1136 585 1194 531 q 964 659 1058 659 q 796 595 888 659 q 537 431 687 529 m 370 -4 l 370 817 l 509 817 l 509 -4 l 370 -4 m 343 934 q 371 1001 343 973 q 438 1028 398 1028 q 504 1001 477 1028 q 532 934 532 973 q 504 867 532 895 q 438 840 477 840 q 371 868 398 840 q 343 934 343 895 m 351 555 l 137 651 l 187 773 l 351 695 l 351 555 m 355 188 l 207 99 l 143 219 l 355 341 l 355 188 m 553 456 l 535 472 l 535 613 l 680 535 l 553 456 "},"ї":{"x_min":6.109375,"x_max":386.59375,"ha":403,"o":"m 134 0 l 134 720 l 256 720 l 256 0 l 134 0 m 6 861 l 6 1000 l 133 1000 l 133 861 l 6 861 m 259 861 l 259 1000 l 386 1000 l 386 861 l 259 861 "},"Р":{"x_min":114.625,"x_max":845.75,"ha":969,"o":"m 440 398 q 415 548 427 473 q 394 727 390 693 q 444 822 402 786 q 539 855 487 859 q 671 718 672 844 q 557 573 670 615 q 441 552 500 552 l 467 413 q 567 418 518 416 q 748 489 679 433 q 845 718 845 567 q 784 910 845 831 q 510 1017 697 1023 q 293 923 377 1013 q 217 776 227 854 q 216 754 216 767 q 240 573 216 701 q 273 398 270 421 q 282 305 282 324 q 276 166 282 280 q 211 -48 269 56 q 128 -174 169 -111 q 238 -72 183 -123 q 371 81 322 10 q 446 322 446 190 q 440 398 446 359 m 114 552 l 114 412 l 244 412 l 217 552 l 114 552 "},"щ":{"x_min":115.296875,"x_max":757.578125,"ha":855,"o":"m 115 739 l 115 0 l 641 0 q 627 -33 628 -27 q 626 -71 625 -41 q 672 -168 628 -128 q 757 -213 708 -202 q 727 -171 742 -192 q 706 -82 708 -135 q 752 2 704 -29 l 752 400 l 638 400 l 638 128 l 503 128 l 503 738 l 379 738 l 379 130 l 244 130 l 246 739 l 115 739 "},"T":{"x_min":134.96875,"x_max":881.015625,"ha":1021,"o":"m 745 514 l 745 152 l 583 152 l 581 1020 l 442 1020 l 442 152 l 270 152 l 270 514 l 134 514 l 134 7 l 880 7 l 881 514 l 745 514 m 339 817 l 339 682 l 675 682 l 675 817 l 339 817 "},"Þ":{"x_min":108,"x_max":867,"ha":990,"o":"m 108 0 l 108 994 l 240 994 l 240 792 l 483 792 q 635 782 581 792 q 837 639 780 756 q 867 503 867 577 q 494 202 867 202 l 240 202 l 240 0 l 108 0 m 240 319 l 496 319 q 731 499 731 319 q 702 602 731 558 q 617 665 671 649 q 493 675 583 675 l 240 675 l 240 319 "},"j":{"x_min":127.5,"x_max":821.328125,"ha":950,"o":"m 530 1081 l 553 1081 q 708 1016 617 1081 q 821 764 821 925 q 676 484 821 588 q 550 446 610 446 l 518 446 q 451 470 451 461 l 440 480 l 440 488 q 403 699 432 564 l 401 726 l 404 726 q 446 632 432 636 q 535 597 487 597 q 647 682 601 597 q 662 758 662 729 l 662 766 q 566 908 662 868 l 526 914 q 415 830 456 914 q 396 718 396 781 q 424 491 396 662 q 436 340 436 385 l 436 238 l 597 238 l 602 233 l 602 137 l 597 133 l 419 133 q 375 -14 419 99 q 359 -49 371 -17 q 246 -196 307 -137 l 240 -200 l 233 -200 q 229 -193 229 -200 q 288 -47 269 -119 q 309 112 309 59 l 309 133 l 132 133 l 127 137 l 127 236 l 132 240 l 305 240 l 305 256 q 284 423 299 360 q 238 685 238 655 l 236 716 l 236 764 q 267 912 244 853 q 328 1000 293 960 q 461 1073 378 1049 l 530 1081 "},"Ѱ":{"x_min":87,"x_max":1075,"ha":1208,"o":"m 87 994 l 219 994 l 219 726 q 290 499 219 570 q 515 420 357 432 l 515 994 l 647 994 l 647 420 q 873 506 804 429 q 943 742 943 584 l 943 994 l 1075 994 l 1075 713 q 647 307 1075 313 l 647 0 l 515 0 l 515 307 q 87 701 87 314 l 87 994 "},"Σ":{"x_min":136.328125,"x_max":840.3125,"ha":943,"o":"m 812 990 l 812 873 l 278 873 l 534 510 l 278 113 l 840 113 l 840 -3 l 136 -3 l 136 133 l 504 512 l 136 858 l 136 990 l 812 990 "},"1":{"x_min":101.96875,"x_max":518.421875,"ha":626,"o":"m 122 451 q 102 467 104 451 q 115 485 101 475 q 153 522 137 501 q 255 647 205 590 l 255 539 q 193 495 229 522 q 122 451 163 459 m 418 680 q 481 737 448 681 q 518 864 518 797 q 488 967 518 930 q 425 1000 461 1000 q 330 945 378 1000 q 267 752 267 873 l 267 46 q 281 9 267 18 q 332 0 294 1 q 359 -1 343 0 q 381 -3 375 -3 q 407 28 407 -3 l 407 838 q 421 862 407 862 q 427 849 427 862 q 418 817 427 826 l 418 680 "},"›":{"x_min":63,"x_max":370.234375,"ha":469,"o":"m 242 359 l 63 667 l 164 667 l 370 363 l 164 49 l 63 49 l 242 359 "},"ı":{"x_min":135,"x_max":258,"ha":406,"o":"m 135 0 l 135 720 l 258 720 l 258 0 l 135 0 "},"Т":{"x_min":135.640625,"x_max":881.6875,"ha":1015,"o":"m 881 510 l 881 1017 l 135 1017 l 135 510 l 271 510 l 271 872 l 443 872 l 443 4 l 582 4 l 584 872 l 746 872 l 746 510 l 881 510 "},"<":{"x_min":113.265625,"x_max":771.8125,"ha":880,"o":"m 113 434 l 113 548 l 771 826 l 771 705 l 249 491 l 771 274 l 771 153 l 113 434 "},"£":{"x_min":134.96875,"x_max":925.78125,"ha":924,"o":"m 134 1018 l 925 1018 l 925 0 l 758 0 l 757 858 l 307 857 l 307 0 l 134 0 l 134 1018 m 328 0 l 328 333 q 372 502 328 436 q 541 585 427 588 q 703 512 650 581 q 745 369 745 456 q 686 225 745 286 q 543 159 627 164 q 472 180 502 157 q 448 204 449 196 l 448 311 q 535 256 477 255 q 644 366 631 257 q 646 387 646 377 q 540 497 646 497 q 453 438 480 497 q 436 331 432 393 q 433 0 435 213 l 328 0 m 641 0 l 641 174 l 640 174 l 640 174 q 680 204 662 189 q 739 283 725 244 l 739 0 l 641 0 "},"Ц":{"x_min":118.015625,"x_max":711.453125,"ha":834,"o":"m 118 1021 l 118 611 l 276 611 l 276 1021 l 118 1021 m 552 1017 l 552 4 l 711 4 l 711 1017 l 552 1017 m 118 459 l 554 459 l 554 615 l 118 615 l 118 459 "},"t":{"x_min":135.640625,"x_max":881.6875,"ha":1021,"o":"m 881 476 l 881 951 l 135 951 l 135 476 l 271 476 l 271 815 l 406 815 l 406 2 l 610 2 l 610 815 l 746 815 l 746 476 l 881 476 m 598 1164 q 654 1143 631 1164 q 677 1091 677 1121 q 654 1040 677 1062 q 598 1019 631 1019 q 543 1040 566 1019 q 520 1091 520 1062 q 543 1143 520 1121 q 598 1164 566 1164 m 417 1165 q 473 1143 450 1165 q 496 1092 496 1122 q 473 1041 496 1062 q 417 1020 450 1020 q 362 1041 385 1020 q 339 1092 339 1062 q 362 1143 339 1122 q 417 1165 385 1165 "},"¬":{"x_min":78,"x_max":735,"ha":882,"o":"m 735 288 l 620 288 l 620 585 l 78 585 l 78 699 l 735 699 l 735 288 "},"W":{"x_min":114.625,"x_max":653.953125,"ha":785,"o":"m 169 393 q 151 352 155 364 q 125 213 125 284 q 165 67 125 127 q 274 2 206 6 q 364 20 339 0 q 345 35 363 19 q 330 48 337 42 q 307 80 322 60 q 299 75 303 78 q 284 73 293 71 q 239 103 259 79 q 202 220 204 143 q 233 334 202 262 q 265 398 261 398 l 231 415 l 169 393 m 609 436 q 625 470 621 460 q 651 609 651 538 q 611 755 651 695 q 501 821 569 817 q 412 803 436 824 q 430 788 413 803 q 446 775 438 781 q 468 743 455 763 q 477 748 472 746 q 492 749 483 751 q 537 720 516 744 q 573 602 572 680 q 543 489 574 561 q 511 424 515 424 l 538 411 l 609 436 m 609 436 l 609 436 q 620 412 609 438 q 641 350 633 382 q 653 261 653 305 q 609 95 656 171 q 460 6 554 5 q 352 50 396 6 q 298 134 317 82 q 284 193 283 174 q 307 280 287 246 q 388 326 335 326 q 470 284 441 326 q 497 194 496 248 q 483 129 498 154 q 451 94 474 113 q 413 108 420 102 q 390 130 404 115 q 432 195 432 162 q 423 237 432 218 q 394 262 413 262 q 349 192 354 262 q 374 124 347 160 q 458 81 406 81 q 544 151 510 81 q 571 257 572 207 q 548 363 571 308 q 526 406 530 406 l 538 411 l 573 424 q 609 436 600 417 m 169 393 l 167 392 q 155 416 167 390 q 135 478 143 446 q 122 567 124 523 q 166 733 120 657 q 316 822 222 823 q 425 778 380 822 q 478 693 459 745 q 492 634 493 654 q 469 548 489 582 q 388 502 441 502 q 306 544 336 502 q 279 634 281 580 q 293 699 278 674 q 326 734 302 715 q 363 720 357 726 q 386 697 372 712 q 345 633 345 666 q 354 591 345 610 q 383 566 364 566 q 427 636 423 566 q 402 704 429 668 q 318 747 370 747 q 232 678 267 747 q 205 571 204 621 q 229 465 206 520 q 250 421 246 421 l 231 415 l 213 402 q 169 393 178 411 m 600 1258 q 611 1234 600 1260 q 631 1172 623 1204 q 644 1083 642 1127 q 600 917 646 993 q 450 828 544 827 q 341 872 387 828 q 288 956 307 904 q 274 1015 273 996 q 297 1102 277 1068 q 378 1148 325 1148 q 460 1106 431 1148 q 487 1016 486 1070 q 474 951 488 976 q 440 916 464 935 q 403 930 410 924 q 380 952 394 937 q 421 1017 421 984 q 413 1059 421 1041 q 383 1084 402 1084 q 339 1014 343 1084 q 364 946 337 982 q 448 903 396 903 q 534 973 500 903 q 561 1079 562 1030 q 538 1185 560 1130 q 516 1229 520 1229 l 600 1258 m 354 848 q 335 863 352 847 q 319 876 327 869 q 297 908 311 888 q 288 903 293 905 q 274 901 282 899 q 228 930 248 906 q 191 1047 193 970 q 222 1162 191 1089 q 255 1226 250 1226 l 179 1262 q 140 1180 147 1199 q 114 1041 114 1112 q 154 895 114 954 q 263 830 196 833 q 354 848 328 826 "},"ù":{"x_min":135.640625,"x_max":535.796875,"ha":676,"o":"m 406 1155 l 406 282 l 535 282 l 535 144 l 409 145 l 409 -4 l 269 -3 l 270 142 l 136 142 l 135 280 l 265 279 l 265 1155 l 406 1155 "},"а":{"x_min":103.09375,"x_max":630.75,"ha":716,"o":"m 103 -3 l 103 418 q 158 632 103 548 q 373 737 228 741 q 577 644 510 732 q 630 464 630 573 q 556 281 630 358 q 375 198 481 203 q 284 224 323 195 q 254 255 256 244 l 254 389 q 364 320 291 320 q 503 459 486 321 q 505 487 505 474 q 371 625 505 625 q 261 551 295 625 q 238 416 234 494 q 235 -3 238 266 l 103 -3 m 499 -3 l 499 217 l 497 216 l 497 216 q 549 255 526 235 q 623 355 604 305 l 623 -3 l 499 -3 "},"Ф":{"x_min":137.671875,"x_max":1098.046875,"ha":1238,"o":"m 617 957 q 957 823 816 957 q 1098 498 1098 688 q 957 173 1098 308 q 617 39 816 39 q 278 173 419 39 q 137 498 137 308 q 278 823 137 688 q 617 957 419 957 m 619 808 q 396 719 483 808 q 309 497 309 630 q 396 278 309 364 q 619 191 482 191 q 842 278 755 191 q 929 497 929 364 q 843 718 929 630 q 619 808 754 808 m 358 1180 q 385 1182 371 1182 q 533 1143 436 1182 q 666 1105 629 1105 q 917 1134 786 1105 q 830 1049 873 1092 q 672 994 758 994 q 505 1026 595 994 q 373 1062 408 1060 q 338 1064 356 1064 q 173 1030 242 1064 q 253 1124 204 1081 q 358 1180 309 1171 m 917 1134 q 842 1035 843 1037 q 748 830 783 944 q 697 483 701 676 q 663 143 693 271 q 543 -99 627 -4 q 463 -149 518 -126 q 316 -176 396 -176 q 264 -172 290 -176 q 408 -113 362 -164 q 472 -2 425 -94 q 509 202 492 39 q 525 476 524 349 q 605 881 529 735 q 768 1047 660 984 q 917 1134 914 1132 "},">":{"x_min":115.96875,"x_max":774.53125,"ha":878,"o":"m 774 428 l 115 147 l 115 268 l 637 484 l 115 699 l 115 820 l 774 542 l 774 428 "},"v":{"x_min":141.078125,"x_max":963.078125,"ha":1089,"o":"m 141 202 l 963 202 l 963 -132 l 781 -133 l 781 34 l 321 34 l 320 -133 l 141 -133 l 141 202 "},"τ":{"x_min":112.578125,"x_max":598.1875,"ha":705,"o":"m 424 619 l 424 -2 l 302 -2 l 302 619 l 112 619 l 112 718 l 598 718 l 598 619 l 424 619 "},"О":{"x_min":122.765625,"x_max":1144.84375,"ha":1274,"o":"m 156 699 q 149 741 156 699 q 145 807 145 767 q 206 944 145 874 q 394 1031 282 1031 q 553 1001 493 1031 q 649 918 601 977 q 744 796 697 857 q 868 722 777 758 q 1092 664 966 683 q 921 651 996 651 q 638 735 714 651 q 541 845 590 790 q 395 894 483 896 q 254 833 333 892 q 156 699 168 769 m 388 676 q 396 696 391 676 q 402 735 402 716 q 382 780 402 769 q 325 794 358 794 q 280 784 299 794 q 324 827 293 805 q 401 854 364 854 q 451 838 428 854 q 463 806 463 830 q 442 730 463 770 q 388 676 419 687 m 221 706 q 174 651 198 679 q 137 570 149 618 q 122 403 122 509 q 212 118 122 226 q 468 0 305 6 q 574 27 510 0 q 631 56 631 51 q 696 21 652 38 q 804 0 752 0 q 1002 36 942 0 q 1143 364 1127 113 q 1144 400 1144 381 q 1129 558 1144 470 q 1113 634 1113 647 l 965 602 q 989 375 991 512 q 960 218 987 267 q 811 141 921 146 q 688 181 747 137 q 641 223 641 214 q 573 181 618 203 q 465 149 512 151 q 338 219 396 147 q 278 403 278 296 q 298 558 278 504 q 339 628 305 579 l 221 706 "},"ξ":{"x_min":135.640625,"x_max":670.078125,"ha":808,"o":"m 596 1011 l 596 910 l 497 910 q 286 783 286 910 q 489 666 286 666 l 588 666 l 588 565 q 313 444 407 565 q 259 288 259 375 q 318 154 259 198 q 462 107 365 118 q 567 84 531 99 q 644 14 615 63 q 670 -75 670 -27 q 581 -239 670 -179 q 396 -292 505 -290 l 427 -179 q 510 -154 476 -175 q 551 -83 551 -128 q 435 -1 551 -14 q 135 284 135 31 q 198 472 135 387 q 356 595 257 553 q 225 657 275 605 q 172 792 172 712 q 274 962 172 902 q 476 1011 358 1011 l 596 1011 "},"&":{"x_min":120.046875,"x_max":699.25,"ha":799,"o":"m 400 1247 q 522 1144 484 1247 q 531 1089 531 1109 l 531 1087 q 501 956 531 1003 q 470 903 486 923 q 430 962 464 905 q 409 1001 411 988 l 409 1005 q 437 1090 437 1046 q 400 1141 425 1141 q 368 1092 368 1129 l 368 1089 q 395 1001 377 1032 q 634 642 395 988 l 699 550 l 699 548 l 520 305 q 466 234 479 246 l 414 301 q 406 317 409 301 l 491 433 q 572 547 498 446 l 403 796 q 295 973 317 917 q 276 1084 276 1036 q 343 1227 276 1167 q 398 1247 362 1239 l 400 1247 m 335 869 q 388 792 388 797 l 349 722 l 290 634 q 233 552 242 560 l 230 545 l 373 341 q 494 161 481 195 q 526 32 518 116 l 526 27 q 479 -90 526 -24 l 453 -110 q 403 -126 422 -126 l 396 -126 q 303 -71 348 -126 q 274 11 286 -38 q 271 37 271 18 l 271 39 q 330 215 271 139 q 351 185 336 211 q 388 128 388 135 q 360 35 360 59 q 398 -29 366 -29 q 429 34 425 -21 l 429 39 q 388 153 423 92 q 222 390 337 233 l 121 539 l 120 545 q 276 786 181 636 l 335 869 m 379 747 l 422 747 l 425 744 l 425 669 l 489 669 l 489 626 l 486 623 l 425 623 l 425 558 l 422 555 l 377 555 l 373 558 l 373 623 l 316 623 l 314 626 l 314 669 l 375 669 l 375 744 l 379 747 m 377 541 l 422 541 l 425 539 l 425 474 l 486 474 l 489 470 l 489 430 l 424 430 l 424 369 l 421 366 l 377 366 l 373 369 l 373 430 l 314 430 l 314 472 l 316 475 l 373 475 l 373 539 l 377 541 "},"Λ":{"x_min":142.421875,"x_max":1051.921875,"ha":1214,"o":"m 666 994 l 1051 0 l 908 0 l 650 721 q 598 885 616 815 q 545 721 576 805 l 276 0 l 142 0 l 531 994 l 666 994 "},"I":{"x_min":97.671875,"x_max":349.96875,"ha":475,"o":"m 137 0 l 137 810 l 319 810 l 319 0 l 137 0 m 223 1127 q 313 1091 276 1127 q 349 1003 349 1054 q 313 915 349 951 q 223 878 276 878 q 134 915 171 878 q 97 1003 97 951 q 134 1091 97 1054 q 223 1127 170 1127 m 223 1097 q 158 1070 185 1097 q 132 1007 132 1044 q 158 943 132 969 q 223 916 185 916 q 288 943 261 916 q 315 1007 315 969 q 288 1070 315 1044 q 223 1097 261 1097 "},"G":{"x_min":137.671875,"x_max":1057.34375,"ha":1183,"o":"m 636 392 l 636 508 l 1057 509 l 1057 140 q 645 -14 862 -14 q 385 44 501 -14 q 198 229 261 108 q 137 494 137 347 q 193 756 137 637 q 373 952 257 889 q 635 1013 486 1013 q 967 881 862 1013 q 1042 718 1016 818 l 923 685 q 773 874 881 828 q 636 900 711 900 q 374 800 463 900 q 273 502 273 689 q 452 147 273 236 q 638 103 539 103 q 792 131 711 103 q 928 206 876 160 l 928 392 l 636 392 "},"ˉ":{"x_min":123.4375,"x_max":546.640625,"ha":636,"o":"m 123 832 l 123 932 l 546 932 l 546 832 l 123 832 "},"`":{"x_min":-162.78125,"x_max":-4.0625,"ha":72,"o":"m -96 906 l -162 904 l -118 1146 l -4 1146 l -96 906 "},"Х":{"x_min":126.828125,"x_max":847.78125,"ha":971,"o":"m 239 2 q 126 76 180 40 q 253 210 190 143 q 375 343 377 342 l 463 246 q 349 127 455 246 q 239 2 249 16 m 588 381 l 505 432 l 571 363 q 847 79 794 126 q 780 37 843 78 q 722 2 751 19 q 336 400 722 2 q 278 522 278 459 q 354 666 278 597 l 413 608 l 414 631 l 375 672 q 208 853 295 754 q 136 937 172 895 q 204 980 141 939 q 262 1015 233 997 q 577 659 419 836 q 651 497 656 564 q 640 438 647 451 q 588 381 631 419 m 526 522 l 522 533 l 513 545 l 497 562 q 479 563 487 563 q 423 510 423 563 q 424 490 423 501 q 470 462 446 462 q 527 507 504 462 q 529 515 528 513 l 529 515 q 526 522 528 517 m 575 685 l 484 776 q 598 891 491 776 q 708 1014 698 1001 q 826 942 769 978 q 697 813 762 877 q 575 685 573 686 "},"Υ":{"x_min":141.75,"x_max":939.34375,"ha":1087,"o":"m 448 199 l 448 -3 l 632 -3 l 632 199 l 448 199 m 632 335 l 632 851 l 778 851 l 778 492 l 939 492 l 939 1018 l 141 1018 l 141 492 l 301 492 l 301 851 l 448 851 l 448 335 l 632 335 m 332 200 l 327 200 l 330 335 l 448 335 l 448 332 l 632 332 l 632 335 l 752 335 l 755 200 l 741 200 l 741 199 l 632 199 l 632 200 l 448 200 l 448 199 l 332 199 l 332 200 "},"r":{"x_min":139.03125,"x_max":876.9375,"ha":1019,"o":"m 143 1009 l 872 1009 l 876 1005 l 876 6 l 872 2 l 813 2 l 809 6 l 809 504 q 794 570 805 510 q 787 598 791 570 q 739 687 756 670 l 711 725 l 711 859 l 300 859 l 300 725 q 260 661 300 720 q 221 552 244 640 l 215 514 l 215 8 l 210 4 l 143 4 l 139 8 l 139 1005 l 143 1009 m 490 795 q 709 693 617 795 q 760 608 735 672 q 787 498 787 548 l 789 474 l 789 440 q 747 320 789 396 q 695 243 737 286 q 655 209 678 219 q 563 169 599 169 q 548 165 563 165 q 388 213 423 165 l 388 383 l 389 384 l 389 386 q 434 343 394 386 q 518 315 480 315 q 593 349 571 325 q 639 472 639 401 l 639 476 q 565 634 639 590 q 507 655 534 655 q 438 630 472 652 q 370 456 370 560 l 370 8 l 366 4 l 238 4 l 234 8 l 234 512 q 286 672 238 590 q 490 795 359 795 m 781 366 l 785 366 l 785 6 l 781 2 l 651 2 l 647 6 l 647 185 l 689 215 q 758 315 739 261 q 781 366 771 335 "},"ж":{"x_min":118.015625,"x_max":720.265625,"ha":832,"o":"m 143 731 l 246 718 q 229 590 229 638 q 232 552 229 569 q 249 472 241 491 q 311 422 266 434 l 210 381 q 122 535 139 432 q 118 600 118 569 q 143 731 118 664 m 426 468 q 491 427 433 438 q 512 466 501 446 q 525 525 525 495 q 415 656 525 656 q 337 613 374 656 q 300 518 299 569 q 320 443 301 473 q 348 413 334 428 q 221 368 263 393 q 122 231 133 320 q 118 162 118 196 q 152 -8 118 63 l 273 14 q 238 163 238 92 q 239 195 238 179 q 270 291 246 262 q 355 326 295 320 q 453 215 440 336 q 445 183 455 197 q 427 168 436 168 q 398 180 408 165 q 387 213 387 194 q 400 256 389 240 q 417 277 409 267 q 394 307 412 288 q 354 317 392 307 q 320 286 337 301 q 299 206 296 257 q 351 113 304 144 q 427 91 385 91 q 499 118 470 91 q 534 217 537 151 q 510 299 531 266 q 478 335 495 317 q 649 404 591 330 q 702 589 702 470 q 688 697 702 638 q 669 750 675 750 l 568 728 q 592 573 593 631 q 490 415 588 408 q 387 535 387 423 q 401 567 387 560 q 415 570 408 569 q 431 565 423 567 q 442 536 441 558 q 426 468 442 521 m 538 320 q 571 294 556 310 q 609 189 604 255 q 577 25 613 128 l 686 3 q 720 195 720 94 q 639 364 720 297 q 594 333 609 340 q 538 320 572 328 "},"¿":{"x_min":108,"x_max":748.921875,"ha":884,"o":"m 498 720 l 498 581 l 359 581 l 359 720 l 498 720 m 489 475 q 490 440 490 452 q 470 314 490 367 q 421 234 454 274 q 331 149 404 213 q 251 61 270 95 q 233 -11 233 28 q 291 -139 233 -87 q 425 -190 347 -190 q 624 10 592 -190 l 748 -4 q 648 -216 731 -141 q 427 -291 565 -291 q 206 -222 296 -291 q 108 -19 108 -146 q 152 122 108 56 q 257 233 182 167 q 320 293 305 276 q 363 369 352 330 q 372 475 371 402 l 489 475 "},"x":{"x_min":138.75,"x_max":1156.375,"ha":1290,"o":"m 1156 506 l 1155 1013 l 410 1013 l 410 923 l 505 881 l 549 866 l 718 868 l 718 0 l 857 0 l 859 868 l 1020 868 l 1020 506 l 1156 506 m 543 624 q 529 556 541 575 q 499 518 515 533 q 434 537 455 536 q 401 511 398 539 q 434 485 404 487 q 443 486 438 485 q 511 508 495 495 q 558 619 543 535 q 560 634 559 626 q 496 747 563 696 q 346 831 465 771 q 211 932 276 868 q 139 1068 134 1010 q 191 1024 138 1062 q 381 931 267 971 q 599 816 533 875 q 698 612 681 742 q 700 569 701 590 q 573 394 694 455 q 425 354 484 349 q 319 413 368 359 q 273 524 269 467 q 327 622 276 582 q 436 657 378 661 q 543 624 515 651 m 697 493 q 641 408 683 446 q 589 379 628 396 q 539 358 564 368 q 539 339 540 346 q 364 164 536 269 q 220 66 251 94 q 177 18 198 42 q 144 -35 150 -8 q 141 -67 142 -52 q 362 44 181 -1 q 635 211 548 92 q 701 407 696 297 q 697 493 704 455 "},"с":{"x_min":135.640625,"x_max":657.875,"ha":745,"o":"m 135 518 q 256 840 135 695 q 577 1034 380 988 l 615 1043 l 568 1015 q 368 800 446 940 q 291 514 291 660 q 383 210 291 352 q 619 1 474 71 l 657 -16 l 643 -15 q 276 170 423 9 q 135 518 135 324 "},"÷":{"x_min":54,"x_max":710,"ha":857,"o":"m 312 625 l 312 764 l 451 764 l 451 625 l 312 625 m 710 433 l 54 433 l 54 547 l 710 547 l 710 433 m 312 216 l 312 355 l 451 355 l 451 216 l 312 216 "},"h":{"x_min":131.578125,"x_max":959,"ha":1081,"o":"m 959 716 l 619 716 l 619 1013 l 474 1013 l 474 715 l 131 715 l 131 -3 l 280 -4 l 280 571 l 471 570 l 471 303 l 619 303 l 619 570 l 803 570 l 803 -2 l 959 -4 l 959 716 "},"я":{"x_min":122.765625,"x_max":765.71875,"ha":866,"o":"m 405 246 l 405 9 l 461 9 l 461 246 l 405 246 m 311 100 l 555 100 l 555 155 l 311 155 l 311 100 m 670 2 q 716 33 673 2 q 765 69 762 67 q 400 529 552 319 q 379 582 379 558 q 395 628 379 602 q 436 651 413 651 q 478 631 458 651 q 493 564 499 611 q 454 488 491 546 l 519 399 q 589 584 589 489 q 525 722 589 675 q 448 741 499 741 q 365 728 406 741 q 309 699 324 716 q 278 591 278 661 q 320 463 278 518 q 670 2 476 258 m 424 297 l 360 379 q 244 221 362 378 q 122 61 183 141 q 212 3 122 61 q 424 297 281 99 "},"Ё":{"x_min":139.03125,"x_max":1092.609375,"ha":1222,"o":"m 808 1249 q 721 1214 757 1249 q 685 1127 685 1178 q 721 1041 685 1077 q 808 1005 757 1005 q 894 1041 858 1005 q 930 1127 930 1077 q 894 1214 930 1178 q 808 1249 858 1249 m 404 1249 q 318 1214 354 1249 q 282 1127 282 1178 q 318 1041 282 1077 q 404 1005 354 1005 q 491 1041 455 1005 q 526 1127 526 1077 q 491 1214 526 1178 q 404 1249 455 1249 m 295 497 q 385 725 295 632 q 615 817 475 817 q 846 729 756 817 q 935 497 935 641 q 847 261 935 357 q 615 163 754 163 q 381 263 472 163 q 295 497 295 359 m 615 7 q 952 152 811 7 q 1092 497 1092 298 q 952 834 1092 695 q 615 974 813 974 q 278 834 417 974 q 139 497 139 695 q 279 152 139 298 q 615 7 419 7 "},".":{"x_min":135.640625,"x_max":386.59375,"ha":521,"o":"m 135 125 q 172 213 135 177 q 260 250 208 250 q 349 213 313 250 q 386 125 386 177 q 349 36 386 73 q 260 0 313 0 q 172 36 208 0 q 135 125 135 73 "},"φ":{"x_min":146.5,"x_max":950.1875,"ha":1075,"o":"m 436 738 l 412 632 q 271 387 271 585 q 327 198 271 276 q 492 93 386 116 l 492 541 q 499 637 492 608 q 549 716 510 689 q 647 740 585 740 q 908 577 826 740 q 950 394 950 492 q 809 81 950 210 q 613 -12 734 12 l 613 -271 l 492 -271 l 492 -12 q 242 113 344 -12 q 146 381 146 231 q 220 623 146 520 q 436 738 303 741 m 613 99 q 772 212 715 117 q 822 406 822 295 q 793 554 822 490 q 682 639 756 639 q 620 592 634 639 q 613 505 613 569 l 613 99 "},";":{"x_min":138.359375,"x_max":324.875,"ha":473,"o":"m 170 -2 l 170 124 l 302 124 l 302 -2 q 195 -182 302 -137 l 162 -134 q 236 -2 233 -104 l 170 -2 m 231 741 q 277 729 255 741 q 312 694 299 716 q 324 647 324 672 q 312 601 324 623 q 278 566 300 579 q 231 554 255 554 q 185 566 207 554 q 150 601 162 579 q 138 647 138 623 q 150 694 138 672 q 185 729 163 716 q 231 741 208 741 m 231 156 q 277 144 255 156 q 312 109 299 132 q 324 63 324 87 q 312 17 324 39 q 278 -17 300 -4 q 231 -29 255 -29 q 185 -17 207 -29 q 150 17 162 -4 q 138 63 138 39 q 150 109 138 87 q 185 144 163 132 q 231 156 208 156 "},"f":{"x_min":131.578125,"x_max":1829.171875,"ha":1960,"o":"m 1677 448 q 1652 532 1677 497 q 1538 581 1615 581 q 1442 545 1482 581 q 1398 448 1398 507 q 1538 316 1398 316 q 1677 448 1677 316 m 1247 448 q 1334 642 1247 560 q 1538 725 1420 725 q 1742 642 1655 725 q 1829 448 1829 560 q 1742 255 1829 337 q 1538 172 1655 172 q 1334 255 1420 172 q 1247 448 1247 337 m 584 385 q 557 472 584 436 q 437 524 518 524 q 336 487 379 524 q 290 385 290 447 q 437 246 290 246 q 584 385 584 246 m 131 385 q 222 589 131 502 q 437 676 314 676 q 652 589 561 676 q 743 385 743 502 q 652 181 743 267 q 437 94 561 94 q 222 181 314 94 q 131 385 131 267 m 683 -2 q 755 246 755 54 q 726 481 755 347 q 696 730 696 615 q 774 919 696 838 q 960 1000 851 1000 q 1127 956 1053 1000 q 1260 698 1256 880 q 1190 488 1264 565 q 1060 413 1141 435 q 1010 402 1020 402 q 896 451 944 406 l 872 640 q 995 548 933 548 q 1119 698 1119 548 q 1066 821 1119 774 q 973 860 1022 860 q 888 817 931 860 q 841 715 843 771 q 857 531 839 677 q 876 334 876 381 q 683 -2 872 113 m 1261 550 q 1286 579 1261 542 l 1261 550 l 1261 986 l 1058 986 l 1058 1121 l 1397 1121 l 1397 693 q 1252 531 1293 647 l 1261 550 "},"“":{"x_min":57,"x_max":409,"ha":550,"o":"m 188 828 l 188 686 l 57 686 l 57 797 q 78 929 57 887 q 168 1011 107 983 l 198 963 q 124 828 127 934 l 188 828 m 398 828 l 398 686 l 267 686 l 267 797 q 288 929 267 887 q 379 1011 317 983 l 409 963 q 334 828 337 934 l 398 828 "},"Г":{"x_min":136.546875,"x_max":1100.078125,"ha":1222,"o":"m 137 786 q 158 875 131 786 q 247 1039 189 978 q 453 1122 328 1126 q 651 1106 571 1119 q 760 1095 724 1095 q 803 1096 779 1095 q 943 1125 862 1100 q 1100 1196 1032 1154 q 954 1048 1042 1117 q 719 952 826 947 q 561 967 621 956 q 480 974 516 976 q 331 951 379 969 q 137 786 229 911 m 772 910 q 669 891 772 923 q 474 775 550 855 q 357 478 366 661 q 323 145 347 260 q 263 2 302 47 q 183 -56 242 -23 q 407 37 311 -44 q 548 430 558 167 q 600 713 541 588 q 712 866 643 802 q 772 910 742 888 "},"A":{"x_min":133.609375,"x_max":1112.28125,"ha":1220,"o":"m 649 1224 q 726 1182 685 1224 q 744 1133 744 1148 l 744 1105 q 693 1030 733 1056 q 634 1017 664 1017 q 538 1089 569 1017 l 534 1112 q 624 1224 534 1201 l 649 1224 m 635 980 q 803 942 705 978 q 1041 735 965 875 q 1099 591 1099 638 q 1112 496 1108 560 q 1057 286 1112 421 q 944 136 1024 214 q 785 41 849 56 q 692 10 770 30 q 655 3 672 3 l 628 3 q 226 200 370 3 q 133 494 133 332 q 230 779 133 632 q 316 874 261 822 q 635 980 451 980 m 575 951 l 575 891 q 502 872 575 883 q 293 710 360 820 q 226 489 226 607 q 310 246 226 359 q 416 151 374 172 q 539 105 464 122 q 573 99 539 101 l 575 96 l 575 45 l 681 45 l 681 101 q 699 107 681 106 l 699 105 q 823 153 754 118 q 1017 505 1017 286 q 891 790 1017 663 q 763 867 827 844 l 681 887 l 681 951 l 575 951 m 588 938 l 668 938 l 672 933 l 672 61 l 668 56 l 588 56 l 584 61 l 584 933 l 588 938 "},"6":{"x_min":131.578125,"x_max":750.109375,"ha":884,"o":"m 602 775 l 733 769 q 712 828 740 775 q 621 935 678 891 q 431 1005 541 995 q 408 1007 419 1007 q 207 879 282 1007 q 131 529 131 751 q 431 0 131 -5 q 715 142 641 4 q 750 301 750 206 q 703 453 750 376 q 443 583 623 583 q 299 532 360 583 q 254 476 254 493 q 285 726 254 617 q 431 885 331 886 q 602 775 552 883 m 457 462 q 581 412 530 462 q 632 292 632 362 q 581 171 632 221 q 457 122 530 122 q 334 171 385 122 q 283 292 283 221 q 334 412 283 362 q 457 462 385 462 "},"Ь":{"x_min":123.4375,"x_max":854.5625,"ha":996,"o":"m 123 1106 q 450 617 409 962 q 248 481 341 590 q 259 649 259 569 q 123 1106 259 928 m 539 595 q 762 501 666 595 q 854 297 854 409 q 767 86 854 174 q 539 -4 676 -4 q 305 84 392 -4 q 224 297 224 168 q 316 501 224 409 q 539 595 412 595 m 539 468 q 420 413 468 468 q 375 297 375 362 q 420 185 375 233 q 539 133 468 133 q 658 185 610 133 q 704 297 704 233 q 658 413 704 362 q 539 468 610 468 "},"π":{"x_min":143.78125,"x_max":954.265625,"ha":1084,"o":"m 156 506 q 173 582 151 506 q 247 722 199 670 q 418 794 314 797 q 582 781 515 791 q 672 772 642 772 q 708 773 689 772 q 954 853 831 779 q 833 735 907 790 q 638 659 727 655 q 507 672 558 663 q 440 677 470 678 q 156 506 281 670 m 581 636 q 505 621 581 647 q 360 528 417 592 q 272 291 279 438 q 229 -44 260 37 q 143 -135 209 -99 q 312 -59 242 -126 q 412 253 420 42 q 452 478 407 379 q 537 601 484 550 q 581 636 559 619 m 565 534 l 564 -4 l 693 -4 l 693 533 l 565 534 "},"O":{"x_min":135.640625,"x_max":705.359375,"ha":853,"o":"m 705 337 q 670 174 705 227 q 503 14 626 74 l 503 16 q 432 0 503 11 q 233 70 303 0 q 200 107 221 74 l 187 122 l 187 132 q 147 208 174 133 q 135 316 135 271 l 152 437 l 187 573 q 215 725 215 671 l 217 727 l 215 729 l 217 754 l 217 777 q 160 982 217 832 l 154 1062 q 217 1186 154 1123 q 333 1235 278 1235 q 467 1182 411 1235 q 521 1064 509 1129 l 526 1026 l 526 1024 l 524 1015 l 526 1013 q 488 903 520 958 q 367 828 439 841 q 342 843 342 828 q 261 969 342 875 q 231 1039 231 1018 q 227 1047 231 1047 l 225 1047 l 223 1039 l 238 992 q 294 907 259 951 q 342 803 320 877 l 360 707 l 360 702 l 358 702 l 360 682 l 360 644 l 358 632 l 360 630 l 360 628 q 340 588 356 588 l 300 564 q 254 529 260 539 l 254 527 q 371 583 339 583 q 467 596 371 592 q 602 535 553 577 q 678 444 649 495 q 701 366 682 444 l 705 337 m 432 440 l 423 440 q 340 385 388 440 q 306 281 306 330 l 306 274 l 304 266 q 331 183 304 238 q 385 147 357 153 l 408 143 q 432 147 417 147 l 432 151 l 434 151 l 436 149 q 536 324 536 186 q 432 440 520 440 m 434 76 l 430 76 l 430 70 l 434 70 l 434 76 m 333 1108 q 275 1056 296 1108 l 273 1034 q 306 971 284 971 q 329 961 316 961 q 379 984 379 970 q 398 1024 393 997 l 398 1043 l 400 1045 q 360 1101 400 1079 q 333 1108 346 1108 "},"n":{"x_min":140.390625,"x_max":1182.828125,"ha":1312,"o":"m 140 72 l 347 437 l 497 380 l 292 -8 l 140 72 m 413 613 l 554 579 q 571 710 571 674 q 339 969 571 969 q 189 893 242 969 q 151 762 150 834 q 211 551 153 617 q 498 411 282 470 q 686 379 565 393 q 824 349 784 369 q 915 238 883 318 q 923 198 923 217 q 881 150 923 148 q 821 187 848 151 q 794 273 794 222 q 808 341 794 306 l 652 372 q 631 257 631 311 q 701 71 631 151 q 881 -8 775 -10 q 1067 173 1067 -7 q 1064 206 1067 192 q 1005 385 1041 329 q 636 554 897 547 q 447 571 500 558 q 368 610 415 579 q 312 693 334 633 q 296 762 295 740 q 312 798 297 779 q 358 819 333 822 q 416 776 400 813 q 431 714 417 775 q 432 701 432 708 q 421 644 432 680 q 413 613 411 614 m 727 583 l 889 524 l 1114 943 l 978 1036 l 727 583 m 748 885 l 821 1011 l 935 946 l 862 819 l 748 885 m 996 737 l 1069 863 l 1182 797 l 1110 672 l 996 737 "},"3":{"x_min":126.15625,"x_max":813.1875,"ha":938,"o":"m 128 927 q 126 940 126 933 q 178 974 126 974 q 247 961 228 974 q 314 906 296 926 q 357 783 357 854 q 267 674 357 674 q 164 769 164 674 q 221 869 164 832 l 128 927 m 269 734 q 303 777 303 734 q 269 819 303 819 q 243 805 253 819 q 233 777 233 790 q 269 734 233 734 m 366 871 l 333 927 q 484 998 398 998 q 680 939 591 997 q 798 714 799 862 q 380 376 796 376 q 213 428 255 376 q 192 507 192 454 q 235 592 192 556 q 389 636 288 636 q 611 595 529 636 l 533 522 q 432 545 495 545 q 338 497 338 545 q 416 457 338 457 q 599 536 518 457 q 641 590 630 567 q 661 711 661 632 q 634 828 661 788 q 480 890 593 888 q 366 871 392 891 m 682 430 l 752 492 q 813 320 813 440 q 732 113 813 209 q 503 5 640 5 q 349 56 427 5 l 387 109 q 458 104 389 103 q 606 157 535 105 q 695 330 695 222 q 682 430 695 400 m 278 313 q 353 279 323 313 q 381 202 383 245 q 326 75 378 132 q 260 21 293 48 q 204 -1 234 -1 q 174 17 189 -1 q 165 37 165 27 q 173 50 165 45 q 242 99 191 62 q 197 223 196 141 q 278 313 198 304 m 291 160 q 311 193 311 160 q 291 226 311 226 q 271 193 271 226 q 291 160 271 160 "},"9":{"x_min":137.671875,"x_max":791.484375,"ha":942,"o":"m 155 239 l 273 250 q 438 92 301 92 q 606 187 546 92 q 670 453 670 288 q 669 477 670 461 q 567 381 631 417 q 432 346 503 346 q 215 444 298 346 q 137 672 137 535 q 221 910 137 815 q 450 1007 307 1007 q 630 953 551 1007 q 750 807 709 900 q 791 526 791 710 q 627 51 791 170 q 435 -7 545 -7 q 244 57 318 -7 q 155 239 170 122 m 655 678 q 607 835 655 771 q 465 906 554 906 q 316 831 373 906 q 263 668 263 762 q 316 517 263 577 q 461 454 372 454 q 607 520 555 454 q 655 678 655 582 "},"l":{"x_min":135.640625,"x_max":776.5625,"ha":882,"o":"m 135 2 l 136 955 l 271 955 l 271 132 l 746 132 l 746 2 l 135 2 m 610 153 l 610 916 l 747 916 l 747 153 l 610 153 m 594 1040 q 620 1105 594 1079 q 685 1131 647 1131 q 750 1105 723 1131 q 776 1040 776 1079 q 750 975 776 1002 q 685 949 723 949 q 620 976 647 949 q 594 1040 594 1003 "},"¤":{"x_min":113.9375,"x_max":780.640625,"ha":880,"o":"m 208 651 l 113 744 l 191 824 l 286 730 q 446 779 358 779 q 607 730 536 779 l 701 824 l 780 744 l 686 651 q 734 492 734 577 q 686 332 734 406 l 780 240 l 701 159 l 607 254 q 446 204 536 204 q 286 254 358 204 l 191 159 l 113 240 l 208 332 q 160 492 160 406 q 208 651 160 577 m 270 492 q 321 367 270 419 q 446 316 373 316 q 570 367 519 316 q 621 492 621 419 q 570 616 621 565 q 446 668 519 668 q 321 616 373 668 q 270 492 270 565 "},"4":{"x_min":109.1875,"x_max":781.984375,"ha":893,"o":"m 516 992 q 575 906 575 992 q 554 800 575 863 q 470 590 539 760 q 332 363 411 445 q 193 287 259 287 q 129 324 153 287 q 109 381 109 353 q 155 464 109 419 q 252 509 202 509 q 297 480 297 509 q 265 426 297 444 q 222 413 244 420 q 184 391 185 401 q 187 376 183 381 q 198 371 191 370 q 244 383 229 373 q 303 448 265 397 q 414 687 366 531 q 480 963 463 847 q 482 970 481 966 q 516 992 487 986 m 396 405 l 445 470 q 564 385 474 442 q 564 318 570 382 q 534 322 550 318 q 459 354 497 330 q 396 405 404 388 m 667 464 l 667 563 q 691 615 678 615 q 703 592 703 615 q 667 464 703 540 m 695 731 q 611 655 642 731 q 584 507 584 590 l 584 41 q 632 9 594 9 q 678 37 678 9 l 678 358 q 781 613 781 500 q 695 731 781 722 "},"p":{"x_min":136.328125,"x_max":786.0625,"ha":936,"o":"m 136 853 l 786 853 l 786 1 l 644 1 l 644 717 l 278 719 l 278 1 l 136 0 l 136 853 m 453 855 q 318 911 373 855 q 262 1046 262 967 q 318 1181 262 1125 q 453 1237 374 1237 q 588 1181 533 1237 q 644 1046 644 1125 q 589 911 644 967 q 453 855 533 855 m 452 947 q 523 976 494 947 q 553 1048 553 1006 q 523 1120 553 1090 q 452 1149 494 1149 q 381 1120 410 1149 q 352 1048 352 1090 q 381 976 352 1006 q 452 947 410 947 "},"Ъ":{"x_min":139.71875,"x_max":983.421875,"ha":1127,"o":"m 353 411 q 352 411 352 411 l 353 412 l 353 868 l 139 868 l 139 1018 l 516 1018 l 516 588 q 353 396 380 487 l 353 411 m 668 599 q 891 505 795 599 q 983 301 983 413 q 896 90 983 178 q 668 0 805 0 q 434 88 520 0 q 353 301 353 172 q 445 505 353 413 q 668 599 541 599 m 668 472 q 549 417 597 472 q 503 301 503 366 q 549 189 503 238 q 668 137 597 137 q 787 189 739 137 q 832 301 832 238 q 787 417 832 366 q 668 472 739 472 "},"‡":{"x_min":50,"x_max":719,"ha":834,"o":"m 323 -235 l 323 16 l 50 16 l 50 125 l 323 125 l 323 617 l 50 617 l 50 726 l 323 726 l 323 981 l 446 981 l 446 726 l 719 726 l 719 617 l 446 617 l 446 125 l 719 125 l 719 16 l 446 16 l 446 -235 l 323 -235 "},"Ü":{"x_min":147.171875,"x_max":1081.09375,"ha":1220,"o":"m 697 691 l 634 772 q 727 908 646 798 q 779 988 754 940 q 806 1028 798 1024 q 829 1024 815 1032 q 870 994 838 1016 q 902 978 880 993 q 904 963 909 971 q 786 806 884 929 q 718 712 762 771 q 697 691 700 690 m 600 575 l 536 662 q 507 630 519 647 q 472 543 476 589 q 471 510 471 527 q 535 290 471 347 q 621 258 571 258 q 714 297 678 258 q 761 459 761 349 q 728 594 761 536 q 649 712 691 656 q 572 813 611 763 q 434 1034 467 956 q 428 1039 433 1039 q 388 1012 423 1039 q 348 982 352 985 q 339 966 340 974 q 508 721 337 953 q 578 634 543 677 q 645 532 622 577 q 661 430 661 501 q 650 371 661 384 q 623 361 641 362 q 590 371 603 360 q 567 446 575 385 q 565 526 561 499 q 600 575 568 542 m 524 678 q 510 656 516 672 q 500 636 504 640 q 459 577 485 613 q 409 584 434 590 q 335 552 358 573 q 268 368 278 501 q 299 166 263 297 q 337 49 331 49 l 225 0 q 147 341 147 172 q 148 385 147 362 q 233 615 155 529 q 433 701 311 701 q 510 689 485 701 q 524 678 527 680 m 682 671 q 727 636 699 659 q 768 577 742 613 q 818 584 792 590 q 892 552 869 573 q 959 368 950 501 q 928 166 965 297 q 889 49 896 49 l 1002 0 q 1081 340 1081 172 q 1079 385 1081 362 q 994 615 1072 529 q 794 701 916 701 q 707 686 742 701 q 682 671 680 673 "},"√":{"x_min":58,"x_max":763.359375,"ha":884,"o":"m 712 1268 l 763 1268 l 551 -53 l 215 639 l 81 577 l 58 621 l 262 724 l 536 166 l 712 1268 "},"Ю":{"x_min":116.65625,"x_max":953.578125,"ha":1061,"o":"m 217 1250 q 287 1217 257 1250 q 317 1144 317 1184 q 287 1070 317 1104 q 217 1037 257 1037 q 146 1070 176 1037 q 116 1144 116 1104 q 146 1217 116 1184 q 217 1250 176 1250 m 609 651 l 703 545 l 953 933 l 841 1029 l 609 651 m 140 1015 l 295 1015 q 522 729 366 913 q 728 472 676 549 q 816 250 817 339 q 747 52 814 118 q 604 -5 691 -4 q 464 61 529 -6 q 394 223 398 130 q 513 501 394 329 l 595 389 q 528 240 537 308 q 611 143 541 144 q 667 174 647 143 q 685 238 685 200 q 683 257 685 248 q 292 800 661 394 l 292 2 l 141 2 l 140 1015 "}}}
